<svg width="16" height="16" viewBox="0 0 16 16" fill="none" xmlns="http://www.w3.org/2000/svg">
<circle id="circle" cx="8" cy="8" r="5.5" stroke="currentColor"/>
<path id="arrow" d="M10 6H10.5C10.5 5.72386 10.2761 5.5 10 5.5V6ZM7 5.5C6.72386 5.5 6.5 5.72386 6.5 6C6.5 6.27614 6.72386 6.5 7 6.5V5.5ZM9.5 9C9.5 9.27614 9.72386 9.5 10 9.5C10.2761 9.5 10.5 9.27614 10.5 9H9.5ZM6.35355 10.3536L10.3536 6.35355L9.64645 5.64645L5.64645 9.64645L6.35355 10.3536ZM10 5.5H7V6.5H10V5.5ZM9.5 6V9H10.5V6H9.5Z" fill="currentColor"/>
</svg>
