<svg width="17" height="16" viewBox="0 0 17 16" fill="none" xmlns="http://www.w3.org/2000/svg">
<path fill-rule="evenodd" clip-rule="evenodd" d="M5.03485 4.23743C5.03485 3.82321 5.37064 3.48743 5.78485 3.48743H11.4737C11.6601 3.48743 11.8397 3.55677 11.9777 3.68197L14.2888 5.77874C14.4455 5.9209 14.5349 6.12263 14.5349 6.3342V14.2374C14.5349 14.6516 14.1991 14.9874 13.7849 14.9874H5.78485C5.37064 14.9874 5.03485 14.6516 5.03485 14.2374V4.23743ZM6.53485 4.98743V13.4874H13.0349V6.66643L11.1842 4.98743H6.53485Z" fill="currentColor"/>
<path fill-rule="evenodd" clip-rule="evenodd" d="M4.58292 2.30079C4.19947 2.30079 3.88862 2.59198 3.88862 2.95118V12C3.1217 12 2.5 11.3783 2.5 10.6114V2.95118C2.5 1.87357 3.43256 1 4.58292 1H8.19921C8.91762 1 9.5 1.58238 9.5 2.30079H4.58292Z" fill="currentColor"/>
</svg>
