<svg width="17" height="16" viewBox="0 0 17 16" fill="none" xmlns="http://www.w3.org/2000/svg">
<path fill-rule="evenodd" clip-rule="evenodd" d="M3.40098 8.07886C4.90665 10.1921 6.97297 11.25 8.5 11.25C10.0226 11.25 12.1177 10.1484 13.5988 8.07822C12.1126 5.87811 10.6291 4.75 8.5 4.75C6.3745 4.75 4.86561 5.91473 3.40098 8.07886ZM1.86808 7.6803C3.51693 5.10091 5.47239 3.25 8.5 3.25C11.5258 3.25 13.4521 5.05244 15.1319 7.6803C15.2894 7.92659 15.2894 8.24191 15.1319 8.4882C13.4498 11.1197 10.763 12.75 8.5 12.75C6.23983 12.75 3.58732 11.1777 1.86808 8.4882C1.71064 8.24191 1.71064 7.92659 1.86808 7.6803Z" fill="currentColor"/>
<path d="M6.5 8C6.5 6.89543 7.39543 6 8.5 6C9.60457 6 10.5 6.89543 10.5 8C10.5 9.10457 9.60457 10 8.5 10C7.39543 10 6.5 9.10457 6.5 8Z" fill="currentColor"/>
</svg>
