<svg width="16" height="16" viewBox="0 0 16 16" fill="none" xmlns="http://www.w3.org/2000/svg">
<path fill-rule="evenodd" clip-rule="evenodd" d="M2.11848 11.6672C1.65876 12.3363 1.5397 13.258 1.5397 14.2426C1.5397 14.6607 1.19595 14.9996 0.771923 14.9996C0.347894 14.9996 0.00415039 14.6607 0.00415039 14.2426C0.00415039 13.2086 0.112569 11.8873 0.84717 10.8181C1.62455 9.68658 2.98065 8.99963 5.0942 8.99963H6.10176C8.21531 8.99963 9.57141 9.68658 10.3488 10.8181C11.0834 11.8873 11.1918 13.2086 11.1918 14.2426C11.1918 14.6607 10.8481 14.9996 10.424 14.9996C10 14.9996 9.65626 14.6607 9.65626 14.2426C9.65626 13.258 9.53719 12.3363 9.07748 11.6672C8.66055 11.0603 7.8555 10.5137 6.10176 10.5137H5.0942C3.34045 10.5137 2.53541 11.0603 2.11848 11.6672Z" fill="currentColor"/>
<path fill-rule="evenodd" clip-rule="evenodd" d="M5.56103 0.999634C3.62803 0.999634 2.06103 2.56664 2.06103 4.49963C2.06103 6.43263 3.62803 7.99963 5.56103 7.99963C7.49403 7.99963 9.06103 6.43263 9.06103 4.49963C9.06103 2.56664 7.49403 0.999634 5.56103 0.999634ZM5.56103 2.53622C4.47667 2.53622 3.59761 3.41527 3.59761 4.49963C3.59761 5.584 4.47667 6.46305 5.56103 6.46305C6.64539 6.46305 7.52444 5.584 7.52444 4.49963C7.52444 3.41527 6.64539 2.53622 5.56103 2.53622Z" fill="currentColor"/>
<path fill-rule="evenodd" clip-rule="evenodd" d="M12.1126 6.16638C12.5729 6.16638 12.946 5.79327 12.946 5.33301C12.946 4.87275 12.5729 4.49963 12.1126 4.49963C11.6524 4.49963 11.2793 4.87275 11.2793 5.33301C11.2793 5.79327 11.6524 6.16638 12.1126 6.16638ZM12.1126 7.66638C13.4013 7.66638 14.446 6.62169 14.446 5.33301C14.446 4.04432 13.4013 2.99963 12.1126 2.99963C10.824 2.99963 9.77927 4.04432 9.77927 5.33301C9.77927 6.62169 10.824 7.66638 12.1126 7.66638Z" fill="currentColor"/>
<path d="M14.1867 10.4934C14.3187 10.6883 14.4008 11.2276 14.4477 11.5114H11.8887C12.0752 12.0479 12.208 12.4811 12.32 13.0114H15.25C15.6642 13.0114 16 12.6756 16 12.2614C16 11.5999 15.9344 10.3989 15.4286 9.65214C14.8809 8.84368 13.9393 8.38489 12.5602 8.38489H11.4277C11.0132 8.38489 9.79141 8.42634 9.45475 8.50628C10.1673 8.98215 10.7004 9.31025 11.0778 9.88489H12.5602C13.5878 9.88489 13.9911 10.2047 14.1867 10.4934Z" fill="currentColor"/>
</svg>
