<svg width="16.482" height="10" fill="none" version="1.1" viewBox="0 0 16.482 10" xmlns="http://www.w3.org/2000/svg">
 <path d="m4.2382 0.79982c1.844 0 3.1286 1.4075 4.0028 2.6314 0.87417-1.2239 2.1588-2.6314 4.0028-2.6314 2.8671 0 4.2382 1.9074 4.2382 4.2002 0 2.2758-1.3874 4.2002-4.2382 4.2002-1.8189 0-3.1421-1.4264-4.0028-2.6314-0.86068 1.205-2.1839 2.6314-4.0028 2.6314-2.8507 0-4.2382-1.9244-4.2382-4.2002 1e-7 -2.2928 1.3712-4.2002 4.2382-4.2002zm2.8255 4.2002c-0.43211 1.0558-1.5418 2.6926-2.8255 2.6926-1.2491 0-2.5942-0.87477-2.5942-2.6926 0-1.8178 1.3451-2.5838 2.5942-2.5838 1.2836 0 2.3356 1.6176 2.8255 2.5838zm2.3546 0c0.43212 1.0558 1.5418 2.6926 2.8254 2.6926 1.2492 0 2.5942-0.87477 2.5942-2.6926 0-1.8178-1.345-2.5838-2.5942-2.5838-1.2836 0-2.3356 1.6176-2.8254 2.5838z" clip-rule="evenodd" fill="currentColor" fill-rule="evenodd"/>
</svg>
