<svg width="40" height="40" viewBox="0 0 40 40" fill="none" xmlns="http://www.w3.org/2000/svg">
<path fill-rule="evenodd" clip-rule="evenodd" d="M17.0695 20.472C15.636 20.472 14.3865 20.6262 13.3014 20.9122L14.9611 22.5571C15.5923 22.4658 16.2924 22.4164 17.0695 22.4164H20.9584C24.8625 22.4164 26.8226 23.6631 27.8704 25.2099C28.9724 26.8367 29.2222 29.0106 29.2222 31.1664C29.2222 31.7033 29.6575 32.1386 30.1945 32.1386C30.7314 32.1386 31.1667 31.7033 31.1667 31.1664C31.1667 28.9472 30.9304 26.26 29.4803 24.1194C27.976 21.8988 25.3181 20.472 20.9584 20.472H17.0695Z" fill="currentColor"/>
<path fill-rule="evenodd" clip-rule="evenodd" d="M18.8519 7.29296C16.3639 7.29296 14.3149 9.35474 14.3149 11.938C14.3149 14.5213 16.3639 16.5831 18.8519 16.5831C21.3399 16.5831 23.3889 14.5213 23.3889 11.938C23.3889 9.35474 21.3399 7.29296 18.8519 7.29296ZM12.3704 11.938C12.3704 8.31662 15.2546 5.34851 18.8519 5.34851C22.4492 5.34851 25.3334 8.31662 25.3334 11.938C25.3334 15.5594 22.4492 18.5275 18.8519 18.5275C15.2546 18.5275 12.3704 15.5594 12.3704 11.938Z" fill="currentColor"/>
<path fill-rule="evenodd" clip-rule="evenodd" d="M10.2892 31.1665L13.2058 28.2498H5.83075V26.3053H13.2058L10.2892 23.3887L11.6641 22.0137L16.2404 26.5901C16.6201 26.9698 16.6201 27.5854 16.2404 27.965L11.6641 32.5414L10.2892 31.1665Z" fill="currentColor"/>
</svg>
