<svg width="40" height="40" viewBox="0 0 40 40" fill="none" xmlns="http://www.w3.org/2000/svg">
<path d="M19.6013 10.6638C19.0541 10.6638 18.6105 11.0828 18.6105 11.5996V20.2232C18.6105 20.3763 18.6503 20.5271 18.7264 20.6623L23.6953 29.4951C23.8672 29.8007 24.2037 29.9918 24.5702 29.9918H27.2652C27.8124 29.9918 28.256 29.5728 28.256 29.056V21.2971C28.256 20.8328 28.6545 20.4564 29.1461 20.4564C29.6377 20.4564 30.0362 20.8328 30.0362 21.2971V29.056C30.0362 29.5728 30.4798 29.9918 31.027 29.9918H38.2592C38.8064 29.9918 39.25 29.5728 39.25 29.056V11.5996C39.25 11.0828 38.8064 10.6638 38.2592 10.6638H19.6013Z" fill="currentColor"/>
<path d="M17.7591 20.2075L13.2668 10.5273C12.9058 9.82451 10.8552 9.82417 10.4937 10.5267L6.68544 18.8626C6.36559 19.4841 6.84484 20.2075 7.57651 20.2075H11.3076C11.737 20.2075 12.0852 20.5363 12.0852 20.9419C12.0852 21.3475 11.737 21.6763 11.3076 21.6763H5.79268C5.42301 21.6763 5.08408 21.8707 4.91359 22.1806L1.36299 28.6326C1.02018 29.2556 1.49877 30 2.24209 30H16.787C17.3341 30 17.7777 29.581 17.7777 29.0642V20.2896C17.7777 20.2613 17.7714 20.2333 17.7591 20.2075Z" fill="currentColor"/>
<path fill-rule="evenodd" clip-rule="evenodd" d="M5.82747 20.7249C5.82747 21.1125 5.49479 21.4268 5.08441 21.4268H2.98974C2.57936 21.4268 2.24668 21.1125 2.24668 20.7249C2.24668 20.3373 2.57936 20.0231 2.98974 20.0231H5.08441C5.49479 20.0231 5.82747 20.3373 5.82747 20.7249Z" fill="#494949"/>
</svg>
