<svg width="36" height="36" viewBox="0 0 36 36" fill="none" xmlns="http://www.w3.org/2000/svg">
<g clip-path="url(#clip0_2252_12150)">
<path d="M18.168 7.99854C17.6157 7.99854 17.168 8.44625 17.168 8.99854V18.2139C17.168 18.3775 17.2081 18.5386 17.2849 18.6831L22.3002 28.122C22.4737 28.4487 22.8134 28.6528 23.1832 28.6528H24.9034C25.4557 28.6528 25.9034 28.2051 25.9034 27.6528V19.3615C25.9034 18.8653 26.3056 18.463 26.8018 18.463C27.298 18.463 27.7003 18.8653 27.7003 19.3615V27.6528C27.7003 28.2051 28.148 28.6528 28.7003 28.6528H35C35.5523 28.6528 36 28.2051 36 27.6528V8.99853C36 8.44625 35.5523 7.99854 35 7.99854H18.168Z" fill="currentColor"/>
<path d="M16.3086 18.1971L11.7744 8.85259C11.41 8.1016 10.3403 8.10124 9.97535 8.85198L6.1316 16.7599C5.80877 17.4241 6.2925 18.1971 7.03099 18.1971H10.7969C11.2303 18.1971 11.5817 18.5484 11.5817 18.9819C11.5817 19.4154 11.2303 19.7667 10.7969 19.7667H5.23052C4.85739 19.7667 4.5153 19.9745 4.34322 20.3055L0.759491 27.2004C0.413481 27.8661 0.896538 28.6616 1.64679 28.6616H15.3274C15.8797 28.6616 16.3274 28.2139 16.3274 27.6616V18.2848C16.3274 18.2546 16.321 18.2247 16.3086 18.1971Z" fill="currentColor"/>
<path fill-rule="evenodd" clip-rule="evenodd" d="M5.26563 18.75C5.26563 19.1642 4.92985 19.5 4.51563 19.5H2.40142C1.98721 19.5 1.65142 19.1642 1.65142 18.75C1.65142 18.3358 1.98721 18 2.40142 18H4.51563C4.92985 18 5.26563 18.3358 5.26563 18.75Z" fill="currentColor"/>
</g>
<defs>
<clipPath id="clip0_2252_12150">
<rect width="36" height="36" fill="white"/>
</clipPath>
</defs>
</svg>
