<svg width="16" height="16" viewBox="0 0 16 16" fill="none" xmlns="http://www.w3.org/2000/svg">
<g clip-path="url(#clip0_830_5012)">
<path fill-rule="evenodd" clip-rule="evenodd" d="M5.67742 13.9882C5.67742 15.1737 6.69226 16.1348 7.94411 16.1348C9.16925 16.1348 10.1674 15.2143 10.2094 14.0638L12.9901 13.1492C13.2593 13.4062 13.624 13.5641 14.0255 13.5641C14.8539 13.5641 15.5255 12.8925 15.5255 12.0641C15.5255 11.331 14.9997 10.7204 14.3046 10.5895L14.3258 6.95827L14.3261 6.91454C15.2904 6.66774 16 5.83335 16 4.84201C16 4.63219 15.9682 4.4294 15.9089 4.23773C15.6333 3.34635 14.7636 2.69533 13.7333 2.69533C13.2893 2.69533 12.8752 2.81621 12.5255 3.02512L9.57528 1.72171C9.58595 1.64951 9.59147 1.57565 9.59147 1.50049C9.59147 0.926726 9.26933 0.427971 8.79605 0.175548C8.60359 0.061991 8.36895 0 8.09147 0C7.26305 0 6.59147 0.671488 6.59147 1.49991C6.59147 1.58785 6.60025 1.67384 6.61703 1.75715L6.61365 1.75834L3.29245 2.92493C3.06922 2.86555 2.83378 2.83379 2.5905 2.83379C1.15981 2.83379 0 3.93219 0 5.28714C0 6.18751 0.512123 6.97459 1.27555 7.40138L1.19697 10.3026C0.492226 10.6119 0 11.3159 0 12.1349C0 13.2394 0.89543 14.1349 2 14.1349C2.78849 14.1349 3.4704 13.6786 3.79611 13.0157L5.69692 13.7053C5.68406 13.7979 5.67742 13.8923 5.67742 13.9882ZM10.0478 7.7405L9.07635 6.97353L11.5095 5.25994C11.4814 5.12476 11.4666 4.98502 11.4666 4.84201C11.4666 4.43447 11.5865 4.05345 11.7947 3.72888C11.8061 3.71119 11.8177 3.69366 11.8296 3.67631L9.37738 2.27323C9.11894 2.70236 8.65177 2.99156 8.1164 3.00029L8.20726 7.48277L8.21376 7.7405L13.0436 10.9295C13.2209 10.7759 13.4346 10.6632 13.67 10.606L13.2423 6.9382C12.8291 6.85178 12.4582 6.65855 12.1636 6.39066L10.0478 7.7405ZM7.10275 8.23753L7.0995 8.23446L4.58985 6.84726C4.11472 7.39276 3.39549 7.7405 2.5905 7.7405C2.53204 7.7405 2.47403 7.73866 2.41654 7.73505L1.9751 10.135L2 10.1349C2.55198 10.1349 3.05174 10.3585 3.41362 10.7201L6.24512 8.80818L8.25273 9.81453L8.29483 11.867C9.07813 11.9822 9.72878 12.4773 10.0302 13.1471L12.6012 12.5354C12.5521 12.387 12.5255 12.2284 12.5255 12.0635C12.5255 11.8286 12.5795 11.6063 12.6758 11.4083L7.10275 8.23753ZM6.81686 12.1217L6.81661 12.1255C6.52981 12.2815 6.28247 12.4953 6.09225 12.75L3.99452 12.2841C3.99815 12.2348 4 12.1851 4 12.1349C4 11.822 3.92816 11.5259 3.80007 11.2622L6.81661 9.81453L6.81686 12.1217ZM5.13068 5.7708C5.16369 5.61443 5.18101 5.4527 5.18101 5.28714C5.18101 4.52992 4.81877 3.85282 4.24946 3.40279L6.79865 2.26119C6.95925 2.5335 7.20336 2.75068 7.49574 2.87744L7.19046 7.06551L5.13068 5.7708Z" fill="currentColor"/>
</g>
<defs>
<clipPath id="clip0_830_5012">
<rect width="16" height="16" fill="white"/>
</clipPath>
</defs>
</svg>
