<svg width="16" height="16" viewBox="0 0 16 16" fill="none" xmlns="http://www.w3.org/2000/svg">
<path fill-rule="evenodd" clip-rule="evenodd" d="M7.69269 4.86659V2.18231H2.54319C2.54319 3.91126 4.18665 5.36372 6.41022 5.77406C6.09498 6.00775 5.78826 6.24318 5.49095 6.47923C5.06593 5.99232 4.43366 5.68361 3.72765 5.68361C2.44786 5.68361 1.41038 6.69803 1.41038 7.94939C1.41038 8.598 1.68911 9.18296 2.13584 9.59599C0.640254 11.2786 -0.065465 12.7036 0.42045 13.368C0.515381 13.4978 0.651758 13.5931 0.8251 13.6555C0.356471 12.5672 2.40247 9.91331 5.56382 7.56469C8.86879 5.10937 12.1412 3.91746 12.873 4.90248C13.4105 5.626 12.4278 7.32281 10.5583 9.14578C14.297 6.22382 16.62 3.16727 15.8353 2.09431C15.0624 1.03747 11.5419 2.27074 7.69269 4.86659ZM7.69269 8.2587C4.8487 8.2587 2.54319 10.8416 2.54319 14.0261H7.69269V8.2587ZM7.69293 8.2587C7.69293 8.2587 9.0098 10.031 11.7476 10.031C13.5621 10.031 15.0052 8.2587 15.0052 8.2587V14.0261H13.4735C10.2812 14.0261 7.69293 11.444 7.69293 8.2587Z" fill="currentColor"/>
</svg>
