<svg width="16" height="16" viewBox="0 0 16 16" fill="none" xmlns="http://www.w3.org/2000/svg">
<path fill-rule="evenodd" clip-rule="evenodd" d="M4.6313 2.00096C5.06362 1.9926 5.49533 2.03878 5.917 2.13851C6.27203 2.21928 6.60911 2.36959 6.91032 2.58143C7.1885 2.79208 7.40861 3.07528 7.54855 3.40261C7.70937 3.8051 7.78696 4.23841 7.77625 4.67426C7.79451 5.15283 7.67722 5.62642 7.43898 6.03602C7.18836 6.42286 6.84192 6.73181 6.43643 6.9301C6.98671 7.08469 7.46601 7.43879 7.78813 7.92871C8.09736 8.44783 8.25279 9.05046 8.23496 9.66117C8.24516 10.1481 8.14854 10.631 7.95247 11.0731C7.77124 11.4588 7.50587 11.7949 7.17762 12.0546C6.83966 12.3113 6.45936 12.5013 6.0556 12.6151C5.63689 12.7358 5.20434 12.7964 4.7699 12.7953H0V2.00096H4.6313ZM4.35607 6.36682C4.69575 6.38141 5.03013 6.27545 5.30451 6.06628C5.43591 5.94438 5.53813 5.79214 5.60299 5.62173C5.66786 5.45132 5.69357 5.26746 5.67807 5.08485C5.68687 4.87157 5.64611 4.65923 5.55927 4.46587C5.48561 4.31193 5.37107 4.18326 5.22927 4.09517C5.08564 3.99821 4.92428 3.93334 4.75538 3.90467C4.57212 3.86767 4.38563 3.85084 4.19899 3.85446H2.16088V6.37645H4.35607V6.36682ZM4.47487 10.9624C4.6803 10.9653 4.8853 10.9422 5.08538 10.8936C5.26823 10.8515 5.44164 10.7733 5.59623 10.6632C5.74768 10.5532 5.87003 10.4051 5.95198 10.2327C6.04699 10.0129 6.09065 9.77268 6.07936 9.53187C6.09996 9.31242 6.07207 9.09096 5.99782 8.88449C5.92357 8.67801 5.80494 8.49199 5.65101 8.34068C5.32477 8.09029 4.92496 7.96625 4.52041 7.98992H2.16088V10.9624H4.47487Z" fill="currentColor"/>
<path fill-rule="evenodd" clip-rule="evenodd" d="M11.3126 10.9225C11.4822 11.0863 11.682 11.2125 11.8998 11.2934C12.1177 11.3742 12.349 11.4081 12.5798 11.3929C12.9457 11.4026 13.3045 11.2866 13.6009 11.0628C13.842 10.8994 14.0246 10.6577 14.1203 10.3751H15.8436C15.66 11.1796 15.2116 11.8917 14.5763 12.3874C13.967 12.8089 13.2468 13.0223 12.5158 12.9981C11.994 13.0053 11.4762 12.9031 10.9931 12.6976C10.5561 12.5077 10.1642 12.2206 9.84473 11.8565C9.52645 11.4749 9.28194 11.0328 9.12466 10.5546C8.9481 10.02 8.86168 9.45756 8.86923 8.89226C8.86601 8.33643 8.95534 7.78423 9.13324 7.26022C9.37223 6.52302 9.8292 5.88367 10.4386 5.43391C11.0479 4.98415 11.7784 4.74711 12.525 4.75679C13.0763 4.74479 13.6214 4.87922 14.1091 5.14744C14.5498 5.39929 14.9301 5.75201 15.2212 6.17907C15.519 6.62718 15.7324 7.13012 15.8502 7.66118C15.9793 8.23144 16.0254 8.81871 15.9868 9.40326H10.8539C10.8123 9.95246 10.9767 10.4971 11.3126 10.9225ZM13.5646 6.8173C13.4209 6.66759 13.2482 6.5517 13.0579 6.47743C12.8677 6.40317 12.6643 6.37225 12.4617 6.38677C12.1928 6.37608 11.9258 6.43816 11.6868 6.56696C11.4973 6.67566 11.3301 6.82191 11.1944 6.99749C11.0743 7.16211 10.9847 7.34873 10.9304 7.5477C10.8815 7.71364 10.851 7.88485 10.8394 8.05801H14.0186C13.9909 7.60661 13.8331 7.17442 13.5659 6.81799L13.5646 6.8173Z" fill="currentColor"/>
<path d="M10.4295 2.72173H14.4133V3.78293H10.4295V2.72173Z" fill="currentColor"/>
</svg>
