<svg width="26" height="20" fill="none" version="1.1" viewBox="0 0 26 20" xmlns="http://www.w3.org/2000/svg">
 <g id="logo" fill="currentColor">
  <path d="m10.052 5.0008c0.3783-0.00685 0.756 0.03094 1.125 0.11254 0.3106 0.06608 0.6056 0.18906 0.8691 0.36238 0.2434 0.17236 0.436 0.40407 0.5585 0.67188 0.1407 0.32931 0.2086 0.68384 0.1992 1.0404 0.016 0.39156-0.0866 0.77904-0.2951 1.1142-0.2209 0.31877-0.1607 1.0286 0.1078 1.3085 0.0716 0.07468 0.1378 0.15489 0.1977 0.24012 0.2706 0.42473 0.4066 0.91783 0.391 1.4174 0.0089 0.3984-0.0756 0.7935-0.2472 1.1553-0.1586 0.3155-0.3908 0.5905-0.678 0.803-0.2957 0.21-0.6285 0.3655-0.9817 0.4586-0.3664 0.0987-0.7449 0.1483-1.125 0.1474h-3.4594c-0.39449 0-0.71429-0.3198-0.71429-0.7143v-7.4031c0-0.39449 0.3198-0.71428 0.71429-0.71428h3.3381zm-0.24084 3.5761c0-0.0022 0.00183-0.00395 0.00402-0.00387 0.29582 0.011 0.58682-0.07568 0.82582-0.24606 0.115-0.09973 0.2045-0.22429 0.2612-0.36371 0.0568-0.13943 0.0793-0.28986 0.0657-0.43927 0.0077-0.1745-0.028-0.34824-0.1039-0.50644-0.0645-0.12595-0.1647-0.23123-0.2888-0.3033-0.1257-0.07933-0.2669-0.1324-0.4146-0.15587-0.1604-0.03026-0.32358-0.04403-0.48688-0.04107h-1.0691c-0.39449 0-0.71428 0.31979-0.71428 0.71428v0.63488c0 0.39449 0.31979 0.71428 0.71428 0.71428h1.2026c0.00213 0 0.00386-0.00172 0.00386-0.00385zm0.10395 3.756c0.17979 0.0023 0.35909-0.0166 0.53419-0.0563 0.16-0.0344 0.3117-0.0984 0.447-0.1885 0.1325-0.09 0.2396-0.2112 0.3113-0.3523 0.0756-0.1635 0.114-0.3408 0.1129-0.5197-2e-4 -0.0357 7e-4 -0.0715 0.0027-0.1072 0.0086-0.1619-0.017-0.324-0.0755-0.4761-0.065-0.169-0.1688-0.3212-0.3035-0.445-0.2854-0.20484-0.6353-0.30632-0.98924-0.28695h-1.3503c-0.39449 0-0.71428 0.31975-0.71428 0.71425v1.0035c0 0.3945 0.31979 0.7143 0.71428 0.7143h1.3105z" clip-rule="evenodd" fill-rule="evenodd"/>
  <path d="m15.898 12.3c0.1484 0.1341 0.3232 0.2373 0.5139 0.3035 0.1906 0.0661 0.393 0.0938 0.5949 0.0814 0.3202 0.0079 0.6341-0.087 0.8934-0.2701 0.067-0.0424 0.1288-0.0913 0.1847-0.1456 0.2154-0.2098 0.4701-0.4171 0.7708-0.4171h0.0973c0.4631 0 0.8028 0.4418 0.5575 0.8345-0.1953 0.3129-0.4513 0.5892-0.7567 0.812-0.5332 0.3448-1.1633 0.5195-1.803 0.4997-0.4565 0.0058-0.9096-0.0778-1.3323-0.2459-0.3824-0.1554-0.7253-0.3903-1.0049-0.6882-0.2785-0.3122-0.4924-0.6739-0.63-1.0652-0.1545-0.4374-0.2301-0.8976-0.2235-1.3601-0.0028-0.4547 0.0753-0.90655 0.231-1.3353 0.2091-0.60315 0.609-1.1263 1.1421-1.4942 0.5332-0.36799 1.1724-0.56194 1.8257-0.55401 0.4824-0.00983 0.9594 0.10017 1.386 0.31961 0.3857 0.20607 0.7184 0.49466 0.9731 0.84407 0.2606 0.36663 0.4473 0.77813 0.5504 1.2126 0.0606 0.25025 0.1003 0.50453 0.1189 0.76023 0.0271 0.374-0.29 0.6651-0.665 0.6651h-3.1669c-0.3721 0-0.6972 0.2957-0.5848 0.6505 0.0679 0.2144 0.1784 0.416 0.3274 0.5925zm1.971-3.3585c-4e-4 -1.6e-4 -6e-4 -3.7e-4 -9e-4 -6.1e-4 -0.1256-0.12231-0.2766-0.217-0.4429-0.2777-0.1665-0.06077-0.3444-0.08606-0.5217-0.07419-0.2353-0.00874-0.4689 0.04206-0.678 0.14743-0.1658 0.08894-0.3122 0.2086-0.4309 0.35226-0.1051 0.13469-0.1835 0.28738-0.231 0.45017-0.0691 0.21954 0.1162 0.41753 0.3464 0.41753h1.5931c0.4129 0 0.749-0.36345 0.5552-0.72805-0.0533-0.10029-0.1162-0.19605-0.1882-0.28593-3e-4 -3.9e-4 -7e-4 -7e-4 -0.0011-9.1e-4z" clip-rule="evenodd" fill-rule="evenodd"/>
  <path d="m15.126 6.0246c0-0.23976 0.1944-0.43413 0.4341-0.43413h2.6176c0.2398 0 0.4342 0.19437 0.4342 0.43413 0 0.23977-0.1944 0.43413-0.4342 0.43413h-2.6176c-0.2397 0-0.4341-0.19436-0.4341-0.43413z"/>
 </g>
 <rect x=".5" y=".5" width="25" height="19" rx="9.5" stroke="currentColor"/>
</svg>
