<svg width="26" height="20" fill="none" version="1.1" viewBox="0 0 26 20" xmlns="http://www.w3.org/2000/svg">
 <g id="logo" fill="currentColor">
  <path d="m12.453 5.0015c0.1063-1.6e-4 0.2205-1.1e-4 0.3439-5e-5 0.0652 2e-5 0.1329 5e-5 0.2033 5e-5 1.6284 0 1.8215 0.00585 2.4645 0.03508 0.5947 0.0272 0.9175 0.12657 1.1325 0.21007 0.2846 0.11056 0.4875 0.24272 0.7009 0.45622s0.3456 0.41683 0.4564 0.7015c0.0835 0.21477 0.183 0.53756 0.21 1.1323 0.0292 0.64303 0.0356 0.8362 0.0356 2.4641 0 1.628-0.0064 1.8211-0.0356 2.4642-0.0272 0.5947-0.1265 0.9175-0.21 1.1323-0.1106 0.2846-0.243 0.4873-0.4564 0.7007-0.2135 0.2135-0.4162 0.3457-0.7009 0.4562-0.2148 0.0839-0.5378 0.183-1.1325 0.2102-0.6429 0.0292-0.8361 0.0356-2.4645 0.0356-1.6286 0-1.8217-0.0064-2.4646-0.0356-0.59469-0.0274-0.91744-0.1268-1.1326-0.2103-0.28463-0.1106-0.48793-0.2427-0.70141-0.4562-0.21347-0.2135-0.34562-0.4164-0.45642-0.7011-0.08348-0.2148-0.18297-0.5376-0.21004-1.1324-0.02922-0.643-0.03507-0.8362-0.03507-2.4651 0-1.6289 0.00585-1.8211 0.03507-2.4641 0.02719-0.59475 0.12656-0.91754 0.21004-1.1326 0.11055-0.28466 0.24295-0.488 0.45642-0.7015 0.21348-0.21349 0.41678-0.34566 0.70141-0.45648 0.215-0.08387 0.53787-0.18299 1.1326-0.21032 0.5626-0.02541 0.7807-0.03304 1.9174-0.03431v0.00152zm3.071 1.7446c0-0.40425 0.3278-0.73174 0.7319-0.73174 0.404 0 0.7319 0.32762 0.7319 0.73174 0 0.40413-0.3279 0.732-0.7319 0.732-0.4041 0-0.7319-0.32787-0.7319-0.732zm-5.656 3.2561c0-1.73 1.4024-3.1326 3.1322-3.1326 1.7297 0 3.1316 1.4026 3.1316 3.1326 0 1.73-1.4019 3.132-3.1316 3.132-1.7298 0-3.1322-1.402-3.1322-3.132z" clip-rule="evenodd" fill-rule="evenodd"/>
  <path d="m13 7.9689c1.1227 0 2.033 0.9103 2.033 2.0333 0 1.1229-0.9103 2.0333-2.033 2.0333-1.1229 0-2.0331-0.9104-2.0331-2.0333 0-1.123 0.9102-2.0333 2.0331-2.0333z"/>
 </g>
 <rect x=".5" y=".5" width="25" height="19" rx="9.5" stroke="currentColor"/>
</svg>
