<svg width="26" height="20" viewBox="0 0 26 20" fill="none" xmlns="http://www.w3.org/2000/svg">
<g id="logo" clip-path="url(#clip0_126_4634)">
<path fill-rule="evenodd" clip-rule="evenodd" d="M4.76517 3.30036C4.35986 4.08061 4.35986 5.1057 4.35986 7.15586V12.8439C4.35986 14.894 4.35986 15.9191 4.76517 16.6994C5.10673 17.3569 5.64284 17.893 6.30036 18.2346C7.08061 18.6399 8.1057 18.6399 10.1559 18.6399H15.8439C17.894 18.6399 18.9191 18.6399 19.6994 18.2346C20.3569 17.893 20.893 17.3569 21.2346 16.6994C21.6399 15.9191 21.6399 14.894 21.6399 12.8439V7.15586C21.6399 5.1057 21.6399 4.08061 21.2346 3.30036C20.893 2.64284 20.3569 2.10673 19.6994 1.76517C18.9191 1.35986 17.894 1.35986 15.8439 1.35986H10.1559C8.1057 1.35986 7.08061 1.35986 6.30036 1.76517C5.64284 2.10673 5.10673 2.64284 4.76517 3.30036ZM5.7998 9.99988C5.7998 6.02505 9.02497 2.79988 12.9998 2.79988C16.9668 2.79988 20.1998 6.02505 20.1998 9.99988C20.1998 13.9747 16.9668 17.1999 12.9998 17.1999C9.02497 17.1999 5.7998 13.9747 5.7998 9.99988ZM19.1456 9.94522C19.13 8.50054 18.6146 7.16517 17.7555 6.11875C17.6228 6.29055 16.592 7.6181 14.3274 8.53957C14.4679 8.82851 14.6085 9.13307 14.7334 9.42981C14.7529 9.47533 14.7711 9.52085 14.789 9.56581C14.8142 9.62883 14.8388 9.69074 14.8662 9.74998C16.8568 9.49927 18.8326 9.88424 19.1251 9.94124C19.1332 9.94283 19.1401 9.94416 19.1456 9.94522ZM17.0762 5.40812C15.9907 4.4476 14.5616 3.86192 12.9998 3.86192C12.5 3.86192 12.0159 3.91658 11.5551 4.02591L11.5634 4.03717C11.76 4.30518 12.8586 5.80259 13.851 7.62591C16.0375 6.80596 16.9668 5.5643 17.0762 5.40812ZM12.664 7.99294C11.641 6.18123 10.5477 4.65844 10.3838 4.43979C8.66575 5.25194 7.37724 6.83719 6.97898 8.74261C6.98368 8.74261 6.98905 8.74262 6.99507 8.74262C7.33966 8.74292 9.83966 8.74507 12.664 7.99294ZM6.84623 9.82027V10.0077C6.84623 11.5851 7.44752 13.0298 8.42367 14.1153C8.56423 13.881 10.251 11.0853 13.4215 10.0623C13.4604 10.0507 13.5013 10.039 13.5421 10.0273C13.5833 10.0156 13.6244 10.0038 13.6636 9.99207C13.5074 9.64066 13.3434 9.28925 13.1638 8.94565C10.0948 9.86712 7.11174 9.82807 6.84623 9.82027ZM9.228 14.8571C10.2666 15.6693 11.5786 16.1535 12.9998 16.1535C13.851 16.1535 14.6631 15.9817 15.405 15.6615C15.3113 15.1226 14.9599 13.2407 14.0931 10.9994C14.0853 11.0034 14.0794 11.0053 14.0735 11.0073C14.0677 11.0092 14.0618 11.0112 14.054 11.0151C10.5868 12.2255 9.33734 14.6307 9.228 14.8571ZM15.2332 10.7183C16.0376 12.9283 16.3655 14.7244 16.428 15.0992C17.8102 14.1699 18.7942 12.694 19.0597 10.9838C18.8488 10.9135 17.1621 10.4138 15.2332 10.7183Z" fill="currentColor"/>
</g>
<rect x="0.5" y="0.5" width="25" height="19" rx="9.5" stroke="currentColor"/>
<defs>
<clipPath id="clip0_126_4634">
<rect x="7" y="4" width="12" height="12" rx="6" fill="white"/>
</clipPath>
</defs>
</svg>
