<svg width="26" height="20" viewBox="0 0 26 20" fill="none" xmlns="http://www.w3.org/2000/svg">
<path id="logo" d="M6.28885 9.55486C9.90939 7.97561 13.1164 6.61785 16.5786 5.16419C17.0223 4.97791 17.9037 4.80238 17.8707 5.52404C17.4626 8.46534 16.9813 11.4182 16.5522 14.2686C16.4356 14.9345 15.6066 15.2791 15.0762 14.853C13.8015 13.9867 12.759 13.4268 11.5006 12.5403C10.8577 12.0875 11.2781 11.3409 11.6462 11.0399C12.441 10.2518 13.9851 8.84032 14.6882 8.16596C14.8387 8.02156 14.8609 7.82564 14.7914 7.74018C14.7218 7.65471 14.5512 7.63127 14.3715 7.76012C12.9812 8.757 10.2482 10.6047 9.66349 11.0153C9.26327 11.2963 8.38796 11.369 7.95809 11.1899C7.54189 11.0165 6.64263 10.5039 6.18594 10.265C5.88925 10.1099 5.96527 9.696 6.28885 9.55486Z" fill="currentColor"/>
<rect x="0.5" y="0.5" width="25" height="19" rx="9.5" stroke="currentColor"/>
</svg>
