<svg width="16" height="16" viewBox="0 0 16 16" fill="none" xmlns="http://www.w3.org/2000/svg">
<path d="M13.9727 4.35475C13.5961 4.51681 13.2003 4.62966 12.7948 4.69051C12.9844 4.65802 13.2633 4.31684 13.3743 4.17874C13.543 3.97044 13.6715 3.73264 13.7534 3.47743C13.7534 3.45847 13.7723 3.4314 13.7534 3.41786C13.7438 3.41264 13.7331 3.40991 13.7222 3.40991C13.7114 3.40991 13.7007 3.41264 13.6911 3.41786C13.2509 3.65626 12.7823 3.83821 12.2966 3.95941C12.2797 3.96458 12.2617 3.96505 12.2445 3.96075C12.2273 3.95646 12.2116 3.94757 12.1991 3.93504C12.1613 3.89002 12.1206 3.84751 12.0773 3.80778C11.8791 3.63027 11.6544 3.48498 11.4112 3.37724C11.0829 3.24255 10.7282 3.18422 10.3741 3.20665C10.0304 3.22835 9.69494 3.32052 9.38845 3.47743C9.08663 3.64285 8.82137 3.86759 8.60861 4.13813C8.38481 4.41658 8.22323 4.73973 8.13475 5.08585C8.06179 5.41507 8.05351 5.75534 8.11038 6.08772C8.11038 6.14459 8.11038 6.15271 8.06164 6.14459C6.131 5.86027 4.54695 5.1752 3.25263 3.70488C3.19577 3.63989 3.16598 3.63989 3.11995 3.70488C2.55673 4.56054 2.83022 5.91443 3.53424 6.58325C3.62901 6.6726 3.72649 6.75925 3.82939 6.84049C3.5066 6.81757 3.19169 6.7301 2.90333 6.58325C2.84917 6.54805 2.81939 6.567 2.81668 6.63199C2.809 6.72208 2.809 6.81267 2.81668 6.90276C2.87318 7.33454 3.04334 7.74357 3.30977 8.08802C3.57619 8.43247 3.92932 8.69998 4.33303 8.86319C4.43145 8.90535 4.534 8.93711 4.63901 8.95797C4.34019 9.0168 4.03371 9.02595 3.73191 8.98504C3.66692 8.9715 3.64255 9.00671 3.66692 9.06898C4.06496 10.1521 4.92874 10.4824 5.56236 10.6666C5.64901 10.6801 5.73566 10.6801 5.83314 10.7018C5.83314 10.7018 5.83314 10.7018 5.81689 10.718C5.63006 11.0592 4.87459 11.2894 4.52799 11.4085C3.89537 11.6357 3.22087 11.7226 2.55132 11.663C2.44571 11.6468 2.42134 11.6495 2.39427 11.663C2.36719 11.6766 2.39427 11.7064 2.42405 11.7334C2.55944 11.8228 2.69483 11.9013 2.83563 11.9771C3.25481 12.2058 3.69796 12.3874 4.15703 12.5187C6.53445 13.174 9.20974 12.692 10.9942 10.9184C12.3968 9.5266 12.8896 7.60679 12.8896 5.68426C12.8896 5.61115 12.979 5.56783 13.0304 5.52992C13.3853 5.25343 13.6981 4.9269 13.9592 4.56054C14.0044 4.50593 14.0276 4.43639 14.0242 4.36558C14.0242 4.32496 14.0242 4.33308 13.9727 4.35475Z" fill="currentColor"/>
</svg>
