<svg width="16" height="16" viewBox="0 0 16 16" fill="none" xmlns="http://www.w3.org/2000/svg">
<path d="M1.02401 7.50962C4.92376 5.8086 8.3781 4.34612 12.1073 2.78036C12.5852 2.57972 13.5346 2.39065 13.499 3.16796C13.0595 6.33609 12.541 9.51669 12.0788 12.5869C11.9532 13.3041 11.0603 13.6753 10.489 13.2164C9.11595 12.2832 7.99311 11.6802 6.63762 10.7253C5.94514 10.2375 6.39796 9.4334 6.79451 9.10922C7.65063 8.26028 9.3138 6.73998 10.071 6.01362C10.2332 5.85808 10.2571 5.64706 10.1822 5.555C10.1073 5.46294 9.92352 5.43769 9.72996 5.57648C8.23248 6.65023 5.28869 8.64039 4.65889 9.08267C4.22781 9.3854 3.285 9.46369 2.82198 9.27079C2.37368 9.08402 1.40507 8.53188 0.913174 8.27456C0.593595 8.10748 0.675484 7.66165 1.02401 7.50962Z" fill="currentColor"/>
</svg>
