<svg width="16" height="16" viewBox="0 0 16 16" fill="none" xmlns="http://www.w3.org/2000/svg">
<path d="M8.98206 2.71385C10.1705 1.52538 12.0974 1.52538 13.2859 2.71386C14.4744 3.90233 14.4744 5.82922 13.2859 7.01769L10.9865 9.31704C9.79807 10.5055 7.87118 10.5055 6.68271 9.31704L6.54129 9.17561L7.53124 8.18567L7.67266 8.32709C8.3144 8.96882 9.35486 8.96882 9.99659 8.32709L12.2959 6.02774C12.9377 5.386 12.9377 4.34554 12.2959 3.7038C11.6542 3.06207 10.6137 3.06207 9.97201 3.7038L8.82233 4.85348C8.54897 5.12685 8.10575 5.12685 7.83238 4.85348C7.55902 4.58011 7.55902 4.1369 7.83238 3.86353L8.98206 2.71385Z" fill="currentColor"/>
<path d="M5.03262 6.6469C6.22109 5.45843 8.14798 5.45843 9.33645 6.6469L9.47787 6.78832L8.48792 7.77827L8.3465 7.63685C7.70477 6.99511 6.66431 6.99511 6.02257 7.63685L3.72322 9.9362C3.08148 10.5779 3.08148 11.6184 3.72322 12.2601C4.36496 12.9019 5.40542 12.9019 6.04715 12.2601L7.19683 11.1105C7.4702 10.8371 7.91341 10.8371 8.18678 11.1105C8.46015 11.3838 8.46015 11.827 8.18678 12.1004L7.0371 13.2501C5.84863 14.4386 3.92174 14.4386 2.73327 13.2501C1.5448 12.0616 1.5448 10.1347 2.73327 8.94625L5.03262 6.6469Z" fill="currentColor"/>
</svg>
