<svg width="254" height="252" viewBox="0 0 254 252" fill="none" xmlns="http://www.w3.org/2000/svg">
<path d="M132.773 3.97959C129.974 -0.0407217 124.026 -0.0407269 121.227 3.97958L110.764 19.0066C109.036 21.4884 105.636 22.124 103.128 20.434L87.9435 10.2013C83.8811 7.46361 78.3341 9.61249 77.1763 14.3725L72.8485 32.1644C72.1337 35.1028 69.193 36.9236 66.244 36.2537L48.3883 32.1972C43.6113 31.112 39.2152 35.1195 39.855 39.9764L42.2466 58.1302C42.6416 61.1284 40.5572 63.8886 37.5654 64.3292L19.4501 66.9969C14.6036 67.7106 11.952 73.0356 14.3032 77.3333L23.0912 93.3973C24.5426 96.0503 23.596 99.3771 20.9654 100.869L5.03707 109.9C0.77564 112.317 0.226765 118.24 3.97165 121.398L17.9692 133.203C20.281 135.152 20.6001 138.596 18.686 140.937L7.09582 155.113C3.99502 158.906 5.62293 164.627 10.2558 166.219L27.5725 172.17C30.4324 173.153 31.9741 176.249 31.0349 179.124L25.3483 196.529C23.8269 201.186 27.4117 205.933 32.3069 205.744L50.6039 205.037C53.6258 204.921 56.1819 207.251 56.3445 210.271L57.3294 228.555C57.5929 233.446 62.6505 236.578 67.1468 234.633L83.9531 227.365C86.7287 226.165 89.954 227.414 91.1965 230.171L98.7199 246.865C100.733 251.331 106.58 252.424 110.07 248.987L123.116 236.138C125.271 234.016 128.729 234.016 130.884 236.138L143.93 248.987C147.42 252.424 153.267 251.331 155.28 246.865L162.803 230.171C164.046 227.414 167.271 226.165 170.047 227.365L186.853 234.633C191.35 236.578 196.407 233.446 196.671 228.555L197.655 210.271C197.818 207.251 200.374 204.921 203.396 205.037L221.693 205.744C226.588 205.933 230.173 201.186 228.652 196.529L222.965 179.124C222.026 176.249 223.568 173.153 226.428 172.17L243.744 166.219C248.377 164.627 250.005 158.906 246.904 155.113L235.314 140.937C233.4 138.596 233.719 135.152 236.031 133.203L250.028 121.398C253.773 118.24 253.224 112.317 248.963 109.9L233.035 100.869C230.404 99.3771 229.457 96.0503 230.909 93.3973L239.697 77.3333C242.048 73.0356 239.396 67.7106 234.55 66.9969L216.435 64.3292C213.443 63.8886 211.358 61.1284 211.753 58.1302L214.145 39.9764C214.785 35.1196 210.389 31.112 205.612 32.1972L187.756 36.2537C184.807 36.9236 181.866 35.1028 181.152 32.1644L176.824 14.3725C175.666 9.6125 170.119 7.46361 166.057 10.2013L150.872 20.434C148.364 22.124 144.964 21.4884 143.236 19.0066L132.773 3.97959Z" stroke="url(#paint0_linear_2210_129)" stroke-width="1.5"/>
<defs>
<linearGradient id="paint0_linear_2210_129" x1="-134.757" y1="135.125" x2="307.946" y2="135.125" gradientUnits="userSpaceOnUse">
<stop offset="0.280809" stop-color="#F3FF57"/>
<stop offset="1" stop-color="#FF73CF"/>
</linearGradient>
</defs>
</svg>
