<svg width="459" height="392" fill="none" version="1.1" viewBox="0 0 459 392" xmlns="http://www.w3.org/2000/svg" xmlns:xlink="http://www.w3.org/1999/xlink">
 <g>
  <path d="m157.68 64.297c-2.049-1.008-3.41-2.758-3.928-3.8665-0.323-0.6918-1.695-3.6095-3.558-7.5715-0.37 0.2253-0.755 0.4208-1.151 0.5884 1.891 4.0182 3.285 6.9835 3.61 7.681 1.265 2.7073 6.195 7.8349 13.448 3.914 4.122-2.8742 5.701-7.0839 2.396-13.86-1.684-3.453-8.626-18.152-15.029-31.739l0.194 3.4412c6.017 12.764 12.17 25.786 13.746 29.016 1.58 3.2388 1.874 5.6286 1.481 7.4164-0.383 1.7383-1.484 3.2133-3.333 4.5177-3.248 1.7334-5.896 1.4363-7.876 0.462z" fill="#2e2e2e"/>
  <path d="m63.848 40.437-59.413 348.91 34-42.846 42.579 42.846m0 0h376.99l-40.565-377.62s-100.28 8.2256-164.54 13.448c-73.823 5.9998-189.04 15.265-189.04 15.265z" fill="#151515"/>
  <path d="m63.848 40.437-59.413 348.91 34-42.846 42.579 42.846m-17.166-348.91s115.22-9.2649 189.04-15.265c64.261-5.2226 164.54-13.448 164.54-13.448l40.565 377.62h-376.99m-17.166-348.91 17.166 348.91" stroke="#2e2e2e" stroke-width="1.3109"/>
  <path d="m119.06 28.628 150.51 28.217-15.102 64.515-150.17-13.97z" fill="#151515"/>
  <path d="m120.11 30.158-14.26 76.06 147.6 13.731 14.53-62.068-113.61-21.3-0.077-1.3482 115.28 21.613-15.102 64.515-150.17-13.97 14.766-78.762 14.756 2.7664 0.103 1.3531z" fill="#2e2e2e"/>
  <path d="m137.74 33.463-0.07-1.3468 12.81 2.4017 0.069 1.3466z" fill="#2e2e2e"/>
  <path d="m137.58 12.334c-2.124 2.1824-3.244 5.3562-3.07 8.5499l1.249 22.829v0.0068l1e-3 0.0074c0.24 3.1706 1.5 5.5842 3.349 7.1416l7e-3 0.0055c1.88 1.5801 4.335 2.2522 6.902 1.9969 0.876-0.0872 1.709-0.2807 2.48-0.5917 0.402-0.1621 0.787-0.3562 1.153-0.5838 0.766-0.4773 1.445-1.1021 2.012-1.8888 1.335-1.854 1.966-4.4982 1.771-7.9649l-2e-3 -0.0391v-0.0017l-1.247-22.06-0.043-0.7571c-0.166-2.9329-1.317-5.3366-2.995-6.969-0.697-0.6784-1.485-1.2236-2.331-1.6182-1.437-0.67048-3.039-0.90197-4.628-0.6152-1.61 0.2907-3.208 1.1139-4.608 2.5522zm-0.528 31.201c0.027 0.3504 0.067 0.6899 0.12 1.0185 0.804 4.9602 4.563 7.4212 8.809 6.9988 0.709-0.0705 1.366-0.2174 1.967-0.443 0.412-0.155 0.798-0.3471 1.155-0.5773 0.592-0.3816 1.106-0.8677 1.534-1.462 1.077-1.4947 1.693-3.7863 1.501-7.1001v-0.0018l-1.29-22.817c-0.146-2.5714-1.133-4.6489-2.545-6.0643-0.625-0.6275-1.334-1.1248-2.09-1.4774-2.449-1.1419-5.402-0.7818-7.745 1.6262-1.814 1.8635-2.819 4.6336-2.663 7.4839l0.283 5.1905 0.964 17.625z" clip-rule="evenodd" fill="#2E2E2E" fill-rule="evenodd"/>
 </g>
 <g id="g1745" transform="rotate(2.4316 265.69 246.16)" fill="#494949">
  <path d="m131.49 184.74-0.707-16.958 13.483-0.562 0.708 16.957-2.461 0.103-0.611-14.638-8.561 0.358 0.611 14.637zm16.307-0.681-0.53-12.718 2.461-0.102 0.217 5.193 6.205-0.259-0.216-5.193 2.461-0.103 0.531 12.718-2.462 0.103-0.217-5.205-6.206 0.259 0.218 5.205z"/>
  <path d="m217.76 181.49c-1.695 0.071-3.155-0.238-4.379-0.926-1.225-0.696-2.183-1.694-2.874-2.994-0.683-1.301-1.061-2.827-1.134-4.577-0.074-1.751 0.176-3.303 0.749-4.656 0.581-1.353 1.452-2.423 2.615-3.211 1.162-0.796 2.591-1.229 4.286-1.3 1.955-0.081 3.593 0.346 4.914 1.282 1.329 0.935 2.279 2.228 2.851 3.88l-2.468 0.775c-0.379-1.172-1.007-2.077-1.883-2.717-0.868-0.64-1.973-0.932-3.316-0.876-1.201 0.05-2.191 0.362-2.969 0.937-0.778 0.576-1.351 1.358-1.718 2.349-0.36 0.99-0.513 2.133-0.459 3.428 0.046 1.296 0.29 2.422 0.731 3.379 0.449 0.956 1.085 1.689 1.908 2.197 0.831 0.508 1.848 0.737 3.049 0.687 1.342-0.056 2.419-0.439 3.231-1.15 0.819-0.718 1.369-1.673 1.65-2.864l2.525 0.567c-0.433 1.693-1.273 3.061-2.519 4.104-1.238 1.042-2.835 1.605-4.79 1.686zm15.626-0.652c-1.217 0.051-2.249-0.201-3.098-0.755-0.85-0.563-1.507-1.341-1.973-2.336-0.467-0.995-0.726-2.129-0.779-3.401-0.053-1.271 0.107-2.422 0.481-3.452 0.382-1.031 0.968-1.853 1.761-2.469 0.799-0.623 1.8-0.959 3.001-1.009 1.193-0.05 2.234 0.201 3.122 0.754 0.896 0.545 1.6 1.313 2.114 2.306 0.513 0.986 0.796 2.118 0.849 3.398 0.053 1.272-0.134 2.428-0.563 3.468-0.421 1.032-1.051 1.86-1.89 2.485-0.831 0.625-1.839 0.962-3.025 1.011zm-5.761 5.549-0.766-18.371 2.19-0.091 0.382 9.15 0.282-0.012 0.385 9.221zm5.327-7.76c0.785-0.033 1.424-0.26 1.918-0.682 0.501-0.422 0.864-0.976 1.087-1.661 0.23-0.694 0.328-1.461 0.293-2.301-0.035-0.832-0.196-1.581-0.483-2.245-0.279-0.665-0.69-1.186-1.233-1.565-0.543-0.378-1.222-0.55-2.039-0.516-0.769 0.032-1.397 0.247-1.884 0.645-0.479 0.397-0.826 0.939-1.041 1.624-0.207 0.685-0.293 1.467-0.256 2.346 0.037 0.88 0.187 1.652 0.45 2.317 0.264 0.665 0.659 1.18 1.185 1.543 0.527 0.364 1.194 0.528 2.003 0.495z"/>
  <path d="m260.16 179.37-0.321-7.678 0.491 0.722c-0.463 0.405-1.086 0.738-1.87 0.999-0.783 0.253-1.639 0.398-2.565 0.437-1.444 0.06-2.61-0.166-3.496-0.68-0.879-0.522-1.532-1.261-1.957-2.219-0.417-0.957-0.652-2.068-0.705-3.332l-0.2-4.793 2.496-0.104 0.167 4.004c0.028 0.651 0.101 1.27 0.219 1.854 0.119 0.585 0.322 1.104 0.608 1.556 0.286 0.444 0.69 0.789 1.211 1.035 0.521 0.237 1.194 0.339 2.018 0.305 0.958-0.04 1.772-0.228 2.442-0.562 0.67-0.343 1.147-0.697 1.43-1.063l-0.306 1.429-0.37-8.868 2.485-0.103 0.707 16.957zm8.585-0.359-0.439-10.504-4.345 0.182-0.092-2.214 11.152-0.466 0.092 2.214-4.345 0.182 0.438 10.504z"/>
  <path d="m336.51 176.54c-1.696 0.071-3.156-0.238-4.38-0.926-1.225-0.696-2.182-1.694-2.874-2.995-0.683-1.3-1.061-2.826-1.134-4.576-0.073-1.751 0.176-3.303 0.749-4.656 0.581-1.353 1.452-2.424 2.615-3.211 1.162-0.796 2.591-1.229 4.287-1.3 1.954-0.081 3.592 0.346 4.913 1.281 1.329 0.936 2.279 2.229 2.852 3.88l-2.469 0.776c-0.379-1.172-1.007-2.078-1.883-2.717-0.868-0.64-1.973-0.932-3.316-0.876-1.201 0.05-2.19 0.362-2.969 0.937-0.778 0.575-1.351 1.358-1.718 2.349-0.36 0.99-0.513 2.133-0.459 3.428 0.046 1.296 0.29 2.422 0.731 3.379 0.449 0.956 1.085 1.689 1.908 2.197 0.831 0.508 1.848 0.737 3.049 0.687 1.342-0.056 2.419-0.44 3.231-1.15 0.82-0.718 1.37-1.673 1.65-2.864l2.525 0.567c-0.433 1.693-1.272 3.061-2.519 4.104-1.238 1.042-2.835 1.604-4.789 1.686zm14.884-0.609c-1.209 0.042-2.249-0.178-3.118-0.661-0.87-0.482-1.564-1.2-2.084-2.154-0.512-0.962-0.836-2.132-0.972-3.51-0.067-0.666-0.094-1.404-0.08-2.214 0.013-0.819 0.066-1.611 0.16-2.378 0.102-0.767 0.244-1.41 0.427-1.929 0.204-0.575 0.492-1.106 0.865-1.593 0.373-0.496 0.788-0.914 1.245-1.255 0.488-0.367 1.035-0.657 1.639-0.871 0.604-0.222 1.238-0.402 1.9-0.539 0.671-0.138 1.346-0.261 2.026-0.368 0.687-0.115 1.354-0.249 2-0.402l0.328 2.192c-0.428 0.12-0.935 0.224-1.521 0.311-0.578 0.088-1.18 0.183-1.805 0.288-0.617 0.105-1.205 0.239-1.764 0.404s-1.042 0.386-1.447 0.662c-0.574 0.386-1.003 0.931-1.288 1.635-0.278 0.703-0.431 1.461-0.46 2.272 0.456-0.758 1.054-1.314 1.794-1.668 0.74-0.361 1.514-0.558 2.323-0.592 1.131-0.047 2.115 0.179 2.954 0.679 0.846 0.499 1.509 1.199 1.987 2.099 0.478 0.901 0.741 1.932 0.789 3.093 0.053 1.257-0.16 2.366-0.639 3.33-0.472 0.956-1.159 1.716-2.064 2.28-0.905 0.557-1.97 0.853-3.195 0.889zm0.033-2.326c1.13-0.047 1.967-0.432 2.511-1.154 0.552-0.723 0.804-1.666 0.755-2.828-0.049-1.193-0.387-2.118-1.012-2.777-0.625-0.658-1.483-0.964-2.575-0.918-1.107 0.046-1.94 0.423-2.5 1.13-0.553 0.707-0.804 1.658-0.754 2.851 0.05 1.209 0.384 2.139 1.001 2.789 0.617 0.651 1.475 0.953 2.574 0.907z"/>
  <path d="m369 174.83-0.708-16.957 6.665-0.278c1.076-0.045 1.988 0.137 2.736 0.546 0.749 0.409 1.322 0.956 1.72 1.639 0.398 0.675 0.613 1.398 0.645 2.167 0.039 0.934-0.159 1.745-0.595 2.431-0.427 0.687-1.024 1.168-1.791 1.444l-0.048-0.576c1.094 0.221 1.948 0.709 2.562 1.462 0.613 0.745 0.941 1.631 0.984 2.66 0.041 0.997-0.123 1.873-0.492 2.627-0.362 0.755-0.915 1.356-1.659 1.804-0.737 0.439-1.643 0.682-2.718 0.727zm2.398-2.447 4.428-0.185c0.557-0.023 1.052-0.15 1.482-0.38 0.439-0.231 0.776-0.548 1.011-0.951 0.242-0.411 0.352-0.892 0.329-1.441-0.022-0.51-0.155-0.965-0.399-1.364-0.237-0.406-0.573-0.719-1.007-0.937-0.426-0.226-0.922-0.327-1.487-0.303l-4.581 0.191zm-0.321-7.69 4.134-0.172c0.455-0.019 0.86-0.127 1.213-0.322 0.361-0.204 0.641-0.483 0.838-0.838 0.205-0.362 0.297-0.791 0.277-1.285-0.028-0.66-0.27-1.192-0.727-1.598-0.458-0.405-1.055-0.593-1.793-0.562l-4.134 0.173zm17.627 9.669c-1.304 0.054-2.423-0.19-3.358-0.733-0.934-0.543-1.666-1.311-2.195-2.303-0.522-0.993-0.813-2.133-0.874-3.42-0.047-1.311 0.156-2.48 0.608-3.505 0.453-1.034 1.126-1.856 2.021-2.467 0.894-0.612 1.985-0.944 3.273-0.998 1.389-0.058 2.589 0.238 3.599 0.888 1.018 0.649 1.709 1.568 2.074 2.756l-2.42 0.809c-0.274-0.704-0.697-1.241-1.271-1.61-0.566-0.378-1.206-0.552-1.921-0.522-0.808 0.034-1.464 0.254-1.966 0.66-0.502 0.399-0.865 0.933-1.089 1.603s-0.322 1.429-0.294 2.277c0.062 1.311 0.405 2.358 1.027 3.142 0.631 0.784 1.527 1.152 2.689 1.103 0.793-0.033 1.425-0.24 1.897-0.622 0.479-0.389 0.834-0.931 1.064-1.625l2.521 0.485c-0.364 1.258-1.011 2.24-1.941 2.947-0.93 0.7-2.078 1.078-3.444 1.135z"/>
  <path d="m171.08 183.09-0.707-16.957 6.665-0.279c1.076-0.044 1.988 0.138 2.736 0.547s1.322 0.955 1.72 1.639c0.398 0.675 0.613 1.397 0.645 2.167 0.039 0.934-0.159 1.744-0.595 2.431-0.427 0.686-1.025 1.167-1.792 1.443l-0.047-0.576c1.094 0.222 1.948 0.709 2.562 1.462 0.613 0.745 0.941 1.632 0.984 2.661 0.041 0.997-0.123 1.872-0.492 2.627-0.362 0.754-0.915 1.355-1.659 1.803-0.737 0.44-1.643 0.682-2.719 0.727zm2.399-2.448 4.428-0.185c0.557-0.023 1.051-0.15 1.482-0.38 0.439-0.23 0.776-0.547 1.01-0.95 0.243-0.412 0.352-0.892 0.33-1.441-0.022-0.511-0.155-0.965-0.399-1.364-0.238-0.407-0.573-0.719-1.007-0.937-0.426-0.226-0.922-0.327-1.487-0.304l-4.581 0.191zm-0.321-7.689 4.134-0.173c0.455-0.019 0.859-0.126 1.213-0.322 0.361-0.204 0.64-0.483 0.838-0.837 0.205-0.362 0.297-0.791 0.277-1.285-0.028-0.66-0.27-1.192-0.728-1.598-0.457-0.406-1.055-0.593-1.793-0.562l-4.133 0.172zm15.457 9.405-0.439-10.504-4.345 0.181-0.092-2.213 11.151-0.466 0.093 2.214-4.345 0.181 0.438 10.504z"/>
  <path d="m289.83 178.13-0.707-16.958 13.483-0.562 0.708 16.957-2.461 0.103-0.611-14.638-8.561 0.358 0.611 14.637zm19.605-0.818-0.439-10.504-4.345 0.181-0.092-2.214 11.151-0.465 0.093 2.214-4.345 0.181 0.438 10.504z" stop-color="#000000"/>
 </g>
 <use transform="translate(-.038773 51.965)" xlink:href="#g1745"/>
 <use transform="translate(-.076546 103.93)" xlink:href="#g1745"/>
 <use transform="translate(-.11532 155.9)" xlink:href="#g1745"/>
 <defs>
  <linearGradient id="paint1_linear_2252_29629" x1="143.32" x2="210.85" y1="166.96" y2="172.77" gradientUnits="userSpaceOnUse">
   <stop stop-color="#F3FF57" offset=".28081"/>
   <stop stop-color="#FF73CF" offset="1"/>
  </linearGradient>
 </defs>
 <g id="sizzle-1" class="sizzle" transform="rotate(2.4316 265.69 246.16)">
  <path id="path16" d="m202.18 182.6-0.665 7.736-39.663-3.411 0.666-7.737 7.667-1.48-7.048-5.725 0.274-3.186 7.877 1.011-6.982-11.412 0.12-1.402 8.997 4.251-2.374-12.702 1.129 0.097 6.596 9.588 1.308-8.908 2.043 0.176 2.286 7.421 3.52-6.922 2.043 0.176-0.233 9 8.137-8.321 1.129 0.097-4.508 12.111 9.59-2.653-0.12 1.402-8.829 10.052 7.934 0.349-0.274 3.186-7.922 4.438z" fill="url(#paint1_linear_2252_29629)"/>
  <path id="path32" d="m171.08 183.09-0.707-16.957 6.665-0.279c1.076-0.044 1.988 0.138 2.736 0.547s1.322 0.955 1.72 1.639c0.398 0.675 0.613 1.397 0.645 2.167 0.039 0.934-0.159 1.744-0.595 2.431-0.427 0.686-1.025 1.167-1.792 1.443l-0.047-0.576c1.094 0.222 1.948 0.709 2.562 1.462 0.613 0.745 0.941 1.632 0.984 2.661 0.041 0.997-0.123 1.872-0.492 2.627-0.362 0.754-0.915 1.355-1.659 1.803-0.737 0.44-1.643 0.682-2.719 0.727zm2.399-2.448 4.428-0.185c0.557-0.023 1.051-0.15 1.482-0.38 0.439-0.23 0.776-0.547 1.01-0.95 0.243-0.412 0.352-0.892 0.33-1.441-0.022-0.511-0.155-0.965-0.399-1.364-0.238-0.407-0.573-0.719-1.007-0.937-0.426-0.226-0.922-0.327-1.487-0.304l-4.581 0.191zm-0.321-7.689 4.134-0.173c0.455-0.019 0.859-0.126 1.213-0.322 0.361-0.204 0.64-0.483 0.838-0.837 0.205-0.362 0.297-0.791 0.277-1.285-0.028-0.66-0.27-1.192-0.728-1.598-0.457-0.406-1.055-0.593-1.793-0.562l-4.133 0.172zm15.457 9.405-0.439-10.504-4.345 0.181-0.092-2.213 11.151-0.466 0.093 2.214-4.345 0.181 0.438 10.504z" fill="#151515"/>
 </g>
 <g id="sizzle-2" class="sizzle" transform="rotate(2.4316 265.69 246.16)">
  <use transform="translate(118.98,-2.915)" xlink:href="#path16"/>
  <path id="path38" d="m289.83 178.13-0.707-16.958 13.483-0.562 0.708 16.957-2.461 0.103-0.611-14.638-8.561 0.358 0.611 14.637zm19.605-0.818-0.439-10.504-4.345 0.181-0.092-2.214 11.151-0.465 0.093 2.214-4.345 0.181 0.438 10.504z" fill="#151515"/>
 </g>
 <g id="sizzle-3" class="sizzle" transform="rotate(2.4316 265.69 246.16)">
  <use transform="rotate(-17.108,355.5,190.76)" xlink:href="#path16"/>
  <use transform="translate(2.166,51.92)" xlink:href="#path32"/>
 </g>
 <g id="sizzle-4" class="sizzle" transform="rotate(2.4316 265.69 246.16)">
  <use transform="rotate(-17.197,404.3,-204.56)" xlink:href="#path16"/>
  <use transform="translate(2.166,51.92)" xlink:href="#path38"/>
 </g>
 <g id="sizzle-5" class="sizzle" transform="rotate(2.4316 265.69 246.16)">
  <use transform="rotate(4.5401,-1128.8,266.68)" xlink:href="#path16"/>
  <use transform="translate(4.333,103.84)" xlink:href="#path32"/>
 </g>
 <g id="sizzle-6" class="sizzle" transform="rotate(2.4316 265.69 246.16)">
  <use transform="rotate(4.5416,-1032.1,1765.4)" xlink:href="#path16"/>
  <use transform="translate(4.333,103.84)" xlink:href="#path38"/>
 </g>
 <g id="sizzle-7" class="sizzle" transform="rotate(2.4316 265.69 246.16)">
  <use transform="rotate(-17.044,700.52,229.64)" xlink:href="#path16"/>
  <use transform="translate(6.499,155.76)" xlink:href="#path32"/>
 </g>
 <g id="sizzle-8" class="sizzle" transform="rotate(2.4316 265.69 246.16)">
  <use transform="rotate(-17.137,745.3,-169.43)" xlink:href="#path16"/>
  <use transform="translate(6.499,155.76)" xlink:href="#path38"/>
 </g>
</svg>
