<svg width="72" height="73" viewBox="0 0 72 73" fill="none" xmlns="http://www.w3.org/2000/svg">
<path d="M6.75821 51.4457C6.75821 51.4457 5.04149 43.6117 5.43913 39.5654C5.67227 37.3471 7.36511 35.2258 9.74313 34.1212C10.4585 33.7965 11.5425 33.4181 12.8576 33.0118C14.1934 32.599 15.7678 32.1574 17.4367 31.714C27.5886 29.0164 37.9685 26.7357 48.3213 24.9589C50.0228 24.6668 51.6379 24.4133 53.0245 24.2343C54.3899 24.0579 55.5339 23.9537 56.3209 23.9559C58.9919 23.954 61.3591 25.144 62.4985 27.0614C64.5865 30.729 66.2773 38.4444 66.2773 38.4444C66.2773 38.4444 66.2773 38.4444 66.2773 38.4444C66.2773 38.4444 67.994 46.2783 67.5963 50.3246C67.3632 52.5429 65.7107 54.6137 63.2836 55.729C62.0815 56.2746 59.839 56.9718 57.2076 57.6984M6.75821 51.4457C6.75821 51.4457 8.48364 59.3193 10.5283 62.7888C11.6677 64.7062 14.0348 65.8962 16.7059 65.8944M6.75821 51.4457C2.82711 35.9211 5.08503 24.4794 12.8591 20.9477C10.5211 25.9594 12.6555 28.2961 15.6519 27.6395C22.0513 26.2371 10.8895 18.1361 17.4157 12.0572C18.7611 18.1967 26.9784 18.5812 22.662 26.1033C29.9509 24.0096 26.9195 19.2099 25.1623 17.431C22.2653 14.4982 20.4589 10.5338 22.6633 1.82516C27.4631 10.9586 35.7944 8.40306 37.4788 13.2471C38.7893 17.0158 34.8779 20.0548 36.5944 23.4337C40.3309 19.5484 42.938 15.7361 40.8323 12.1211C39.2404 9.3882 34.1281 6.5885 37.4788 1.41231C41.1339 9.80259 44.8354 6.31274 47.4555 11.5916C49.1586 15.0231 45.261 16.752 47.3193 20.1509C48.782 15.3619 53.0739 15.2832 50.8256 9.93116C59.3505 12.8585 62.7609 22.4198 66.2778 38.4684M16.7059 65.8944L14.9516 70.1321C14.7341 70.6574 15.079 71.2449 15.6436 71.3112L17.4787 71.5267C17.7732 71.5612 18.0646 71.4412 18.2493 71.2092L23.0613 65.1643M16.7059 65.8944C18.0393 65.8951 20.37 65.5981 23.0613 65.1643M23.0613 65.1643C30.3255 63.9933 40.217 61.8257 40.217 61.8257C40.217 61.8257 40.217 61.8257 40.217 61.8257C40.217 61.8257 50.1219 59.6552 57.2076 57.6984M59.1268 58.6626L64.096 61.1682C64.3555 61.299 64.6643 61.2864 64.9123 61.1349L66.5162 60.1553C66.9918 59.8648 67.058 59.2002 66.6491 58.8216L63.6793 56.0724C63.4297 55.8414 63.0663 55.7849 62.7511 55.9127C61.8813 56.2654 60.6774 56.6643 59.2746 57.0844C58.5392 57.3046 58.4414 58.317 59.1268 58.6626ZM59.1268 58.6626L57.2076 57.6984M16.491 66.4132L14.9431 70.1524C14.7299 70.6673 15.0679 71.2433 15.6214 71.3083L17.4881 71.5274C17.7768 71.5613 18.0624 71.4436 18.2435 71.2162L21.7094 66.8622C22.1875 66.2616 21.6753 65.3829 20.9152 65.4904C19.4653 65.6955 18.2049 65.8366 17.2673 65.8799C16.9276 65.8957 16.6211 66.099 16.491 66.4132Z" stroke="url(#paint0_linear_1_1415)" stroke-width="1.28571"/>
<path d="M21.2444 53.705C21.1446 53.8608 21.0024 53.9589 20.8178 53.9993L14.258 55.4369C14.0735 55.4773 13.9033 55.4476 13.7475 55.3479C13.5917 55.2481 13.4936 55.1059 13.4531 54.9213L13.1684 53.6221C13.1249 53.4233 13.1545 53.2532 13.2574 53.1116L19.2611 43.7381L19.0931 42.9714L17.9507 42.2396L13.2438 43.2711L12.5333 44.4089L12.6173 44.7922C12.6578 44.9768 12.6281 45.147 12.5283 45.3028C12.4254 45.4444 12.2817 45.5354 12.0971 45.5759C11.9125 45.6163 11.7439 45.5937 11.5912 45.5082C11.4354 45.4084 11.3373 45.2662 11.2969 45.0816L11.1522 44.4214C11.1117 44.2368 11.1414 44.0666 11.2412 43.9108L12.2723 42.301C12.3437 42.1514 12.4788 42.0548 12.6775 42.0113L17.9382 40.8585C18.1227 40.818 18.2929 40.8477 18.4487 40.9475L20.0586 41.9786C20.2206 42.1068 20.3187 42.2489 20.3529 42.4051L20.6376 43.7043C20.675 43.8747 20.6453 44.0449 20.5486 44.2149L14.5449 53.5883L14.6289 53.9717L20.2516 52.7395L20.988 51.6184L20.904 51.235C20.8636 51.0504 20.8932 50.8802 20.993 50.7244C21.0928 50.5687 21.235 50.4705 21.4196 50.4301C21.6041 50.3896 21.7743 50.4193 21.9301 50.5191C22.0859 50.6189 22.184 50.7611 22.2245 50.9456L22.3692 51.6059C22.4065 51.7763 22.3753 51.9393 22.2755 52.0951L21.2444 53.705Z" fill="url(#paint1_linear_1_1415)"/>
<path d="M32.3194 51.278C32.2196 51.4338 32.0774 51.5319 31.8928 51.5724L26.6322 52.7252C26.4334 52.7688 26.2703 52.7375 26.1429 52.6315L24.5331 51.6004C24.3835 51.529 24.287 51.3939 24.2434 51.1952L24.0987 50.5349C24.0583 50.3503 24.0879 50.1802 24.1877 50.0244L30.1868 40.6296L30.1681 40.5444L29.0256 39.8126L24.3188 40.8441L23.6083 41.9819L24.8405 47.6046C24.8809 47.7892 24.8512 47.9594 24.7515 48.1152C24.6517 48.271 24.5095 48.3691 24.3249 48.4095C24.1403 48.45 23.9701 48.4203 23.8143 48.3205C23.6585 48.2207 23.5604 48.0785 23.52 47.894L22.2272 41.9944C22.1867 41.8098 22.2164 41.6396 22.3162 41.4838L23.3473 39.874C23.4187 39.7244 23.5537 39.6279 23.7525 39.5843L29.0131 38.4315C29.1977 38.391 29.3679 38.4207 29.5237 38.5205L31.1335 39.5516C31.2956 39.6798 31.3937 39.822 31.4279 39.9782L31.5679 40.6171C31.6115 40.8159 31.5803 40.979 31.4743 41.1064L25.4752 50.5011L25.5032 50.6289L26.6197 51.344L31.3266 50.3126L32.063 49.1914L30.8262 43.5474C30.7857 43.3628 30.8154 43.1927 30.9152 43.0369C31.015 42.8811 31.1572 42.783 31.3417 42.7425C31.5263 42.7021 31.6965 42.7317 31.8523 42.8315C32.0081 42.9313 32.1062 43.0735 32.1467 43.2581L33.4442 49.1789C33.4815 49.3493 33.4503 49.5124 33.3505 49.6682L32.3194 51.278Z" fill="url(#paint2_linear_1_1415)"/>
<path d="M35.4417 49.1491C35.3266 48.6238 35.3735 48.2266 35.5824 47.9576C35.7913 47.6886 36.0733 47.5153 36.4282 47.4375C36.7974 47.3566 37.1331 47.3946 37.4353 47.5516C37.7518 47.7054 37.9676 48.0451 38.0827 48.5704C38.1947 49.0816 38.1407 49.4803 37.9207 49.7666C37.7149 50.0498 37.4275 50.2318 37.0583 50.3127C36.7033 50.3905 36.3732 50.3438 36.0678 50.1726C35.7624 50.0015 35.5538 49.6603 35.4417 49.1491ZM33.4442 40.0336C33.3259 39.494 33.3713 39.0898 33.5802 38.8208C33.7891 38.5518 34.071 38.3784 34.426 38.3006C34.7951 38.2197 35.1309 38.2578 35.4331 38.4147C35.7495 38.5686 35.9669 38.9153 36.0851 39.4548C36.1971 39.966 36.1432 40.3647 35.9232 40.651C35.7174 40.9342 35.4299 41.1162 35.0607 41.1971C34.7058 41.2749 34.3756 41.2282 34.0702 41.0571C33.7649 40.8859 33.5562 40.5447 33.4442 40.0336Z" fill="url(#paint3_linear_1_1415)"/>
<path d="M47.9318 47.4165C47.832 47.5723 47.6898 47.6704 47.5052 47.7109L42.2446 48.8637C42.0458 48.9073 41.8827 48.876 41.7553 48.77L40.1455 47.7389C39.9959 47.6675 39.8993 47.5324 39.8558 47.3337L39.7111 46.6734C39.6706 46.4888 39.7003 46.3187 39.8001 46.1629L45.7992 36.7681L45.7805 36.6829L44.638 35.9512L39.9311 36.9826L39.2207 38.1204L40.4528 43.7431C40.4933 43.9277 40.4636 44.0979 40.3638 44.2537C40.2641 44.4095 40.1219 44.5076 39.9373 44.548C39.7527 44.5885 39.5825 44.5588 39.4267 44.459C39.2709 44.3592 39.1728 44.217 39.1324 44.0325L37.8395 38.1329C37.7991 37.9483 37.8288 37.7781 37.9285 37.6223L38.9596 36.0125C39.031 35.8629 39.1661 35.7664 39.3649 35.7228L44.6255 34.57C44.8101 34.5296 44.9803 34.5592 45.1361 34.659L46.7459 35.6901C46.9079 35.8183 47.0061 35.9605 47.0403 36.1167L47.1803 36.7556C47.2239 36.9544 47.1926 37.1175 47.0866 37.2449L41.0876 46.6396L41.1156 46.7674L42.2321 47.4825L46.939 46.4511L47.6754 45.3299L46.4386 39.6859C46.3981 39.5013 46.4278 39.3312 46.5276 39.1754C46.6274 39.0196 46.7695 38.9215 46.9541 38.881C47.1387 38.8406 47.3089 38.8702 47.4647 38.97C47.6205 39.0698 47.7186 39.212 47.759 39.3966L49.0565 45.3174C49.0939 45.4878 49.0626 45.6509 48.9629 45.8067L47.9318 47.4165Z" fill="url(#paint4_linear_1_1415)"/>
<path d="M59.0067 44.9896C58.907 45.1454 58.7648 45.2435 58.5802 45.2839L53.3196 46.4367C53.1208 46.4803 52.9577 46.4491 52.8303 46.3431L51.2205 45.312C51.0709 45.2406 50.9743 45.1055 50.9308 44.9067L50.7861 44.2465C50.7456 44.0619 50.7753 43.8917 50.8751 43.7359L56.8741 34.3411L56.8555 34.2559L55.713 33.5242L51.0061 34.5557L50.2957 35.6935L51.5278 41.3161C51.5683 41.5007 51.5386 41.6709 51.4388 41.8267C51.339 41.9825 51.1969 42.0806 51.0123 42.1211C50.8277 42.1615 50.6575 42.1318 50.5017 42.0321C50.3459 41.9323 50.2478 41.7901 50.2073 41.6055L48.9145 35.7059C48.8741 35.5214 48.9037 35.3512 49.0035 35.1954L50.0346 33.5855C50.106 33.436 50.2411 33.3394 50.4399 33.2958L55.7005 32.143C55.8851 32.1026 56.0553 32.1323 56.2111 32.232L57.8209 33.2632C57.9829 33.3913 58.081 33.5335 58.1153 33.6897L58.2553 34.3286C58.2989 34.5274 58.2676 34.6905 58.1616 34.8179L52.1626 44.2127L52.1906 44.3405L53.3071 45.0556L58.0139 44.0241L58.7504 42.903L57.5135 37.259C57.4731 37.0744 57.5028 36.9042 57.6026 36.7484C57.7023 36.5926 57.8445 36.4945 58.0291 36.454C58.2137 36.4136 58.3839 36.4433 58.5397 36.5431C58.6955 36.6428 58.7936 36.785 58.834 36.9696L60.1315 42.8905C60.1689 43.0608 60.1376 43.2239 60.0378 43.3797L59.0067 44.9896Z" fill="url(#paint5_linear_1_1415)"/>
<defs>
<linearGradient id="paint0_linear_1_1415" x1="4.25843" y1="40.2208" x2="63.8069" y2="27.1714" gradientUnits="userSpaceOnUse">
<stop stop-color="#F3FF57"/>
<stop offset="1" stop-color="#FF73CF"/>
</linearGradient>
<linearGradient id="paint1_linear_1_1415" x1="12.1119" y1="48.8011" x2="59.1669" y2="38.4895" gradientUnits="userSpaceOnUse">
<stop stop-color="#F3FF57"/>
<stop offset="1" stop-color="#FF73CF"/>
</linearGradient>
<linearGradient id="paint2_linear_1_1415" x1="12.1119" y1="48.8011" x2="59.1669" y2="38.4895" gradientUnits="userSpaceOnUse">
<stop stop-color="#F3FF57"/>
<stop offset="1" stop-color="#FF73CF"/>
</linearGradient>
<linearGradient id="paint3_linear_1_1415" x1="12.1119" y1="48.8011" x2="59.1669" y2="38.4895" gradientUnits="userSpaceOnUse">
<stop stop-color="#F3FF57"/>
<stop offset="1" stop-color="#FF73CF"/>
</linearGradient>
<linearGradient id="paint4_linear_1_1415" x1="12.1119" y1="48.8011" x2="59.1669" y2="38.4895" gradientUnits="userSpaceOnUse">
<stop stop-color="#F3FF57"/>
<stop offset="1" stop-color="#FF73CF"/>
</linearGradient>
<linearGradient id="paint5_linear_1_1415" x1="12.1119" y1="48.8011" x2="59.1669" y2="38.4895" gradientUnits="userSpaceOnUse">
<stop stop-color="#F3FF57"/>
<stop offset="1" stop-color="#FF73CF"/>
</linearGradient>
</defs>
</svg>
