<svg width="72" height="72" viewBox="0 0 72 72" fill="none" xmlns="http://www.w3.org/2000/svg">
<path d="M32.2648 56.2585C32.4355 56.8954 33.2315 57.1091 33.6982 56.6433L42.2223 48.1372L44.8143 45.5507L46.8654 43.5039C47.333 43.0372 47.1192 42.2393 46.4809 42.069L41.2209 40.6655L33.0815 38.4937L28.5081 37.2734C27.8709 37.1034 27.2885 37.6865 27.4592 38.3234L32.2648 56.2585Z" fill="#151515"/>
<path d="M58.5859 26.2442L57.9368 26.62L57.9384 26.6227L58.5859 26.2442ZM52.5015 22.7314L52.4975 23.4814L52.5006 23.4814L52.5015 22.7314ZM9.88521 34.1024L9.5131 33.4511L9.50624 33.4551L9.88521 34.1024ZM6.3844 40.2315L5.63439 40.2306L5.63441 40.2349L6.3844 40.2315ZM8.77208 53.6272L8.04764 53.8213L8.04764 53.8213L8.77208 53.6272ZM13.4021 66.422L12.7519 66.7957L12.753 66.7977L13.4021 66.422ZM19.4865 69.9348L19.4885 69.1848H19.4874L19.4865 69.9348ZM41.101 65.3929L41.2951 66.1173L41.101 65.3929ZM62.1027 58.5638L62.4748 59.215L62.4785 59.2129L62.1027 58.5638ZM65.6156 52.4794L66.3656 52.4804L66.3656 52.4761L65.6156 52.4794ZM63.2279 39.0838L62.5025 39.2743L62.5035 39.278L63.2279 39.0838ZM25.1709 7.58299L25.3651 8.30743L25.1709 7.58299ZM43.0824 17.9242L43.8069 17.73L43.0824 17.9242ZM14.8298 25.4944L14.1054 25.6885L14.8298 25.4944ZM23.8667 2.71801L24.0608 3.44246L23.8667 2.71801ZM47.1605 16.1667L46.4361 16.3608L47.1605 16.1667ZM10.418 26.0119L9.69355 26.206L10.418 26.0119ZM30.4604 27.3263L30.6545 28.0508L30.4604 27.3263ZM49.0162 23.092L49.1314 23.8331L49.1314 23.8331L49.0162 23.092ZM12.2665 32.9106L12.5343 33.6112H12.5343L12.2665 32.9106ZM43.5476 50.2691L42.8952 50.6392L43.4159 51.5569L44.1115 50.7635L43.5476 50.2691ZM41.0761 31.7227L41.7491 31.3918L41.1327 30.1381L40.4284 31.3446L41.0761 31.7227ZM51.034 40.5969L50.3782 40.9609L51.034 40.5969ZM52.8428 47.3477L52.2199 47.7654L52.664 48.4279L53.298 47.9439L52.8428 47.3477ZM25.5698 58.7443L24.9028 58.4014L24.0567 60.0471L25.8099 59.4548L25.5698 58.7443ZM27.0713 47.9728L27.5801 47.4218L27.0713 47.9728ZM28.8299 31.9893L29.5412 31.7515L28.9937 30.1136L28.1705 31.6318L28.8299 31.9893ZM19.4993 41.2081L20.2237 41.014L19.8833 39.7437L18.9633 40.6834L19.4993 41.2081ZM17.6505 54.8825L17.4564 54.158L17.6505 54.8825ZM9.52827 48.0199L9.62047 47.2756L8.2022 47.0999L8.86336 48.3668L9.52827 48.0199ZM54.9099 31.7199L55.6344 31.5257L55.2618 30.1353L54.3357 31.2374L54.9099 31.7199ZM12.4699 64.5546L11.7849 64.86L12.4699 64.5546ZM28.5081 37.2734L28.3147 37.9981L28.5081 37.2734ZM27.4592 38.3234L26.7347 38.5175L27.4592 38.3234ZM46.8654 43.5039L47.3951 44.0348L46.8654 43.5039ZM46.4809 42.069L46.2875 42.7936L46.4809 42.069ZM33.6982 56.6433L34.228 57.1742L33.6982 56.6433ZM32.2648 56.2585L32.9893 56.0644L32.2648 56.2585ZM44.8143 45.5507L44.2845 45.0198H44.2845L44.8143 45.5507ZM59.2349 25.8684C57.8483 23.4733 55.2699 21.9847 52.5024 21.9814L52.5006 23.4814C54.7335 23.4841 56.818 24.6875 57.9368 26.62L59.2349 25.8684ZM9.50624 33.4551C7.15689 34.8308 5.63771 37.4654 5.6344 40.2306L7.1344 40.2324C7.13707 37.9972 8.37564 35.8554 10.2642 34.7496L9.50624 33.4551ZM5.63441 40.2349C5.645 42.6019 6.25859 46.02 6.85248 48.7965C7.15172 50.1955 7.45016 51.4503 7.67377 52.3554C7.78561 52.808 7.87884 53.1736 7.94421 53.4264C7.97689 53.5528 8.00262 53.6511 8.02024 53.7179C8.02906 53.7514 8.03584 53.777 8.04045 53.7943C8.04276 53.803 8.04452 53.8096 8.04573 53.8141C8.04633 53.8164 8.04679 53.8181 8.04711 53.8193C8.04727 53.8199 8.04739 53.8204 8.04748 53.8207C8.04752 53.8209 8.04756 53.821 8.04759 53.8211C8.04762 53.8212 8.04764 53.8213 8.77208 53.6272C9.49653 53.4331 9.49653 53.4331 9.49652 53.433C9.49651 53.433 9.49649 53.4329 9.49647 53.4328C9.49641 53.4326 9.49632 53.4323 9.49619 53.4318C9.49594 53.4309 9.49554 53.4294 9.495 53.4274C9.49393 53.4233 9.4923 53.4172 9.49013 53.409C9.48578 53.3927 9.47927 53.3681 9.47074 53.3357C9.45367 53.271 9.42852 53.175 9.39644 53.0509C9.33227 52.8027 9.24039 52.4424 9.12998 51.9956C8.90909 51.1015 8.61444 49.8626 8.31931 48.4828C7.72446 45.7018 7.14421 42.4221 7.13439 40.2282L5.63441 40.2349ZM12.753 66.7977C14.1397 69.1928 16.718 70.6814 19.4856 70.6848L19.4874 69.1848C17.2544 69.1821 15.17 67.9786 14.0512 66.0462L12.753 66.7977ZM19.4845 70.6848C20.7198 70.6881 22.7138 70.3915 24.9515 69.9672C27.2097 69.5391 29.7792 68.9682 32.1974 68.3985C34.6167 67.8285 36.8906 67.2584 38.5593 66.8308C39.3937 66.617 40.0772 66.4388 40.5523 66.3139C40.7898 66.2515 40.9753 66.2024 41.1015 66.1689C41.1646 66.1522 41.2128 66.1393 41.2454 66.1306C41.2617 66.1263 41.2741 66.123 41.2824 66.1207C41.2865 66.1196 41.2897 66.1188 41.2918 66.1182C41.2929 66.1179 41.2937 66.1177 41.2942 66.1176C41.2945 66.1175 41.2947 66.1174 41.2949 66.1174C41.295 66.1174 41.2951 66.1173 41.101 65.3929C40.9069 64.6684 40.9068 64.6685 40.9067 64.6685C40.9066 64.6685 40.9065 64.6686 40.9062 64.6686C40.9057 64.6688 40.905 64.6689 40.904 64.6692C40.902 64.6698 40.899 64.6706 40.8949 64.6716C40.8869 64.6738 40.8748 64.677 40.8588 64.6813C40.8268 64.6898 40.779 64.7025 40.7165 64.7191C40.5915 64.7523 40.4073 64.8011 40.171 64.8632C39.6985 64.9874 39.0181 65.1648 38.1869 65.3778C36.5244 65.8038 34.2605 66.3714 31.8534 66.9385C29.4452 67.5058 26.8996 68.0711 24.6721 68.4935C22.4242 68.9196 20.562 69.1876 19.4885 69.1848L19.4845 70.6848ZM41.101 65.3929C41.2951 66.1173 41.2952 66.1173 41.2954 66.1173C41.2955 66.1172 41.2957 66.1172 41.296 66.1171C41.2965 66.117 41.2973 66.1167 41.2984 66.1164C41.3005 66.1159 41.3037 66.115 41.3079 66.1139C41.3162 66.1117 41.3286 66.1083 41.3449 66.104C41.3775 66.0952 41.4259 66.0821 41.489 66.0651C41.6154 66.0309 41.801 65.9806 42.0385 65.9158C42.5134 65.7862 43.196 65.5986 44.0274 65.3664C45.6898 64.9021 47.9485 64.2593 50.3321 63.5453C52.7145 62.8317 55.2273 62.0454 57.3961 61.2942C59.5453 60.5497 61.416 59.82 62.4748 59.215L61.7306 57.9126C60.8095 58.439 59.065 59.1286 56.9051 59.8768C54.7648 60.6181 52.2747 61.3976 49.9017 62.1084C47.5298 62.8189 45.2805 63.459 43.6239 63.9217C42.7958 64.153 42.116 64.3398 41.6435 64.4687C41.4073 64.5332 41.2229 64.5832 41.0977 64.617C41.0351 64.634 40.9872 64.6468 40.9551 64.6555C40.9391 64.6598 40.927 64.6631 40.9189 64.6652C40.9148 64.6663 40.9118 64.6671 40.9098 64.6677C40.9088 64.6679 40.9081 64.6681 40.9076 64.6683C40.9073 64.6683 40.9072 64.6684 40.907 64.6684C40.9069 64.6684 40.9069 64.6684 41.101 65.3929ZM66.3656 52.4761C66.355 50.1091 65.7414 46.691 65.1475 43.9145C64.8483 42.5154 64.5498 41.2607 64.3262 40.3556C64.2144 39.903 64.1211 39.5374 64.0558 39.2846C64.0231 39.1582 63.9974 39.0599 63.9797 38.9931C63.9709 38.9596 63.9641 38.934 63.9595 38.9167C63.9572 38.908 63.9555 38.9014 63.9543 38.8969C63.9537 38.8946 63.9532 38.8929 63.9529 38.8917C63.9527 38.8911 63.9526 38.8906 63.9525 38.8903C63.9525 38.8901 63.9524 38.89 63.9524 38.8899C63.9524 38.8898 63.9523 38.8897 63.2279 39.0838C62.5035 39.278 62.5035 39.2779 62.5035 39.278C62.5035 39.278 62.5035 39.2781 62.5035 39.2782C62.5036 39.2784 62.5037 39.2787 62.5038 39.2792C62.504 39.2802 62.5044 39.2816 62.505 39.2836C62.5061 39.2877 62.5077 39.2938 62.5099 39.302C62.5142 39.3183 62.5207 39.3429 62.5292 39.3753C62.5463 39.44 62.5715 39.536 62.6035 39.6601C62.6677 39.9083 62.7596 40.2686 62.87 40.7154C63.0909 41.6095 63.3855 42.8484 63.6807 44.2282C64.2755 47.0092 64.8558 50.2889 64.8656 52.4828L66.3656 52.4761ZM63.2279 39.0838C63.9533 38.8934 63.9533 38.8933 63.9533 38.8932C63.9532 38.8931 63.9532 38.893 63.9532 38.8928C63.9531 38.8925 63.9529 38.892 63.9528 38.8914C63.9525 38.8902 63.952 38.8884 63.9514 38.8862C63.9502 38.8816 63.9485 38.8749 63.9461 38.8662C63.9415 38.8487 63.9347 38.823 63.9257 38.7894C63.9077 38.7222 63.8812 38.6236 63.8467 38.4969C63.7777 38.2436 63.6767 37.8781 63.5484 37.4274C63.2919 36.5264 62.9255 35.2833 62.4863 33.9153C61.6151 31.2013 60.4334 27.9189 59.2334 25.8657L57.9384 26.6227C59.0459 28.5175 60.1853 31.6549 61.0581 34.3738C61.491 35.7221 61.8525 36.9487 62.1058 37.8382C62.2323 38.2828 62.3318 38.6428 62.3995 38.8912C62.4333 39.0154 62.4592 39.1117 62.4765 39.1766C62.4852 39.2091 62.4918 39.2338 62.4961 39.2502C62.4983 39.2584 62.4999 39.2646 62.501 39.2686C62.5015 39.2706 62.5019 39.2721 62.5022 39.273C62.5023 39.2735 62.5024 39.2739 62.5024 39.2741C62.5025 39.2742 62.5025 39.2742 62.5025 39.2743C62.5025 39.2743 62.5025 39.2743 63.2279 39.0838ZM25.3651 8.30743C32.7667 6.32417 40.3747 10.7166 42.358 18.1183L43.8069 17.73C41.6092 9.5282 33.1787 4.66087 24.9768 6.85855L25.3651 8.30743ZM24.9768 6.85855C16.775 9.05622 11.9077 17.4867 14.1054 25.6885L15.5542 25.3003C13.571 17.8987 17.9634 10.2907 25.3651 8.30743L24.9768 6.85855ZM24.0608 3.44246C33.8069 0.831003 43.8246 6.61476 46.4361 16.3608L47.885 15.9726C45.0591 5.42634 34.2188 -0.832298 23.6726 1.99357L24.0608 3.44246ZM23.6726 1.99357C13.1263 4.81943 6.86769 15.6597 9.69355 26.206L11.1424 25.8177C8.53099 16.0717 14.3147 6.05391 24.0608 3.44246L23.6726 1.99357ZM17.1517 31.2621L15.5542 25.3003L14.1054 25.6885L15.7028 31.6504L17.1517 31.2621ZM30.4604 27.3263C30.2662 26.6019 30.2662 26.6019 30.2661 26.6019C30.2661 26.6019 30.266 26.6019 30.2658 26.602C30.2656 26.602 30.2652 26.6021 30.2647 26.6023C30.2637 26.6025 30.2623 26.6029 30.2603 26.6035C30.2565 26.6045 30.2508 26.606 30.2433 26.608C30.2282 26.6121 30.2058 26.6181 30.1764 26.626C30.1177 26.6419 30.0308 26.6653 29.9181 26.6959C29.6927 26.757 29.3639 26.8465 28.9499 26.9604C28.122 27.188 26.953 27.5128 25.5879 27.9018C22.8591 28.6792 19.3403 29.7147 16.1942 30.7434L16.6603 32.1691C19.7798 31.1492 23.2775 30.1197 25.9989 29.3443C27.3588 28.9569 28.5233 28.6333 29.3476 28.4067C29.7597 28.2934 30.0868 28.2043 30.3106 28.1436C30.4226 28.1133 30.5087 28.09 30.5667 28.0744C30.5958 28.0665 30.6178 28.0606 30.6325 28.0567C30.6399 28.0547 30.6454 28.0532 30.6491 28.0522C30.6509 28.0517 30.6523 28.0513 30.6532 28.0511C30.6536 28.051 30.654 28.0509 30.6542 28.0508C30.6543 28.0508 30.6544 28.0508 30.6544 28.0508C30.6545 28.0508 30.6545 28.0508 30.4604 27.3263ZM42.358 18.1183L43.9591 24.094L45.408 23.7058L43.8069 17.73L42.358 18.1183ZM44.5306 23.1656C41.2891 23.841 37.7222 24.7004 34.9694 25.3899C33.5921 25.7348 32.4169 26.0376 31.5859 26.2543C31.1703 26.3626 30.8408 26.4494 30.6149 26.5092C30.502 26.5391 30.415 26.5622 30.3561 26.5779C30.3267 26.5857 30.3043 26.5917 30.2893 26.5957C30.2817 26.5977 30.276 26.5993 30.2722 26.6003C30.2702 26.6008 30.2688 26.6012 30.2678 26.6015C30.2673 26.6016 30.2669 26.6017 30.2667 26.6018C30.2665 26.6018 30.2664 26.6018 30.2664 26.6018C30.2663 26.6019 30.2662 26.6019 30.4604 27.3263C30.6545 28.0508 30.6545 28.0508 30.6545 28.0507C30.6546 28.0507 30.6547 28.0507 30.6548 28.0507C30.655 28.0506 30.6553 28.0505 30.6558 28.0504C30.6567 28.0502 30.658 28.0498 30.6599 28.0493C30.6635 28.0483 30.6691 28.0469 30.6764 28.0449C30.6911 28.041 30.7132 28.0351 30.7422 28.0273C30.8003 28.0119 30.8865 27.989 30.9986 27.9593C31.2229 27.9 31.5507 27.8136 31.9643 27.7058C32.7916 27.4901 33.962 27.1885 35.3338 26.8449C38.0789 26.1574 41.6236 25.3035 44.8366 24.6341L44.5306 23.1656ZM52.5055 21.9814C51.7033 21.9772 50.1641 22.1544 48.9009 22.3509L49.1314 23.8331C50.3904 23.6372 51.8258 23.4778 52.4975 23.4814L52.5055 21.9814ZM48.9009 22.3509C47.6028 22.5528 46.1018 22.8383 44.5306 23.1656L44.8366 24.6341C46.3944 24.3095 47.8681 24.0296 49.1314 23.8331L48.9009 22.3509ZM46.4361 16.3608L48.2917 23.2861L49.7406 22.8979L47.885 15.9726L46.4361 16.3608ZM16.1942 30.7434C14.6686 31.2422 13.225 31.7413 11.9987 32.2101L12.5343 33.6112C13.729 33.1544 15.1473 32.6638 16.6603 32.1691L16.1942 30.7434ZM11.9987 32.2101C10.7402 32.6912 10.1306 33.0984 9.51312 33.4512L10.2573 34.7535C10.9163 34.377 11.4095 34.0412 12.5343 33.6112L11.9987 32.2101ZM12.991 32.7165L11.1424 25.8177L9.69355 26.206L11.5421 33.1047L12.991 32.7165ZM40.403 32.0536C41.4392 34.1615 42.4387 35.5082 43.4297 36.4056C44.4321 37.3133 45.3869 37.7253 46.2572 38.0183C47.1576 38.3214 47.7989 38.4591 48.4657 38.8419C49.0814 39.1954 49.7185 39.7726 50.3782 40.9609L51.6897 40.2329C50.9192 38.8449 50.1011 38.0513 49.2125 37.5411C48.3749 37.0602 47.4625 36.8414 46.7358 36.5967C45.9788 36.3419 45.2328 36.0147 44.4365 35.2937C43.6288 34.5623 42.7317 33.3905 41.7491 31.3918L40.403 32.0536ZM50.3782 40.9609C50.81 41.7387 50.9816 42.2897 51.049 42.7174C51.1175 43.1518 51.0871 43.4952 51.0575 43.941C51.028 44.3863 51.0033 44.9074 51.1595 45.5489C51.3142 46.1846 51.6336 46.8909 52.2199 47.7654L53.4658 46.9301C52.9457 46.1543 52.7182 45.6103 52.6169 45.1941C52.517 44.7838 52.527 44.4515 52.5542 44.0403C52.5815 43.6297 52.63 43.1135 52.5307 42.4838C52.4304 41.8475 52.1876 41.1298 51.6897 40.2329L50.3782 40.9609ZM25.8099 59.4548C27.7233 58.8084 28.9933 57.8486 29.7294 56.6741C30.4655 55.4993 30.6108 54.2005 30.4471 52.9844C30.2844 51.7753 29.8139 50.618 29.2756 49.6621C28.7389 48.7089 28.1081 47.9092 27.5801 47.4218L26.5626 48.5239C26.9531 48.8845 27.4921 49.5519 27.9686 50.3981C28.4437 51.2416 28.8302 52.2161 28.9605 53.1845C29.0899 54.1458 28.9643 55.0701 28.4583 55.8776C27.9522 56.6852 27.0087 57.4666 25.3298 58.0337L25.8099 59.4548ZM27.5801 47.4218C26.3038 46.2436 25.7468 44.3904 26.0436 41.8149C26.3412 39.2339 27.4906 36.0331 29.4892 32.3467L28.1705 31.6318C26.126 35.403 24.8817 38.7958 24.5535 41.6431C24.2246 44.496 24.8098 46.9058 26.5626 48.5239L27.5801 47.4218ZM18.7748 41.4022C19.2169 43.0521 20.1107 44.5131 21.0831 45.8631C21.5698 46.5387 22.0884 47.2027 22.5864 47.8488C23.0885 48.5001 23.5726 49.1371 24.0114 49.7823C24.8908 51.0752 25.553 52.3516 25.7833 53.7278C26.0101 55.0841 25.8279 56.602 24.9028 58.4014L26.2368 59.0872C27.2944 57.0301 27.5481 55.1866 27.2627 53.4804C26.9806 51.794 26.1823 50.3068 25.2517 48.9387C24.7856 48.2533 24.2773 47.5854 23.7745 46.933C23.2676 46.2754 22.7688 45.6368 22.3002 44.9864C21.3623 43.6843 20.595 42.3997 20.2237 41.014L18.7748 41.4022ZM17.8446 55.6069C18.532 55.4227 19.096 55.1213 19.4556 54.6309C19.8233 54.1293 19.8871 53.5543 19.8307 53.0211C19.7756 52.5007 19.5988 51.9482 19.4012 51.4121C19.3006 51.1391 19.1886 50.8553 19.0762 50.5703C18.9627 50.2826 18.8478 49.9914 18.7361 49.6915C18.2867 48.4854 17.9199 47.2171 18.0011 45.8988C18.0805 44.6096 18.5933 43.2056 20.0352 41.7328L18.9633 40.6834C17.2856 42.3971 16.6069 44.135 16.5039 45.8065C16.4027 47.4488 16.8628 48.96 17.3305 50.2152C17.448 50.5306 17.5681 50.8349 17.6808 51.1207C17.7945 51.4091 17.9001 51.6767 17.9938 51.931C18.185 52.4496 18.3048 52.855 18.339 53.179C18.372 53.49 18.3179 53.6457 18.2459 53.7439C18.1656 53.8534 17.9677 54.021 17.4564 54.158L17.8446 55.6069ZM9.43608 48.7642C11.711 49.046 13.0693 49.6378 13.901 50.2879C14.7184 50.927 15.0887 51.6704 15.2972 52.3948C15.4041 52.7661 15.4678 53.1299 15.5274 53.4906C15.583 53.8273 15.6421 54.2146 15.7437 54.5358C15.8459 54.8587 16.0377 55.2747 16.4712 55.5177C16.9045 55.7606 17.3935 55.7278 17.8446 55.6069L17.4564 54.158C17.1667 54.2356 17.1414 54.1738 17.2047 54.2093C17.2683 54.2449 17.2346 54.2752 17.1738 54.0833C17.1126 53.8897 17.0713 53.6331 17.0073 53.246C16.9473 52.8829 16.872 52.443 16.7387 51.9799C16.4669 51.0356 15.9522 49.9875 14.8248 49.1062C13.7115 48.2359 12.0651 47.5784 9.62047 47.2756L9.43608 48.7642ZM53.298 47.9439C55.3489 46.378 56.275 44.9313 56.3792 43.4461C56.4796 42.0152 55.7851 40.746 55.1822 39.6598C54.5408 38.5043 53.9589 37.4879 53.843 36.3341C53.7335 35.2426 54.0407 33.9201 55.4841 32.2023L54.3357 31.2374C52.6966 33.1881 52.1915 34.8995 52.3505 36.4839C52.5033 38.0059 53.2709 39.3072 53.8707 40.3878C54.5089 41.5377 54.9473 42.4229 54.8829 43.3411C54.8223 44.2051 54.286 45.3023 52.3877 46.7516L53.298 47.9439ZM13.2098 64.4321C13.043 63.4243 12.9679 62.2756 12.9027 60.9929C12.8382 59.7227 12.7834 58.3257 12.6524 56.8765C12.3895 53.9702 11.8152 50.7811 10.1932 47.6729L8.86336 48.3668C10.3567 51.2284 10.9039 54.1975 11.1585 57.0116C11.2861 58.4226 11.339 59.7763 11.4047 61.069C11.4697 62.3493 11.5476 63.5757 11.73 64.6771L13.2098 64.4321ZM8.77208 53.6272C8.04764 53.8213 8.04765 53.8213 8.04768 53.8214C8.04769 53.8215 8.04773 53.8216 8.04776 53.8217C8.04783 53.822 8.04792 53.8223 8.04804 53.8228C8.04829 53.8237 8.04864 53.825 8.04909 53.8267C8.05001 53.8301 8.05135 53.8351 8.05311 53.8416C8.05663 53.8546 8.06183 53.8739 8.06866 53.899C8.08232 53.9493 8.10251 54.0232 8.12884 54.1186C8.18149 54.3095 8.25869 54.5863 8.35732 54.9317C8.55451 55.6225 8.83757 56.5886 9.18137 57.6909C9.86687 59.8889 10.8017 62.6545 11.7849 64.86L13.1549 64.2492C12.2084 62.126 11.2943 59.4279 10.6133 57.2443C10.2739 56.1559 9.99432 55.2018 9.79969 54.52C9.7024 54.1792 9.62639 53.9066 9.57481 53.7197C9.54902 53.6262 9.52934 53.5541 9.51616 53.5056C9.50957 53.4814 9.50461 53.463 9.50132 53.4509C9.49967 53.4448 9.49845 53.4402 9.49765 53.4372C9.49725 53.4357 9.49695 53.4346 9.49677 53.4339C9.49667 53.4336 9.4966 53.4333 9.49656 53.4332C9.49654 53.4331 9.49654 53.4331 9.49652 53.433C9.49652 53.433 9.49653 53.4331 8.77208 53.6272ZM11.7849 64.86C12.1002 65.5674 12.4246 66.2265 12.7519 66.7957L14.0523 66.0482C13.7586 65.5372 13.4572 64.9272 13.1549 64.2492L11.7849 64.86ZM54.1855 31.914C55.3718 36.3414 58.0017 39.5294 60.2799 42.6183C62.5773 45.7334 64.5602 48.7892 64.8424 53.1079L66.3392 53.0101C66.027 48.2332 63.8108 44.8789 61.4871 41.728C59.144 38.551 56.7307 35.6172 55.6344 31.5257L54.1855 31.914ZM62.4785 59.2129C64.6879 57.9338 66.1252 55.6413 66.3381 53.1222L64.8435 52.9959C64.6715 55.03 63.5088 56.8832 61.727 57.9148L62.4785 59.2129ZM66.3381 53.1222C66.3561 52.9097 66.3653 52.6956 66.3656 52.4804L64.8656 52.4785C64.8654 52.652 64.8579 52.8246 64.8435 52.9959L66.3381 53.1222ZM26.7347 38.5175L31.5404 56.4526L32.9893 56.0644L28.1836 38.1293L26.7347 38.5175ZM28.7014 36.5488C27.5068 36.23 26.4147 37.3232 26.7347 38.5175L28.1836 38.1293C28.1623 38.0497 28.2351 37.9768 28.3147 37.9981L28.7014 36.5488ZM47.3951 44.0348C48.2719 43.1598 47.8711 41.6637 46.6742 41.3443L46.2875 42.7936C46.3673 42.8149 46.3941 42.9146 46.3356 42.973L47.3951 44.0348ZM33.1685 56.1125C33.1101 56.1707 33.0106 56.144 32.9893 56.0644L31.5404 56.4526C31.8604 57.6469 33.3528 58.0476 34.228 57.1742L33.1685 56.1125ZM33.2749 37.7691L28.7014 36.5488L28.3147 37.9981L32.8882 39.2184L33.2749 37.7691ZM28.1186 32.2271C29.2552 35.6276 30.8796 37.6562 32.6056 39.0734L33.5574 37.9141C32.0494 36.6759 30.5883 34.8842 29.5412 31.7515L28.1186 32.2271ZM34.228 57.1742L42.7521 48.6681L41.6925 47.6063L33.1685 56.1125L34.228 57.1742ZM41.6061 48.5647C41.9072 48.9987 42.295 49.5812 42.8952 50.6392L44.1999 49.899C43.5757 48.7988 43.1635 48.178 42.8385 47.7096L41.6061 48.5647ZM42.7521 48.6681L45.344 46.0816L44.2845 45.0198L41.6925 47.6063L42.7521 48.6681ZM45.344 46.0816L47.3951 44.0348L46.3356 42.973L44.2845 45.0198L45.344 46.0816ZM44.1115 50.7635C45.1238 49.6089 45.7244 48.6253 45.9285 47.6972C46.1437 46.718 45.8969 45.9045 45.459 45.1676L44.1695 45.9338C44.4721 46.443 44.5751 46.8674 44.4635 47.3751C44.3406 47.9339 43.9376 48.6865 42.9836 49.7746L44.1115 50.7635ZM46.6742 41.3443L41.4143 39.9408L41.0276 41.3901L46.2875 42.7936L46.6742 41.3443ZM41.4143 39.9408L33.2749 37.7691L32.8882 39.2184L41.0276 41.3901L41.4143 39.9408ZM41.8415 40.2443C41.1046 39.1587 40.5131 38.1638 40.3617 36.9496C40.2126 35.7539 40.4803 34.2309 41.7238 32.1009L40.4284 31.3446C39.074 33.6644 38.6717 35.5188 38.8732 37.1352C39.0724 38.7329 39.8523 39.9845 40.6004 41.0867L41.8415 40.2443Z" fill="url(#paint0_linear_1_1478)"/>
<defs>
<linearGradient id="paint0_linear_1_1478" x1="6.3844" y1="36" x2="65.6156" y2="36" gradientUnits="userSpaceOnUse">
<stop stop-color="#F3FF57"/>
<stop offset="1" stop-color="#FF73CF"/>
</linearGradient>
</defs>
</svg>
