<svg width="551" height="398" viewBox="0 0 551 398" fill="none" xmlns="http://www.w3.org/2000/svg">
<path d="M1.75049 185.845L96.2756 148.753L96.8903 148.511L96.6568 147.9L63.739 61.6396L164.029 86.4827L164.566 86.6156L164.795 86.1094L203.009 1.7637L262.034 77.0523L262.354 77.4611L262.829 77.2389L354.382 34.4256L344.442 124.779L344.367 125.461L345.051 125.501L547.925 137.543L372.961 207.281L372.034 207.65L372.726 208.356L456.224 293.54L333.758 286.271L332.78 286.213L333.085 287.141L368.802 395.58L245.446 324.4L245.013 324.15L244.652 324.504L175.585 392.19L149.488 304.027L149.331 303.498L148.781 303.566L45.8477 316.347L90.5601 234.695L90.8773 234.116L90.3014 233.804L1.75049 185.845Z" stroke="#2E2E2E" stroke-width="1.31842"/>
</svg>
