<svg width="83" height="72" viewBox="0 0 83 72" fill="none" xmlns="http://www.w3.org/2000/svg">
<path d="M81.6212 39.3736L82.3606 39.2476V39.2476L81.6212 39.3736ZM66.0938 65.1706L66.2216 65.9097L66.0938 65.1706ZM49.328 59.1373L49.8713 58.6202L49.595 58.33L49.2002 58.3982L49.328 59.1373ZM39.799 23.3588L40.5453 23.2847L40.4427 22.2507L39.4936 22.6738L39.799 23.3588ZM43.3281 28.2426L43.0489 27.5466L43.3281 28.2426ZM45.3472 16.4615L46.0972 16.4614L46.0971 15.1016L44.947 15.8271L45.3472 16.4615ZM48.4361 23.5699L47.7145 23.7746L48.0136 24.8288L48.8881 24.1684L48.4361 23.5699ZM47.9953 19.1224L47.3427 19.4921L47.9953 19.1224ZM48.4383 10.6869L49.0977 10.3297L48.3695 8.98534L47.7521 10.3841L48.4383 10.6869ZM55.0583 16.4613L54.7202 17.1308L55.0583 16.4613ZM58.1468 20.9059L57.3968 20.9059L57.3968 21.8677L58.3296 21.6333L58.1468 20.9059ZM54.1758 9.79938L54.8201 9.41548L53.9798 8.00511L53.4638 9.56369L54.1758 9.79938ZM66.0887 16.0187L65.5987 16.5865L65.5987 16.5865L66.0887 16.0187ZM68.4775 21.134H67.7275V21.884H68.4775V21.134ZM69.1772 15.1309L69.347 14.4003L67.909 14.0662L68.4871 15.4246L69.1772 15.1309ZM75.0129 26.107L74.3063 25.8555L74.1496 26.2958L74.4759 26.6305L75.0129 26.107ZM67.4488 44.7061L67.5766 45.4451L68.3667 45.3085L68.1776 44.5293L67.4488 44.7061ZM61.2283 55.4457L61.4717 54.7363L61.2283 55.4457ZM31.8565 68.3274L32.0701 69.0463L31.8565 68.3274ZM6.24268 50.79L6.96243 50.5791L6.24268 50.79ZM5.57594 37.3473L6.31106 37.4959L6.37938 37.158L6.16744 36.8862L5.57594 37.3473ZM5.57594 26.24L6.3185 26.1347L6.14353 24.9015L5.13544 25.633L5.57594 26.24ZM9.43271 30.9392L9.17199 30.236H9.17199L9.43271 30.9392ZM8.25374 18.7853L8.99314 18.6597L8.7732 17.3657L7.77007 18.2121L8.25374 18.7853ZM13.7665 24.6883L13.7665 25.4383H14.2756L14.4635 24.9652L13.7665 24.6883ZM10.4957 20.0207L11.1858 19.727L10.4957 20.0207ZM12.811 8L13.5475 7.85828L12.0956 7.77472L12.811 8ZM21.7084 20.6897L20.9964 20.9254L21.3535 22.0041L22.205 21.2517L21.7084 20.6897ZM21.4903 17.8967L20.8645 18.3101L20.8758 18.3272L20.888 18.3437L21.4903 17.8967ZM21.0851 9.35444L21.7992 9.12536L21.3763 7.80673L20.503 8.88149L21.0851 9.35444ZM27.703 22.2414L26.9656 22.1041L26.8004 22.9914L27.703 22.9914V22.2414ZM27.2618 15.5771L27.4728 14.8574L25.5036 14.28L26.6364 15.9911L27.2618 15.5771ZM35.9127 26.6843L35.2282 26.9908L35.2941 27.1381L35.4148 27.2452L35.9127 26.6843ZM43.916 39.5987L44.6357 39.3878L43.916 39.5987ZM3.29115 52.9406L2.5714 53.1514L3.29115 52.9406ZM25.9489 62.3947V61.6447V62.3947ZM32.6854 48.9596L32.899 49.6786L33.8127 49.4072L33.334 48.583L32.6854 48.9596ZM36.2403 26.9805L35.7324 27.5323L36.2403 26.9805ZM80.8819 39.4997C82.9449 51.597 76.15 62.6706 65.966 64.4316L66.2216 65.9097C77.4175 63.9737 84.5264 51.948 82.3606 39.2476L80.8819 39.4997ZM65.966 64.4316C60.0365 65.4569 54.1691 63.1364 49.8713 58.6202L48.7847 59.6543C53.3707 64.4733 59.7224 67.0335 66.2216 65.9097L65.966 64.4316ZM39.0527 23.4329C39.2881 25.8038 40.1287 27.2565 41.069 28.0923C41.5331 28.5048 42.0103 28.7562 42.4254 28.8908C42.6319 28.9577 42.8312 28.9984 43.0127 29.0125C43.1711 29.0248 43.3955 29.0237 43.6073 28.9387L43.0489 27.5466C43.1528 27.5049 43.1999 27.5225 43.1287 27.517C43.0806 27.5132 42.9981 27.4996 42.888 27.4639C42.67 27.3932 42.3746 27.2459 42.0655 26.9711C41.4594 26.4324 40.7511 25.3566 40.5453 23.2847L39.0527 23.4329ZM43.6073 28.9387C43.8395 28.8456 44.0866 28.6889 44.25 28.4212C44.4184 28.1454 44.4362 27.8534 44.3991 27.6138C44.3346 27.1972 44.0754 26.7803 43.86 26.457C43.3592 25.7056 42.7243 24.9294 42.2763 23.958C41.8473 23.0277 41.6555 22.0347 42.0334 20.9602C42.4189 19.864 43.4435 18.5491 45.7474 17.0958L44.947 15.8271C42.491 17.3765 41.1591 18.9249 40.6184 20.4625C40.07 22.0216 40.3822 23.4326 40.9142 24.5862C41.4273 25.6988 42.2104 26.6866 42.6117 27.2888C42.718 27.4483 42.7964 27.577 42.85 27.6822C42.8763 27.7337 42.8935 27.7735 42.9044 27.8031C42.9153 27.8331 42.9171 27.8455 42.9168 27.8434C42.9153 27.8339 42.9062 27.7437 42.9697 27.6397C43.0282 27.5438 43.0926 27.529 43.0489 27.5466L43.6073 28.9387ZM44.5972 16.4615C44.5973 17.5321 44.7454 18.3702 45.0005 19.0764C45.2558 19.7834 45.6057 20.3221 45.9594 20.7969C46.6697 21.7506 47.3212 22.3882 47.7145 23.7746L49.1576 23.3652C48.6685 21.6416 47.7757 20.7242 47.1623 19.9008C46.8541 19.487 46.5972 19.0817 46.4113 18.5668C46.2251 18.0514 46.0973 17.39 46.0972 16.4614L44.5972 16.4615ZM48.8881 24.1684C49.4688 23.7298 49.8002 23.1827 49.9184 22.5825C50.0323 22.0042 49.9367 21.4371 49.7803 20.9503C49.4811 20.0184 48.8447 19.1002 48.6479 18.7528L47.3427 19.4921C47.6493 20.0332 48.1157 20.6724 48.3522 21.4089C48.4637 21.7562 48.4942 22.0511 48.4467 22.2928C48.4034 22.5126 48.2858 22.7436 47.9841 22.9714L48.8881 24.1684ZM48.6479 18.7528C48.0365 17.6735 47.7554 16.7025 47.8048 15.5547C47.8555 14.3773 48.2562 12.9569 49.1244 10.9898L47.7521 10.3841C46.8555 12.4156 46.3687 14.0373 46.3062 15.4902C46.2423 16.9727 46.6222 18.2201 47.3427 19.4921L48.6479 18.7528ZM47.7788 11.0442C49.128 13.5349 50.1921 14.7655 51.3307 15.5286C51.8918 15.9046 52.4454 16.1494 52.993 16.3756C53.5489 16.6052 54.0911 16.8131 54.7202 17.1308L55.3963 15.7918C54.7018 15.4411 54.0855 15.2039 53.5657 14.9892C53.0375 14.771 52.5979 14.5721 52.1658 14.2825C51.318 13.7144 50.3959 12.7262 49.0977 10.3297L47.7788 11.0442ZM54.7202 17.1308C55.9772 17.7654 56.6147 18.3504 56.9555 18.9074C57.292 19.4575 57.3968 20.0725 57.3968 20.9059L58.8968 20.9059C58.8968 19.9558 58.7809 19.0169 58.235 18.1246C57.6934 17.2393 56.7866 16.4938 55.3963 15.7918L54.7202 17.1308ZM58.3296 21.6333C59.4218 21.3588 60.2968 20.6024 60.3837 19.4642C60.4661 18.3855 59.8063 17.2818 58.6173 16.324L57.6763 17.4921C58.6933 18.3114 58.916 18.9849 58.8881 19.3499C58.8647 19.6555 58.6366 20.0095 57.964 20.1785L58.3296 21.6333ZM58.6173 16.324C58.0015 15.8279 57.2992 15.4607 56.7054 15.1382C56.0825 14.7999 55.5752 14.509 55.1881 14.1422C54.8253 13.7984 54.5724 13.3901 54.4831 12.7976C54.39 12.1795 54.4671 11.3061 54.8878 10.0351L53.4638 9.56369C53.0022 10.9584 52.8587 12.0843 52.9999 13.0212C53.145 13.9838 53.5815 14.6862 54.1563 15.2309C54.7068 15.7527 55.3853 16.1282 55.9895 16.4564C56.6228 16.8003 57.189 17.0996 57.6763 17.4921L58.6173 16.324ZM53.5315 10.1833C55.012 12.6679 57.4707 13.6221 59.7548 14.2952C60.9381 14.6438 62.015 14.9016 63.0538 15.257C64.0715 15.6052 64.9324 16.0115 65.5987 16.5865L66.5787 15.4509C65.7008 14.6934 64.6313 14.2114 63.5394 13.8378C62.4687 13.4715 61.2568 13.174 60.1788 12.8563C57.9404 12.1967 55.987 11.3737 54.8201 9.41548L53.5315 10.1833ZM65.5987 16.5865C66.9607 17.7617 67.7275 19.1565 67.7275 21.134L69.2275 21.134C69.2275 18.6685 68.2295 16.8753 66.5787 15.4509L65.5987 16.5865ZM68.4775 21.884C69.0976 21.884 69.53 21.4132 69.7718 21.0455C70.0469 20.6274 70.2601 20.074 70.3891 19.4507C70.6486 18.1965 70.5919 16.5396 69.8673 14.8372L68.4871 15.4246C69.0862 16.8322 69.1209 18.1769 68.9202 19.1467C68.8191 19.6354 68.6644 19.9997 68.5187 20.2212C68.3397 20.4932 68.2986 20.384 68.4775 20.384L68.4775 21.884ZM69.0075 15.8614C71.6055 16.4651 73.1949 18.1608 74.011 20.1217C74.839 22.1112 74.8495 24.3295 74.3063 25.8555L75.7195 26.3584C76.3962 24.4573 76.3567 21.854 75.3959 19.5454C74.4232 17.2083 72.4848 15.1295 69.347 14.4003L69.0075 15.8614ZM74.4759 26.6305C77.6639 29.9004 80.0042 34.3531 80.8819 39.4997L82.3606 39.2476C81.4329 33.8077 78.955 29.076 75.5499 25.5834L74.4759 26.6305ZM59.1275 37.6118C59.2136 38.1166 58.8765 38.5882 58.3869 38.6728L58.6425 40.1509C59.9561 39.9238 60.8298 38.6706 60.6062 37.3597L59.1275 37.6118ZM58.3869 38.6728C57.8987 38.7573 57.4271 38.4277 57.3413 37.9242L55.8626 38.1764C56.0864 39.4887 57.3275 40.3783 58.6425 40.1509L58.3869 38.6728ZM57.3413 37.9242C57.2552 37.4195 57.5923 36.9479 58.0819 36.8632L57.8263 35.3852C56.5127 35.6123 55.639 36.8654 55.8626 38.1764L57.3413 37.9242ZM58.0819 36.8632C58.5701 36.7788 59.0417 37.1084 59.1275 37.6118L60.6062 37.3597C60.3824 36.0474 59.1413 35.1578 57.8263 35.3852L58.0819 36.8632ZM68.3574 36.0153C68.5812 37.3276 69.8224 38.2172 71.1373 37.9898L70.8818 36.5118C70.3936 36.5962 69.9219 36.2666 69.8361 35.7632L68.3574 36.0153ZM71.1373 37.9898C72.4509 37.7627 73.3246 36.5096 73.101 35.1986L71.6223 35.4508C71.7084 35.9556 71.3713 36.4271 70.8818 36.5118L71.1373 37.9898ZM73.101 35.1986C72.8772 33.8864 71.6361 32.9967 70.3211 33.2241L70.5767 34.7022C71.0649 34.6178 71.5365 34.9473 71.6223 35.4508L73.101 35.1986ZM70.3211 33.2241C69.0075 33.4513 68.1339 34.7044 68.3574 36.0153L69.8361 35.7632C69.75 35.2584 70.0871 34.7868 70.5767 34.7022L70.3211 33.2241ZM59.7938 30.2394L54.1139 32.914L54.7529 34.2711L60.4328 31.5965L59.7938 30.2394ZM66.6151 30.5276L72.8558 31.1409L73.0025 29.6481L66.7619 29.0348L66.6151 30.5276ZM64.3698 35.1958L66.7199 44.8829L68.1776 44.5293L65.8276 34.8422L64.3698 35.1958ZM67.321 43.9671L64.0187 44.5381L64.2743 46.0162L67.5766 45.4451L67.321 43.9671ZM60.9848 56.1551C65.3314 57.6468 70.048 55.0825 71.5794 50.5579L70.1585 50.077C68.8641 53.9016 64.9481 55.9293 61.4717 54.7363L60.9848 56.1551ZM55.9938 45.2159C54.4631 49.7386 56.6411 54.6644 60.9848 56.1551L61.4717 54.7363C57.9924 53.5423 56.1196 49.5232 57.4146 45.6968L55.9938 45.2159ZM31.643 67.6084C21.769 70.5416 10.6312 63.1019 6.96243 50.5791L5.52294 51.0008C9.34009 64.0302 21.1377 72.2939 32.0701 69.0463L31.643 67.6084ZM6.96243 50.5791C5.64072 46.0676 5.49058 41.5541 6.31106 37.4959L4.84081 37.1986C3.97096 41.501 4.1344 46.2612 5.52294 51.0008L6.96243 50.5791ZM6.16744 36.8862C2.89529 32.6888 4.01771 28.2975 6.01644 26.847L5.13544 25.633C2.27993 27.7052 1.32942 33.1199 4.98444 37.8084L6.16744 36.8862ZM4.83338 26.3454C5.1709 28.7243 5.75007 30.268 6.61248 31.1153C7.06496 31.5598 7.58616 31.8031 8.14409 31.8678C8.6859 31.9307 9.21415 31.8201 9.69344 31.6424L9.17199 30.236C8.8296 30.3629 8.54825 30.4047 8.31703 30.3778C8.10192 30.3529 7.88665 30.2643 7.6637 30.0453C7.17525 29.5654 6.64772 28.455 6.3185 26.1347L4.83338 26.3454ZM9.69344 31.6424C10.2178 31.448 10.7976 31.0639 10.8122 30.3347C10.8183 30.0317 10.7156 29.7644 10.6039 29.5565C10.4902 29.3449 10.3384 29.1421 10.1797 28.9543C9.86646 28.5835 9.44017 28.1724 9.02313 27.7626C8.59281 27.3398 8.14641 26.8944 7.73739 26.4138C6.9079 25.4392 6.32272 24.4228 6.31422 23.3368C6.306 22.2856 6.84091 20.9588 8.73741 19.3585L7.77007 18.2121C5.67574 19.9793 4.80132 21.6929 4.81427 23.3486C4.82695 24.9695 5.69344 26.3266 6.59512 27.386C7.05168 27.9224 7.54074 28.409 7.97187 28.8326C8.41629 29.2692 8.77746 29.6188 9.03381 29.9223C9.15991 30.0716 9.23842 30.1843 9.28257 30.2665C9.32875 30.3524 9.31145 30.3572 9.31251 30.3045C9.3171 30.0758 9.5251 30.1051 9.17199 30.236L9.69344 31.6424ZM7.51435 18.911C7.97327 21.611 9.36896 23.2532 10.7294 24.2096C11.4029 24.683 12.0626 24.9855 12.5884 25.1706C13.0854 25.3456 13.5282 25.4383 13.7665 25.4383L13.7665 23.9383C13.7843 23.9383 13.5329 23.9129 13.0866 23.7557C12.6691 23.6087 12.1362 23.365 11.592 22.9824C10.517 22.2267 9.3769 20.9175 8.99314 18.6597L7.51435 18.911ZM14.4635 24.9652C14.7301 24.2943 14.7802 23.6682 14.4733 23.1019C14.207 22.6104 13.724 22.2931 13.3699 22.0607C12.6033 21.5576 11.7499 21.0525 11.1858 19.727L9.80558 20.3144C10.5651 22.099 11.7884 22.8169 12.5469 23.3148C12.9554 23.5828 13.097 23.7105 13.1544 23.8165C13.1713 23.8476 13.2442 23.9717 13.0695 24.4114L14.4635 24.9652ZM11.1858 19.727C10.5774 18.2976 10.6455 16.9929 11.137 15.2423C11.3864 14.354 11.7377 13.3757 12.1557 12.2165C12.5709 11.0648 13.0458 9.7511 13.5263 8.22528L12.0956 7.77472C11.6256 9.26734 11.1606 10.5539 10.7446 11.7077C10.3313 12.8538 9.9598 13.8861 9.69286 14.8368C9.15169 16.7643 9.0127 18.4515 9.80558 20.3144L11.1858 19.727ZM12.0745 8.14172C12.9769 12.8313 14.9781 15.1487 16.9291 16.789C17.4051 17.1893 17.8772 17.5487 18.3107 17.8815C18.7499 18.2188 19.1473 18.5272 19.5053 18.8447C20.2136 19.473 20.7229 20.099 20.9964 20.9254L22.4204 20.454C22.0322 19.2811 21.3145 18.4445 20.5006 17.7225C20.0975 17.365 19.66 17.0264 19.2242 16.6918C18.7827 16.3527 18.3397 16.0153 17.8944 15.6409C16.1598 14.1825 14.3741 12.1543 13.5475 7.85828L12.0745 8.14172ZM22.205 21.2517C22.8381 20.6924 22.984 19.9375 22.8868 19.2573C22.7927 18.5987 22.4717 17.9608 22.0926 17.4498L20.888 18.3437C21.1682 18.7213 21.3533 19.1291 21.4019 19.4695C21.4474 19.7882 21.3727 19.9856 21.2118 20.1277L22.205 21.2517ZM22.1161 17.4834C21.9769 17.2727 21.7971 17.058 21.6264 16.859C21.4459 16.6486 21.2658 16.4446 21.0801 16.2151C20.7128 15.761 20.3768 15.2691 20.1742 14.7048C19.7978 13.6566 19.8004 12.1249 21.6672 9.82739L20.503 8.88149C18.3988 11.4712 18.1636 13.5439 18.7624 15.2117C19.0474 16.0054 19.5022 16.6494 19.9139 17.1584C20.1177 17.4104 20.3241 17.6448 20.4879 17.8356C20.6614 18.0379 20.7835 18.1875 20.8645 18.3101L22.1161 17.4834ZM20.3709 9.58352C21.5267 13.1866 23.6872 14.7717 25.1846 16.21C25.9355 16.9312 26.5036 17.5928 26.8323 18.449C27.1583 19.298 27.279 20.4215 26.9656 22.1041L28.4403 22.3787C28.7888 20.507 28.6844 19.0881 28.2327 17.9114C27.7837 16.7419 27.0215 15.8945 26.2237 15.1282C24.6238 13.5915 22.8135 12.2874 21.7992 9.12536L20.3709 9.58352ZM27.703 22.9914C28.1503 22.9914 28.6694 22.88 29.12 22.5635C29.5885 22.2344 29.9282 21.7203 30.0423 21.031C30.2577 19.7295 29.6666 17.8508 27.8871 15.163L26.6364 15.9911C28.3867 18.6348 28.6779 20.0883 28.5625 20.7861C28.5111 21.0965 28.382 21.2488 28.2577 21.3362C28.1153 21.4362 27.9175 21.4914 27.703 21.4914L27.703 22.9914ZM27.0507 16.2968C31.302 17.5432 32.8575 19.3066 33.6102 21.0634C34.0045 21.9837 34.1964 22.9418 34.3944 23.9568C34.587 24.9441 34.7888 26.0095 35.2282 26.9908L36.5972 26.3778C36.2409 25.582 36.0664 24.6937 35.8666 23.6695C35.6722 22.6729 35.4554 21.5615 34.989 20.4727C34.0201 18.2112 32.0459 16.1981 27.4728 14.8574L27.0507 16.2968ZM43.1963 39.8096C46.8651 52.3328 41.5205 64.6742 31.643 67.6084L32.0701 69.0463C42.9989 65.7998 48.4528 52.4167 44.6357 39.3878L43.1963 39.8096ZM2.5714 53.1514C3.86776 57.5764 8.66537 59.982 13.2283 58.6265L12.8011 57.1886C8.96223 58.329 5.05308 56.287 4.0109 52.7297L2.5714 53.1514ZM8.56684 42.7355C4.00565 44.0904 1.27578 48.729 2.5714 53.1514L4.0109 52.7297C2.96798 49.1698 5.15337 45.3142 8.99399 44.1733L8.56684 42.7355ZM25.9489 63.1447C30.5408 63.1447 34.1813 59.1868 34.1813 54.4089H32.6813C32.6813 58.4519 29.6218 61.6447 25.9489 61.6447V63.1447ZM17.7165 54.4089C17.7165 59.1868 21.357 63.1447 25.9489 63.1447V61.6447C22.276 61.6447 19.2165 58.4519 19.2165 54.4089H17.7165ZM23.4208 34.5016L32.0369 49.3363L33.334 48.583L24.7179 33.7483L23.4208 34.5016ZM32.4719 48.2407L26.4904 50.0175L26.9176 51.4554L32.899 49.6786L32.4719 48.2407ZM28.7314 36.7764C29.1058 38.0544 30.4425 38.7923 31.722 38.4122L31.2949 36.9743C30.8196 37.1155 30.3141 36.8436 30.1709 36.3546L28.7314 36.7764ZM31.722 38.4122C32.9993 38.0328 33.722 36.6868 33.3482 35.4108L31.9087 35.8325C32.0525 36.3235 31.7723 36.8325 31.2949 36.9743L31.722 38.4122ZM33.3482 35.4108C32.9738 34.1327 31.637 33.3948 30.3575 33.7749L30.7847 35.2128C31.26 35.0716 31.7655 35.3436 31.9087 35.8325L33.3482 35.4108ZM30.3575 33.7749C29.0802 34.1543 28.3575 35.5003 28.7314 36.7764L30.1709 36.3546C30.027 35.8636 30.3072 35.3546 30.7847 35.2128L30.3575 33.7749ZM15.4673 40.7168C15.8417 41.9949 17.1784 42.7328 18.4579 42.3527L18.0308 40.9148C17.5555 41.056 17.05 40.784 16.9068 40.2951L15.4673 40.7168ZM18.4579 42.3527C19.7352 41.9733 20.4579 40.6273 20.0841 39.3512L18.6446 39.773C18.7884 40.264 18.5082 40.773 18.0308 40.9148L18.4579 42.3527ZM20.0841 39.3512C19.7097 38.0732 18.3729 37.3353 17.0934 37.7154L17.5206 39.1533C17.9959 39.0121 18.5014 39.284 18.6446 39.773L20.0841 39.3512ZM17.0934 37.7154C15.8161 38.0948 15.0934 39.4408 15.4673 40.7168L16.9068 40.2951C16.7629 39.8041 17.0431 39.2951 17.5206 39.1533L17.0934 37.7154ZM25.4546 28.4172L31.7236 28.294L31.6942 26.7943L25.4251 26.9175L25.4546 28.4172ZM17.0237 29.4128L11.692 32.7357L12.4854 34.0087L17.817 30.6858L17.0237 29.4128ZM35.4148 27.2452C35.5213 27.3397 35.6272 27.4354 35.7324 27.5323L36.7483 26.4287C36.6364 26.3257 36.5238 26.2239 36.4105 26.1234L35.4148 27.2452ZM35.7324 27.5323C39.0532 30.5893 41.7304 34.8059 43.1963 39.8096L44.6357 39.3878C43.0959 34.1319 40.2767 29.6767 36.7483 26.4287L35.7324 27.5323ZM36.959 27.1951C37.3018 26.0472 38.1701 24.9061 40.1044 24.0438L39.4936 22.6738C37.225 23.6851 36.0088 25.135 35.5217 26.7658L36.959 27.1951ZM49.2002 58.3982L41.8806 59.6639L42.1362 61.142L49.4557 59.8763L49.2002 58.3982Z" fill="url(#paint0_linear_1_1342)"/>
<defs>
<linearGradient id="paint0_linear_1_1342" x1="3" y1="38.5" x2="82" y2="38.5" gradientUnits="userSpaceOnUse">
<stop stop-color="#F3FF57"/>
<stop offset="1" stop-color="#FF73CF"/>
</linearGradient>
</defs>
</svg>
