<svg width="524" height="448" fill="none" version="1.1" viewBox="0 0 524 448" xmlns="http://www.w3.org/2000/svg" xmlns:xlink="http://www.w3.org/1999/xlink">
 <g>
  <path d="m155.4 63.913c-2.413-1.0035-4.093-2.9039-4.764-4.1326-0.419-0.7667-2.196-3.9998-4.61-8.3901-0.406 0.2839-0.831 0.5349-1.271 0.7548 2.448 4.4526 4.254 7.7385 4.676 8.5116 1.64 3.0005 7.64 8.501 15.64 3.5007 4.5-3.5794 6-8.5007 1.737-16.001-2.172-3.8219-11.159-20.108-19.451-35.163l0.47 3.9158c7.792 14.142 15.757 28.57 17.789 32.146 2.038 3.5848 2.546 6.2928 2.225 8.3628-0.311 2.0127-1.462 3.7765-3.48 5.3995-3.584 2.2135-6.63 2.0651-8.961 1.0951z" fill="#2E2E2E"/>
  <path d="m82.906 41.006-73.906 358.58 53.596-32.908 50.21 78.318m0 0 402.19-59.814-76.5-372.19-139.18 11.803-216.41 16.204 29.9 403.99z" fill="#151515"/>
  <path d="M82.9055 41.0065L9 399.59L62.5956 366.682L112.806 445M82.9055 41.0065L299.319 24.8027L438.5 13L515 385.186L112.806 445M82.9055 41.0065L112.806 445" stroke="#2E2E2E" stroke-width="1.5"/>
  <path d="m108.74 25.962 173.91 21.378-12.598 74.764-172.5-5.132 11.188-91.01z" fill="#151515"/>
  <g fill="#2E2E2E">
   <path d="m110.04 27.634-10.804 87.888 169.55 5.044 12.12-71.928-131.28-16.138-0.186-1.5341 133.2 16.374-12.598 74.764-172.5-5.132 11.188-91.01 17.05 2.0959 0.215 1.5378-15.96-1.9619z"/>
   <path d="m130.41 30.138-0.176-1.533 14.802 1.8196 0.175 1.5329-14.801-1.8195z"/>
   <path d="m128.7 6.0204c-2.268 2.6454-3.319 6.3506-2.89 9.9852l3.071 25.981 1e-3 0.0078 1e-3 0.0084c0.503 3.6035 2.116 6.2691 4.34 7.9143l8e-3 0.0059c2.261 1.6689 5.113 2.2596 8.026 1.783 0.994-0.1627 1.932-0.4438 2.79-0.8544 0.447-0.2142 0.873-0.4635 1.274-0.7497 0.84-0.6004 1.571-1.3629 2.162-2.3021 1.391-2.2135 1.921-5.2786 1.449-9.2235l-6e-3 -0.0445v-2e-3l-3.014-25.102-0.103-0.8615c-0.401-3.3375-1.889-5.9996-3.922-7.7429-0.845-0.72454-1.784-1.2904-2.779-1.68-1.69-0.66211-3.536-0.81105-5.329-0.36907-1.819 0.44802-3.584 1.5032-5.079 3.2466zm1.646 35.67c0.055 0.3982 0.126 0.7831 0.21 1.1545 1.275 5.6066 5.746 8.1461 10.564 7.3578 0.804-0.1316 1.544-0.3467 2.214-0.6476 0.46-0.2067 0.886-0.454 1.278-0.7425 0.649-0.4786 1.201-1.0708 1.647-1.7803 1.121-1.7845 1.659-4.4459 1.201-8.2164v-2e-3l-3.117-25.964c-0.352-2.926-1.629-5.2273-3.343-6.742-0.76-0.67141-1.605-1.1883-2.494-1.5364-2.878-1.1276-6.224-0.50365-8.728 2.4152-1.937 2.2588-2.885 5.4947-2.501 8.7385l0.698 5.9071 2.371 20.058z" clip-rule="evenodd" fill-rule="evenodd"/>
  </g>
 </g>
 <defs>
  <linearGradient id="paint7_linear_1826_7721" x1="146.4" x2="223.94" y1="182.19" y2="183.96" gradientUnits="userSpaceOnUse">
   <stop stop-color="#F3FF57" offset=".28081"/>
   <stop stop-color="#FF73CF" offset="1"/>
  </linearGradient>
 </defs>
 <g>
  <g id="g9896">
   <path d="m153.3 379.55 2.804-0.295-1.753-16.672 9.751-1.024 1.753 16.671 2.803-0.294-2.03-19.314-15.358 1.614 2.03 19.314zm18.574-1.952 2.803-0.295-0.623-5.928 7.069-0.743 0.623 5.928 2.803-0.294-1.523-14.486-2.803 0.295 0.622 5.915-7.069 0.742-0.621-5.915-2.803 0.295 1.522 14.486z" fill="#494949"/>
   <path d="m198.39 374.81 8.316-0.874c3.675-0.386 5.547-2.834 5.189-6.241-0.216-2.052-1.441-3.645-3.445-4.262 1.197-0.872 1.827-2.362 1.641-4.132-0.277-2.629-2.451-4.991-6.139-4.603l-7.592 0.798 2.03 19.314zm2.563-2.968-0.643-6.116 5.218-0.548c1.931-0.203 3.306 1.008 3.491 2.765 0.197 1.878-1.105 3.167-3.023 3.369l-5.043 0.53zm-0.92-8.758-0.551-5.245 4.707-0.494c1.677-0.177 2.876 0.782 3.034 2.284 0.178 1.69-0.927 2.796-2.482 2.96l-4.708 0.495zm18.329 9.627 2.803-0.295-1.257-11.964 4.949-0.52-0.265-2.521-12.702 1.335 0.265 2.521 4.949-0.52 1.258 11.964z" fill="#494949"/>
   <path d="m251.58 369.63c4.453-0.468 7.189-3.21 7.928-7.139l-2.923-0.465c-0.482 2.776-2.228 4.614-5.286 4.935-4.104 0.432-6.508-2.313-6.946-6.742-0.452-4.427 1.289-7.607 5.393-8.038 3.058-0.322 5.148 1.113 6.196 3.728l2.763-1.063c-1.541-3.689-4.787-5.803-9.24-5.335-5.794 0.609-8.704 5.051-8.076 11.02 0.627 5.969 4.397 9.708 10.191 9.099zm17.798-1.87c4.037-0.425 6.21-4.003 5.753-8.348-0.459-4.373-3.337-7.366-7.414-6.937-1.798 0.189-3.166 0.97-4.086 2.152l-0.137-1.301-2.495 0.262 2.199 20.924 2.817-0.296-0.784-7.458c1.114 0.792 2.497 1.175 4.147 1.002zm-5.124-7.205c-0.316-3.004 0.658-5.222 3.3-5.5 2.79-0.293 4.301 1.826 4.6 4.67 0.301 2.87-0.736 5.257-3.432 5.541-2.763 0.29-4.153-1.706-4.468-4.711z" fill="#494949"/>
   <path d="m299.86 364.15 2.83-0.297-2.03-19.314-2.83 0.297 0.935 8.893c-0.75 0.743-2.108 1.496-3.932 1.688-3.769 0.396-4.662-2.168-4.974-5.132l-0.479-4.561-2.844 0.299 0.574 5.459c0.454 4.319 2.559 7.19 7.482 6.672 1.797-0.189 3.419-0.752 4.476-1.541l0.792 7.537zm9.778-1.027 2.803-0.295-1.257-11.964 4.949-0.52-0.265-2.522-12.702 1.335 0.265 2.522 4.95-0.52 1.257 11.964z" fill="#494949"/>
   <path d="m333.65 360.6 2.804-0.295-1.753-16.672 9.751-1.025 1.753 16.672 2.803-0.295-2.03-19.314-15.358 1.614 2.03 19.315zm22.329-2.347 2.804-0.295-1.258-11.964 4.949-0.52-0.265-2.522-12.701 1.335 0.265 2.522 4.949-0.52 1.257 11.964z" fill="#494949"/>
   <path d="m386.84 355.41c4.453-0.468 7.189-3.21 7.928-7.139l-2.923-0.466c-0.482 2.776-2.228 4.614-5.286 4.936-4.104 0.431-6.508-2.313-6.946-6.742-0.452-4.428 1.288-7.608 5.393-8.039 3.058-0.321 5.148 1.113 6.196 3.729l2.763-1.063c-1.541-3.69-4.787-5.803-9.24-5.335-5.794 0.609-8.704 5.051-8.076 11.019 0.627 5.969 4.397 9.709 10.191 9.1zm16.954-1.769c4.202-0.401 6.719-3.553 6.268-7.845-0.416-3.957-3.091-6.7-6.968-6.293-1.85 0.195-3.615 1.085-4.538 2.878-0.059-1.852 0.461-3.615 1.714-4.588 1.754-1.378 5.408-1.707 7.345-2.372l-0.532-2.48c-2.917 0.89-6.356 1.197-8.482 3.034-1.009 0.852-1.829 2.077-2.205 3.405-0.526 1.832-0.482 5.217-0.108 7.484 0.764 4.693 3.385 7.183 7.506 6.777zm-4.479-6.621c-0.285-2.709 0.908-4.516 3.43-4.781 2.481-0.261 4.077 1.253 4.362 3.962 0.278 2.642-0.881 4.513-3.443 4.783-2.508 0.263-4.06-1.214-4.349-3.964z" fill="#494949"/>
   <path d="m423.82 351.12 8.316-0.874c3.675-0.386 5.547-2.834 5.189-6.241-0.216-2.052-1.441-3.646-3.445-4.262 1.197-0.872 1.827-2.362 1.641-4.132-0.277-2.629-2.451-4.991-6.139-4.603l-7.592 0.798 2.03 19.314zm2.563-2.968-0.642-6.116 5.217-0.549c1.931-0.203 3.306 1.009 3.491 2.766 0.197 1.878-1.104 3.167-3.022 3.369l-5.044 0.53zm-0.92-8.759-0.551-5.244 4.707-0.495c1.677-0.176 2.876 0.783 3.034 2.285 0.178 1.69-0.926 2.796-2.482 2.96l-4.708 0.494zm20.826 9.772c3.111-0.327 5.203-2.106 5.856-5.05l-2.914-0.371c-0.427 1.617-1.423 2.59-3.22 2.779-2.656 0.279-4.222-1.59-4.55-4.58-0.291-2.899 0.749-5.137 3.498-5.426 1.623-0.17 3.078 0.639 3.798 2.205l2.706-1.098c-1.011-2.647-3.576-4.086-6.741-3.753-4.386 0.461-6.682 3.902-6.238 8.385 0.49 4.41 3.365 7.376 7.805 6.909z" fill="#494949"/>
  </g>
  <use transform="translate(-5.9969 -58.79)" xlink:href="#g9896"/>
  <use transform="translate(-12.162 -117.57)" xlink:href="#g9896"/>
  <use transform="translate(-18.698 -175.81)" xlink:href="#g9896"/>
 </g>
 <g>
  <g id="sizzle1" class="sizzle">
   <path id="path28" d="m214.74 195.8-0.203 8.883-45.54-1.037 0.202-8.883 8.65-2.243-8.462-6.031 0.084-3.657 9.068 0.586-8.796-12.529 0.036-1.61 10.581 4.207-3.627-14.335 1.297 0.03 8.224 10.473 0.851-10.267 2.346 0.054 3.145 8.31 3.521-8.158 2.346 0.053 0.383 10.295 8.692-10.088 1.296 0.029-4.275 14.155 10.761-3.721-0.037 1.611-9.357 12.115 9.085-0.173-0.083 3.658-8.727 5.639z" fill="url(#paint7_linear_1826_7721)"/>
   <path id="path32" d="m179.89 198.78 8.316-0.874c3.675-0.387 5.547-2.834 5.188-6.241-0.215-2.052-1.44-3.646-3.444-4.262 1.196-0.872 1.826-2.362 1.64-4.133-0.276-2.628-2.45-4.99-6.139-4.602l-7.591 0.798zm2.563-2.968-0.643-6.116 5.218-0.549c1.931-0.203 3.306 1.009 3.491 2.766 0.197 1.878-1.105 3.167-3.023 3.369zm-0.921-8.759-0.551-5.244 4.708-0.495c1.677-0.176 2.876 0.783 3.034 2.285 0.177 1.69-0.927 2.796-2.483 2.959zm18.329 9.628 2.804-0.295-1.258-11.964 4.949-0.52-0.265-2.522-12.701 1.335 0.265 2.522 4.949-0.52z" fill="#151515"/>
  </g>
  <g id="sizzle2" class="sizzle">
   <use transform="translate(135.67 -11.903)" xlink:href="#path28"/>
   <path id="path38" d="m315.15 184.57 2.803-0.294-1.752-16.672 9.751-1.025 1.752 16.672 2.804-0.295-2.03-19.314-15.358 1.614zm22.329-2.347 2.803-0.294-1.257-11.964 4.949-0.521-0.265-2.521-12.702 1.335 0.265 2.521 4.95-0.52z" fill="#151515"/>
  </g>
  <g id="sizzle3" class="sizzle">
   <use id="use34094" transform="rotate(-17.136 390.08 195.19)" xlink:href="#path28"/>
   <use id="use34327" transform="translate(6.167,58.677)" xlink:href="#path32"/>
  </g>
  <g id="sizzle4" class="sizzle">
   <use transform="translate(135.97 -11.948)" xlink:href="#use34094"/>
   <use id="use34333" transform="translate(6.167,58.677)" xlink:href="#path38"/>
  </g>
  <g id="sizzle5" class="sizzle">
   <use id="use34100" transform="rotate(4.9836 -1167.4 377.95)" xlink:href="#path28"/>
   <use id="use34329" transform="translate(6.168,58.676)" xlink:href="#use34327"/>
  </g>
  <g id="sizzle6" class="sizzle">
   <use transform="translate(135.58 -11.907)" xlink:href="#use34100"/>
   <use id="use34335" transform="translate(6.168,58.677)" xlink:href="#use34333"/>
  </g>
  <g id="sizzle7" class="sizzle">
   <use id="use34104" transform="rotate(-16.542 806.49 212.09)" xlink:href="#path28"/>
   <use transform="translate(6.167,58.677)" xlink:href="#use34329"/>
  </g>
  <g id="sizzle8" class="sizzle">
   <use transform="translate(136.96 -12.946)" xlink:href="#use34104"/>
   <use transform="translate(6.167,58.677)" xlink:href="#use34335"/>
  </g>
 </g>
</svg>
