<svg width="37" height="37" viewBox="0 0 37 37" fill="none" xmlns="http://www.w3.org/2000/svg">
<path d="M8.78865 7.60051C8.39813 7.20999 7.76496 7.20999 7.37444 7.60051C6.98391 7.99103 6.98391 8.6242 7.37444 9.01472L8.78865 7.60051ZM28.3185 29.9588C28.709 30.3493 29.3422 30.3493 29.7327 29.9588C30.1232 29.5682 30.1232 28.9351 29.7327 28.5445L28.3185 29.9588ZM7.37444 9.01472L28.3185 29.9588L29.7327 28.5445L8.78865 7.60051L7.37444 9.01472Z" fill="#ffffff"/>
<path d="M28.3188 7.60051C28.7093 7.20999 29.3425 7.20999 29.733 7.60051C30.1235 7.99103 30.1235 8.6242 29.733 9.01472L28.3188 7.60051ZM8.78896 29.9588C8.39843 30.3493 7.76527 30.3493 7.37474 29.9588C6.98422 29.5682 6.98422 28.9351 7.37474 28.5445L8.78896 29.9588ZM29.733 9.01472L8.78896 29.9588L7.37474 28.5445L28.3188 7.60051L29.733 9.01472Z" fill="#ffffff"/>
</svg>
