<svg width="18" height="18" viewBox="0 0 18 18" fill="none" xmlns="http://www.w3.org/2000/svg">
<path fill-rule="evenodd" clip-rule="evenodd" d="M0.54437 17.1415C0.934894 17.5321 1.56806 17.5321 1.95858 17.1415L8.69967 10.4139L15.3061 17.1414C15.6966 17.5319 16.3298 17.5319 16.7203 17.1414C17.1109 16.7509 17.1109 16.1177 16.7203 15.7272L10.1139 8.99965L16.7203 2.16884C17.1109 1.77832 17.1109 1.14516 16.7203 0.754631C16.3298 0.364106 15.6966 0.364107 15.3061 0.754631L8.69967 7.58544L1.95871 0.754822C1.56818 0.364298 0.935019 0.364298 0.544494 0.754822C0.15397 1.14535 0.15397 1.77851 0.544494 2.16904L7.28546 8.99965L0.54437 15.7273C0.153845 16.1178 0.153845 16.751 0.54437 17.1415Z" fill="#ffffff"/>
</svg>
