<svg width="17" height="17" viewBox="0 0 17 17" fill="none" xmlns="http://www.w3.org/2000/svg">
<path fill-rule="evenodd" clip-rule="evenodd" d="M9.40812 9.78665L6.36086 13.1109L7.83517 14.4624C7.83517 14.4624 11.7071 10.2753 12.0145 9.90313C12.4245 9.46103 12.5728 9.11972 12.5728 8.78665C12.5728 8.45359 12.4209 8.13865 12.0145 7.67017C11.608 7.2017 7.83517 3.11093 7.83517 3.11093L6.36086 4.46238L9.40812 7.78665L0.580643 7.78665L0.580643 9.78665L9.40812 9.78665Z" fill="white"/>
<path fill-rule="evenodd" clip-rule="evenodd" d="M15.5728 0.78125C16.125 0.78125 16.5728 1.22897 16.5728 1.78125L16.5728 16.792L14.5728 16.792L14.5728 1.78125C14.5728 1.22897 15.0205 0.78125 15.5728 0.78125Z" fill="white"/>
</svg>
