<svg width="72" height="72" viewBox="0 0 72 72" fill="none" xmlns="http://www.w3.org/2000/svg">
<path fill-rule="evenodd" clip-rule="evenodd" d="M34.617 21.8997V9.82041H11.4443C11.4443 17.6007 18.8399 24.1368 28.8459 25.9833C27.4273 27.0349 26.0471 28.0943 24.7092 29.1565C22.7966 26.9655 19.9514 25.5763 16.7743 25.5763C11.0153 25.5763 6.34661 30.1412 6.34661 35.7723C6.34661 38.691 7.6009 41.3233 9.6112 43.182C2.88105 50.7539 -0.294683 57.1663 1.89194 60.1562C2.31912 60.7403 2.93282 61.1689 3.71286 61.4498C1.60403 56.5524 10.811 44.6099 25.0371 34.0411C39.9094 22.9922 54.6354 17.6286 57.9284 22.0612C60.3473 25.317 55.9248 32.9527 47.5123 41.156C64.3364 28.0072 74.7901 14.2528 71.2589 9.42442C67.7807 4.66863 51.9384 10.2184 34.617 21.8997ZM34.617 37.1642C21.8191 37.1642 11.4443 48.7871 11.4443 63.1177H34.617V37.1642ZM34.6181 37.1642C34.6181 37.1642 40.544 45.1397 52.8641 45.1397C61.0293 45.1397 67.5234 37.1642 67.5234 37.1642V63.1177H60.6309C46.2651 63.1177 34.6181 51.498 34.6181 37.1642Z" fill="white"/>
</svg>
