<svg width="91" height="90" viewBox="0 0 91 90" fill="none" xmlns="http://www.w3.org/2000/svg">
<path d="M35.7716 22.4914H20.0333V67.1633H35.7716V22.4914Z" fill="white"/>
<path d="M67.0138 44.7444L53.713 44.803V22.5022L67.0138 22.4319V44.7444Z" fill="white"/>
<path d="M35.7716 44.6741H53.713L71.338 67.1624H53.5607L35.7716 44.6741Z" fill="white"/>
<path d="M53.6913 22.6252L35.808 44.7857L37.8325 46.4195L55.7158 24.259L53.6913 22.6252Z" fill="white"/>
<path opacity="0.5" d="M50.0215 14.6741C49.9864 14.9202 49.8106 15.1077 49.6348 15.2952C47.584 17.3811 45.5333 19.4553 43.4942 21.553C43.1661 21.8811 42.9434 21.9045 42.6036 21.5413C40.8223 19.6897 39.0176 17.8499 37.1895 16.0334C35.8536 14.7092 35.8067 14.428 37.2247 13.2209C38.1505 12.4241 38.9356 11.5217 39.8145 10.678C40.7872 9.74048 41.7247 8.77954 42.6622 7.8186C42.9669 7.5022 43.1895 7.51392 43.4707 7.80688C45.5098 9.89282 47.5723 11.9788 49.6114 14.0647C49.7872 14.2288 49.9864 14.3928 50.0215 14.6741Z" fill="white"/>
<path opacity="0.5" d="M50.0215 75.2834C49.9864 75.5295 49.8106 75.717 49.6348 75.9045C47.584 77.9905 45.5333 80.0647 43.4942 82.1624C43.1661 82.4905 42.9434 82.5139 42.6036 82.1506C40.8223 80.2991 39.0176 78.4592 37.1895 76.6428C35.8536 75.3186 35.8067 75.0374 37.2247 73.8303C38.1505 73.0335 38.9356 72.1311 39.8145 71.2874C40.7872 70.3499 41.7247 69.3889 42.6622 68.428C42.9669 68.1116 43.1895 68.1233 43.4707 68.4163C45.5098 70.5022 47.5723 72.5881 49.6114 74.6741C49.7872 74.8381 49.9864 74.9905 50.0215 75.2834Z" fill="white"/>
</svg>
