<svg width="17" height="17" viewBox="0 0 17 17" fill="none" xmlns="http://www.w3.org/2000/svg">
<path fill-rule="evenodd" clip-rule="evenodd" d="M1.57275 1.29976e-06C2.12504 1.3239e-06 2.57275 0.447717 2.57275 1L2.57275 16.0107L0.572751 16.0107L0.572752 1C0.572752 0.447717 1.02047 1.27562e-06 1.57275 1.29976e-06Z" fill="white"/>
<path fill-rule="evenodd" clip-rule="evenodd" d="M13.4081 9.0058L10.3609 12.3301L11.8352 13.6815C11.8352 13.6815 15.7071 9.49447 16.0145 9.12228C16.4245 8.68018 16.5728 8.33887 16.5728 8.0058C16.5728 7.67274 16.4209 7.3578 16.0145 6.88933C15.608 6.42085 11.8352 2.33008 11.8352 2.33008L10.3609 3.68153L13.4081 7.0058L4.58064 7.0058L4.58064 9.00581L13.4081 9.0058Z" fill="white"/>
</svg>
