<svg id="a0356b87-c332-4bd1-ada6-3894194fffee" data-name="Слой 1" xmlns="http://www.w3.org/2000/svg" viewBox="0 0 90 90"><rect width="90" height="90" style="fill:#111"/><path d="M33.94,19.81H16.15V70.28H33.94Z" transform="translate(-0.14 -0.05)" style="fill:#fff"/><path d="M69.23,45l-15,.07V19.82l15-.08Z" transform="translate(-0.14 -0.05)" style="fill:#fff"/><path d="M33.94,44.87H54.21L74.12,70.28H54Z" transform="translate(-0.14 -0.05)" style="fill:#fff"/><path d="M54.18,20,34,45l2.28,1.84,20.21-25Z" transform="translate(-0.14 -0.05)" style="fill:#fff"/><path d="M50,11a1.39,1.39,0,0,1-.44.7C47.28,14,45,16.38,42.66,18.75c-.37.37-.62.4-1,0q-3-3.15-6.11-6.23C34,11,34,10.7,35.58,9.33c1-.9,1.93-1.91,2.92-2.87s2.16-2.14,3.22-3.23c.34-.36.6-.34.91,0,2.31,2.35,4.64,4.71,6.94,7.07A1.14,1.14,0,0,1,50,11Z" transform="translate(-0.14 -0.05)" style="fill:#fff;opacity:0.5;isolation:isolate"/><path d="M50,79.46a1.39,1.39,0,0,1-.44.7q-3.48,3.53-6.94,7.07c-.37.37-.62.4-1,0q-3-3.15-6.11-6.23c-1.51-1.49-1.57-1.81,0-3.18,1-.9,1.93-1.92,2.92-2.87s2.16-2.14,3.22-3.23c.34-.36.6-.34.91,0,2.31,2.35,4.64,4.71,6.94,7.07A1.11,1.11,0,0,1,50,79.46Z" transform="translate(-0.14 -0.05)" style="fill:#fff;opacity:0.5;isolation:isolate"/></svg>