<svg id="ab271ef9-8636-4c94-8158-86fd92e44fce" data-name="Слой 1" xmlns="http://www.w3.org/2000/svg" viewBox="0 0 99 20.77"><g style="opacity:0.20000000298023224"><path d="M96.17,5.72l-2.3,5.65a.39.39,0,0,0-.07.27l-.06.13-.07-.13c0-.07-.06-.2-.06-.27L91.3,5.72h-3l3.87,9.66-1.64,3.68h3L99,5.72Z" style="fill:#777"/><path d="M74.35,6.25a3.78,3.78,0,0,0-2-.73A4.2,4.2,0,0,0,69,6.71v-1h-2.7v9.66H69V10.25c0-1.11.19-1.44.39-1.7A1.83,1.83,0,0,1,71,7.76a2,2,0,0,1,1.71.85A3,3,0,0,1,73,9.8v5.52h2.7V9.47A3.61,3.61,0,0,0,74.35,6.25Z" style="fill:#777"/><path d="M61.2,5.78a5.5,5.5,0,0,0-4.08.2A4.57,4.57,0,0,0,55,7.89a4.87,4.87,0,0,0-.65,2.63,4.77,4.77,0,0,0,2.49,4.4,6,6,0,0,0,2.57.65,5,5,0,0,0,1.38-.19A9.66,9.66,0,0,0,62,14.91a4.76,4.76,0,0,0,1.84-1.77,4.88,4.88,0,0,0,.66-2.63A4.91,4.91,0,0,0,61.2,5.78Zm.72,4.87a2.93,2.93,0,0,1-.85,2,3.16,3.16,0,0,1-1.71.59,2.48,2.48,0,0,1-1.71-.59,2.89,2.89,0,0,1-.85-2,2.51,2.51,0,0,1,1.05-2.3,2.65,2.65,0,0,1,1.45-.46,2.86,2.86,0,0,1,1.51.46A2.35,2.35,0,0,1,61.92,10.65Z" style="fill:#777"/><path d="M51.21,6.25a3.75,3.75,0,0,0-2-.73h-.46A3.55,3.55,0,0,0,46,6.9l-.14.2h-.26a2.91,2.91,0,0,0-.72-.79,3.83,3.83,0,0,0-2-.72,3.46,3.46,0,0,0-3.09,1.19v-1h-2.7v9.66h2.7V10.26a2.6,2.6,0,0,1,.33-1.65,1.68,1.68,0,0,1,1.57-.79,1.85,1.85,0,0,1,1.58.86A2.26,2.26,0,0,1,43.58,10v5.4h2.7v-5.2a2.7,2.7,0,0,1,.33-1.64,1.79,1.79,0,0,1,1.58-.79,1.75,1.75,0,0,1,1.51.85,2.12,2.12,0,0,1,.26,1v5.72h2.69V9.4a5.63,5.63,0,0,0-.19-1.51A3.41,3.41,0,0,0,51.21,6.25Z" style="fill:#777"/><path d="M85.78,12.42a4,4,0,0,1-2.56,1.19,3,3,0,0,1-2.43-.86,2.57,2.57,0,0,1-.59-1.05h7.42v-.06a6.24,6.24,0,0,0,.14-1.12,7,7,0,0,0-.2-1.38,5.11,5.11,0,0,0-1.84-2.63,4.53,4.53,0,0,0-2.17-.92,5.19,5.19,0,0,0-5.19,2.3,5.1,5.1,0,0,0-.73,2.89A4.84,4.84,0,0,0,78.88,14a5.7,5.7,0,0,0,3.88,1.65,7.14,7.14,0,0,0,4.8-1.91ZM81.19,8.35a2.52,2.52,0,0,1,1.44-.46,3,3,0,0,1,1.51.46,3.18,3.18,0,0,1,.92,1.18H80.33A1.88,1.88,0,0,1,81.19,8.35Z" style="fill:#777"/><path d="M18.87,0A10.39,10.39,0,1,0,29.25,10.39,10.37,10.37,0,0,0,18.87,0Zm0,14.2a3.88,3.88,0,1,1,3.87-3.88A3.93,3.93,0,0,1,18.87,14.2Z" style="fill:#777"/><path d="M8.41,3V18.08H4.73L0,3Z" style="fill:#777"/></g></svg>