<svg width="36" height="36" viewBox="0 0 36 36" fill="none" xmlns="http://www.w3.org/2000/svg">
<g clip-path="url(#clip0_2671_2721)">
<path d="M18.168 8.90039C17.6157 8.90039 17.168 9.34811 17.168 9.90039V18.0639C17.168 18.2425 17.2158 18.4178 17.3064 18.5716L22.2921 27.0328C22.4718 27.3379 22.7995 27.5251 23.1536 27.5251H24.9034C25.4557 27.5251 25.9034 27.0774 25.9034 26.5251V19.2351C25.9034 18.7389 26.3056 18.3366 26.8018 18.3366C27.298 18.3366 27.7002 18.7389 27.7002 19.2351V26.5251C27.7002 27.0774 28.148 27.5251 28.7002 27.5251H35C35.5523 27.5251 36 27.0774 36 26.5251V9.90039C36 9.34811 35.5523 8.90039 35 8.90039H18.168Z" fill="#444444"/>
<path d="M16.3086 18.0968L11.7554 9.6351C11.378 8.93386 10.3723 8.93349 9.99448 9.63446L6.22784 16.6223C5.86871 17.2885 6.35123 18.0968 7.1081 18.0968H10.874C11.2649 18.0968 11.5817 18.4136 11.5817 18.8045C11.5817 19.1954 11.2649 19.5122 10.874 19.5122H5.20109C4.84357 19.5122 4.51325 19.7031 4.33471 20.0128L0.864263 26.0336C0.47999 26.7003 0.961153 27.533 1.73064 27.533H10.8755H15.3274C15.8797 27.533 16.3274 27.0853 16.3274 26.533V18.1767C16.3274 18.149 16.3209 18.1216 16.3086 18.0968Z" fill="#444444"/>
<path fill-rule="evenodd" clip-rule="evenodd" d="M5.26465 17.5195C5.26465 17.9337 4.92886 18.2695 4.51465 18.2695H2.40044C1.98623 18.2695 1.65044 17.9337 1.65044 17.5195C1.65044 17.1053 1.98623 16.7695 2.40044 16.7695H4.51465C4.92886 16.7695 5.26465 17.1053 5.26465 17.5195Z" fill="#444444"/>
</g>
<defs>
<clipPath id="clip0_2671_2721">
<rect width="36" height="36" fill="white"/>
</clipPath>
</defs>
</svg>
