<svg id="e44b7f00-700f-49e7-8d97-1d34abc4651b" data-name="Слой 1" xmlns="http://www.w3.org/2000/svg" xmlns:xlink="http://www.w3.org/1999/xlink" viewBox="0 0 155.33 154.67"><defs><linearGradient id="b31bf61f-5389-45da-a56b-5a9085977be7" x1="78" y1="156" x2="78" gradientTransform="matrix(1, 0, 0, -1, 0, 156)" gradientUnits="userSpaceOnUse"><stop offset="0" stop-color="#e3580a"/><stop offset="1" stop-color="#7e3105"/></linearGradient></defs><path d="M78,0,89.49,16.51,106.18,5.27l4.75,19.54,19.62-4.45L127.92,40.3l19.9,2.93-9.65,17.65,17.5,9.92-15.38,13L153,99.35l-19,6.53L140.24,125l-20.1-.78-1.08,20.09-18.46-8-8.27,18.34L78,140.56,63.67,154.67,55.4,136.33l-18.46,8-1.08-20.09L15.75,125,22,105.88,3,99.35,15.71,83.77.33,70.8l17.5-9.92L8.18,43.23l19.9-2.93L25.45,20.36l19.62,4.45L49.82,5.27,66.51,16.51Z" transform="translate(-0.33)" style="fill:url(#b31bf61f-5389-45da-a56b-5a9085977be7)"/></svg>