<svg id="ffb8bd1e-4abf-43cc-8292-fbc29252d47f" data-name="Слой 1" xmlns="http://www.w3.org/2000/svg" xmlns:xlink="http://www.w3.org/1999/xlink" viewBox="0 0 149.39 148.79"><defs><linearGradient id="e3414cde-aafd-46ad-bb36-6388b45e3334" x1="75" y1="153" x2="75" y2="-3" gradientTransform="matrix(1, 0, 0, -1, 0, 150)" gradientUnits="userSpaceOnUse"><stop offset="0" stop-color="#45e786"/><stop offset="1" stop-color="#043417"/></linearGradient></defs><path d="M71.72,1.71a4,4,0,0,1,6.56,0l6,8.57a4,4,0,0,0,5.52,1l8.65-5.83a4,4,0,0,1,6.13,2.37L107,18a4,4,0,0,0,4.77,3L122,18.63a4,4,0,0,1,4.85,4.42L125.43,33.4a4,4,0,0,0,3.39,4.48l10.32,1.52a4,4,0,0,1,2.93,5.87l-5,9.15a4,4,0,0,0,1.54,5.4L147.67,65a4,4,0,0,1,.61,6.54l-8,6.72a4,4,0,0,0-.52,5.59l6.61,8.08a4,4,0,0,1-1.8,6.31l-9.87,3.39a4,4,0,0,0-2.5,5l3.24,9.91a4,4,0,0,1-4,5.24l-10.43-.4a4,4,0,0,0-4.15,3.78l-.56,10.42a4,4,0,0,1-5.58,3.46l-9.58-4.14a4,4,0,0,0-5.23,2l-4.29,9.51a4,4,0,0,1-6.45,1.21l-7.43-7.32a4,4,0,0,0-5.62,0l-7.43,7.32a4,4,0,0,1-6.45-1.21L54,136.92a4,4,0,0,0-5.23-2L39.21,139a4,4,0,0,1-5.58-3.46l-.56-10.42a4,4,0,0,0-4.15-3.78l-10.42.4a4,4,0,0,1-4-5.24l3.24-9.91a4,4,0,0,0-2.5-5L5.41,98.21a4,4,0,0,1-1.8-6.31l6.61-8.08a4,4,0,0,0-.52-5.59l-8-6.72A4,4,0,0,1,2.33,65l9.07-5.15a4,4,0,0,0,1.54-5.4l-5-9.15a4,4,0,0,1,2.93-5.87l10.32-1.52a4,4,0,0,0,3.38-4.48L23.2,23.05a4,4,0,0,1,4.85-4.42l10.18,2.31A4,4,0,0,0,43,18L45.47,7.85a4,4,0,0,1,6.12-2.37l8.65,5.83a4,4,0,0,0,5.52-1Z" transform="translate(-0.3 0)" style="fill:url(#e3414cde-aafd-46ad-bb36-6388b45e3334)"/></svg>