<svg width="30" height="30" fill="none" version="1.1" viewBox="0 0 30 30" xmlns="http://www.w3.org/2000/svg">
 <path d="m0.5 15c0-3.0835 0.16592-5.5247 0.59539-7.4571 0.4281-1.9263 1.1109-3.314 2.1222-4.3253s2.399-1.6941 4.3253-2.1222c1.9324-0.42947 4.3737-0.59539 7.4571-0.59539s5.5247 0.16592 7.4571 0.59539c1.9264 0.4281 3.3141 1.1109 4.3253 2.1222 1.0113 1.0113 1.6941 2.399 2.1223 4.3253 0.42942 1.9324 0.59536 4.3737 0.59536 7.4571s-0.16594 5.5247-0.59536 7.4571c-0.42812 1.9264-1.1109 3.3141-2.1223 4.3253-1.0112 1.0113-2.3989 1.6941-4.3253 2.1223-1.9324 0.42942-4.3736 0.59536-7.4571 0.59536s-5.5247-0.16594-7.4571-0.59536c-1.9263-0.42812-3.314-1.1109-4.3253-2.1223-1.0113-1.0112-1.6941-2.3989-2.1222-4.3253-0.42947-1.9324-0.59539-4.3736-0.59539-7.4571z" stroke="#2e2e2e"/>
</svg>
