<svg width="260" height="259" viewBox="0 0 260 259" fill="none" xmlns="http://www.w3.org/2000/svg">
<path d="M130 0.671875L149.158 28.1871L176.961 9.45049L184.886 42.0282L217.58 34.6007L213.201 67.8412L246.371 72.7259L230.28 102.14L259.445 118.677L233.815 140.292L255.037 166.248L223.33 177.145L233.742 209.014L200.24 207.721L198.436 241.2L167.663 227.891L153.887 258.458L130 234.932L106.113 258.458L92.3369 227.891L61.5638 241.2L59.7605 207.721L26.2578 209.014L36.6703 177.145L4.96267 166.248L26.1848 140.292L0.55455 118.677L29.7201 102.14L13.6288 72.7259L46.7987 67.8412L42.4196 34.6007L75.1142 42.0282L83.0386 9.45049L110.842 28.1871L130 0.671875Z" fill="url(#paint0_linear_2724_1632)"/>
<defs>
<linearGradient id="paint0_linear_2724_1632" x1="130" y1="0.671875" x2="130" y2="260.672" gradientUnits="userSpaceOnUse">
<stop stop-color="#E3580A"/>
<stop offset="1" stop-color="#7E3105"/>
</linearGradient>
</defs>
</svg>
