<svg width="250" height="249" viewBox="0 0 250 249" fill="none" xmlns="http://www.w3.org/2000/svg">
<path d="M119.842 3.08001C122.343 -0.511701 127.657 -0.511698 130.158 3.08001L140.621 18.1071C142.583 20.9251 146.443 21.6468 149.291 19.7278L164.476 9.49509C168.105 7.0493 173.061 8.9691 174.095 13.2216L178.423 31.0135C179.234 34.3501 182.574 36.4176 185.922 35.6569L203.778 31.6005C208.046 30.6309 211.973 34.2113 211.401 38.5503L209.01 56.7041C208.561 60.1085 210.928 63.2428 214.325 63.743L232.441 66.4107C236.77 67.0484 239.139 71.8057 237.039 75.6452L228.251 91.7092C226.603 94.7217 227.678 98.4993 230.665 100.193L246.593 109.225C250.4 111.383 250.89 116.675 247.545 119.497L233.547 131.301C230.922 133.515 230.56 137.426 232.733 140.084L244.324 154.26C247.094 157.648 245.639 162.759 241.5 164.182L224.184 170.133C220.936 171.249 219.186 174.765 220.252 178.029L225.939 195.434C227.298 199.594 224.095 203.835 219.722 203.666L201.425 202.96C197.994 202.827 195.091 205.473 194.907 208.902L193.922 227.186C193.686 231.556 189.168 234.354 185.151 232.617L168.345 225.349C165.193 223.986 161.531 225.404 160.12 228.535L152.596 245.229C150.798 249.219 145.574 250.195 142.456 247.124L129.41 234.275C126.964 231.866 123.036 231.866 120.59 234.275L107.544 247.124C104.426 250.195 99.2019 249.219 97.4036 245.229L89.8803 228.535C88.4694 225.404 84.8071 223.986 81.6554 225.349L64.8491 232.617C60.8321 234.354 56.3137 231.556 56.0783 227.186L55.0934 208.902C54.9087 205.473 52.0063 202.827 48.575 202.96L30.278 203.666C25.9047 203.835 22.702 199.594 24.0612 195.434L29.7479 178.029C30.8143 174.765 29.0636 171.249 25.8162 170.133L8.49955 164.182C4.36058 162.759 2.90622 157.648 5.67645 154.26L17.2666 140.084C19.4401 137.426 19.0777 133.515 16.4527 131.301L2.45516 119.496C-0.890483 116.675 -0.400125 111.383 3.407 109.225L19.3353 100.193C22.3224 98.4993 23.3972 94.7217 21.7492 91.7092L12.9611 75.6452C10.8607 71.8057 13.2295 67.0484 17.5594 66.4107L35.6747 63.743C39.0719 63.2428 41.4387 60.1085 40.9902 56.7041L38.5986 38.5503C38.027 34.2112 41.9544 30.6309 46.2222 31.6005L64.0779 35.6569C67.4264 36.4176 70.7656 34.3501 71.5772 31.0135L75.905 13.2216C76.9395 8.96909 81.895 7.0493 85.5244 9.49509L100.709 19.7278C103.557 21.6468 107.417 20.9251 109.379 18.1071L119.842 3.08001Z" fill="url(#paint0_linear_2724_1206)"/>
<defs>
<linearGradient id="paint0_linear_2724_1206" x1="125" y1="-4.32813" x2="125" y2="255.672" gradientUnits="userSpaceOnUse">
<stop stop-color="#45E786"/>
<stop offset="1" stop-color="#043417"/>
</linearGradient>
</defs>
</svg>
