<svg width="526" height="480" viewBox="0 0 526 480" fill="none" xmlns="http://www.w3.org/2000/svg">
<path d="M61.3149 447.738L68.5706 479.021L524.872 373.185L522.818 340.696M61.3149 447.738L522.818 340.696M61.3149 447.738L64.2129 321.798L127.382 307.147M522.818 340.696L449.171 232.51L388.975 246.472M1.33186 101.339L64.5489 309.741L124.537 295.827M1.33186 101.339L410.814 6.36278M1.33186 101.339L10.3026 89.3689L141.651 58.9037M410.814 6.36278L446.534 221.142L386.338 235.104M410.814 6.36278L391.544 0.942617L254.476 32.7347M124.537 295.827L127.382 307.147M124.537 295.827L164.876 286.471M127.382 307.147L167.512 297.839M167.512 297.839L164.876 286.471M167.512 297.839L351.073 255.263M164.876 286.471L348.479 243.886M348.479 243.886L351.073 255.263M348.479 243.886L386.338 235.104M351.073 255.263L388.975 246.472M386.338 235.104L388.975 246.472M141.651 58.9037C141.837 60.7614 142.152 62.6205 142.6 64.4737L165.698 58.3429C165.307 56.7262 165.084 55.1018 165.019 53.4835M141.651 58.9037C139.214 34.6082 158.724 10.5653 187.759 3.53796C217.235 -3.59611 246 9.3542 254.476 32.7347M165.019 53.4835C164.451 39.2878 176.055 25.5544 193.045 21.4423C210.305 17.265 227.162 24.4592 232.898 37.7396M165.019 53.4835L232.898 37.7396M232.898 37.7396C233.452 39.0225 233.902 40.3623 234.239 41.7541L255.784 37.0797C255.425 35.5948 254.987 34.1458 254.476 32.7347M39.8627 126.743L156.987 99.5766M39.8627 126.743L85.7817 276.963M39.8627 126.743L120.452 190.591M156.987 99.5766L160.667 114.53M156.987 99.5766L149.99 117.006M85.7817 276.963L169.601 254.917M85.7817 276.963L120.452 190.591M128.937 121.889L149.99 117.006M128.937 121.889L137.191 148.892M128.937 121.889L209.527 185.737M246.061 94.7231L233.716 125.476L209.527 185.737M246.061 94.7231L241.816 95.7077M246.061 94.7231L247.39 100.124M282.733 243.736L174.856 272.109M282.733 243.736L209.527 185.737M282.733 243.736L278.008 224.536M174.856 272.109L169.601 254.917M174.856 272.109L209.527 185.737M160.667 114.53L149.99 117.006M160.667 114.53L225.755 99.4328M169.601 254.917L159.36 221.416M137.191 148.892L159.36 221.416M137.191 148.892L120.452 190.591M159.36 221.416L120.452 190.591M219.121 77.7271L336.245 50.561L341.657 72.5521M219.121 77.7271L225.755 99.4328M219.121 77.7271L241.816 95.7077M225.755 99.4328L241.816 95.7077M278.008 224.536L273.6 206.622L247.39 100.124M278.008 224.536L306.39 217.071M247.39 100.124L278.073 124.433M267.474 89.7583L278.073 124.433M267.474 89.7583L326.036 76.1753L341.657 72.5521M267.474 89.7583L364.884 166.933L421.27 211.605M384.598 62.5923L421.27 211.605M384.598 62.5923L341.657 72.5521M384.598 62.5923L356.458 132.694L324.5 212.308L313.393 239.978M421.27 211.605L313.393 239.978M313.393 239.978L306.39 217.071M278.073 124.433L290.433 164.868L306.39 217.071M451.991 341.989L101.741 423.226M451.991 341.989L412.077 342.033M451.991 341.989L446.593 334.028M101.741 423.226L100.206 342.384M101.741 423.226L137.308 405.764M100.206 342.384L108.094 342.376M100.206 342.384L108.061 340.625M459.671 330.994L431.073 331.027M459.671 330.994L455.803 325.291M459.671 330.994L446.593 334.028M109.421 412.232L134.904 399.721M109.421 412.232L137.308 405.764M109.421 412.232L108.094 342.376M107.886 331.39L115.383 329.711M107.886 331.39L115.414 331.382M107.886 331.39L108.061 340.625M420.885 254.62L467.042 322.684M420.885 254.62L115.257 323.08M420.885 254.62L281.831 322.892M467.042 322.684L455.803 325.291M467.042 322.684L281.831 322.892M116.792 403.922L115.414 331.382M116.792 403.922L134.904 399.721M116.792 403.922L281.831 322.892M115.257 323.08L115.383 329.711M115.257 323.08L281.831 322.892M115.383 329.711L115.414 331.382M134.904 399.721L431.073 331.027M431.073 331.027L455.803 325.291M137.308 405.764L412.077 342.033M108.094 342.376L108.061 340.625M412.077 342.033L446.593 334.028" stroke="url(#paint0_linear_1645_6254)" stroke-width="1.5"/>
<defs>
<linearGradient id="paint0_linear_1645_6254" x1="-211.504" y1="334.056" x2="574.299" y2="151.795" gradientUnits="userSpaceOnUse">
<stop offset="0.280809" stop-color="#F3FF57"/>
<stop offset="1" stop-color="#FF73CF"/>
</linearGradient>
</defs>
</svg>
