<svg width="725" height="672" viewBox="0 0 725 672" fill="none" xmlns="http://www.w3.org/2000/svg">
<path d="M489.357 30.1809L453.852 65.4217L484.343 184.006M489.357 30.1809L555.465 45.2191M489.357 30.1809L522.891 147.243M489.357 30.1809L588.999 162.281M489.357 30.1809L484.343 184.006M555.465 45.2191L593.892 7.24597M555.465 45.2191L588.999 162.281M593.892 7.24597L629.643 121.94L588.999 162.281M593.892 7.24597L588.999 162.281M588.999 162.281L522.891 147.243M522.891 147.243L484.343 184.006" stroke="url(#paint0_linear_2014_7189)" stroke-width="1.5"/>
<path d="M347.505 290.285L344.061 268.544L672.971 216.449L676.414 238.19M347.505 290.285L676.414 238.19M347.505 290.285L394.355 586.145L723.286 534.047L676.414 238.19M383.237 457.617L530.78 434.389M384.284 464.269L466.998 451.247M380.831 441.629L362.357 324.987M380.831 441.629L526.677 358.745M380.831 441.629L690.997 392.504M362.357 324.987L526.677 358.745M362.357 324.987L672.522 275.862M690.997 392.504L672.522 275.862M690.997 392.504L526.677 358.745M672.522 275.862L526.677 358.745M569.069 269.538L615.528 262.223L617.116 272.309L570.657 279.624L569.069 269.538ZM513.997 278.208L560.456 270.894L562.044 280.979L515.585 288.294L513.997 278.208ZM377.861 304.808C378.635 309.725 375.277 314.338 370.361 315.112C365.444 315.886 360.831 312.528 360.057 307.611C359.283 302.695 362.641 298.082 367.558 297.308C372.474 296.534 377.087 299.892 377.861 304.808ZM622.698 261.095L669.157 253.78L670.745 263.866L624.286 271.18L622.698 261.095ZM451.925 481.424L509.542 472.353L516.87 518.899L459.253 527.97L451.925 481.424ZM388.981 491.334L445.258 482.474L452.586 529.02L396.309 537.88L388.981 491.334ZM579.155 461.394L635.432 452.534L642.76 499.08L586.483 507.94L579.155 461.394ZM516.211 471.303L572.488 462.443L579.816 508.989L523.539 517.849L516.211 471.303ZM642.101 451.484L699.717 442.413L707.045 488.959L649.429 498.03L642.101 451.484ZM613.007 415.479L693.376 402.826L696.462 422.429L616.093 435.081L613.007 415.479ZM384.386 273.059V273.059C384.724 275.193 383.268 277.198 381.134 277.536L380.977 277.561C378.843 277.9 376.837 276.443 376.499 274.308V274.308C376.161 272.174 377.617 270.169 379.751 269.831L379.908 269.806C382.043 269.468 384.048 270.924 384.386 273.059ZM361.797 276.615V276.615C362.136 278.75 360.68 280.754 358.545 281.092L358.389 281.117C356.254 281.456 354.249 279.999 353.911 277.864V277.864C353.573 275.73 355.029 273.726 357.163 273.387L357.319 273.362C359.454 273.024 361.459 274.48 361.797 276.615ZM373.065 274.841V274.841C373.403 276.976 371.947 278.98 369.813 279.319L369.656 279.343C367.522 279.682 365.516 278.225 365.178 276.091V276.091C364.84 273.956 366.296 271.952 368.431 271.613L368.587 271.588C370.722 271.25 372.727 272.706 373.065 274.841Z" stroke="url(#paint1_linear_2014_7189)" stroke-width="1.5"/>
<path d="M135.753 655.264L7.66713 445.479L191.5 316L320.488 527.262L303.909 538.75M136.533 656.541L320.249 565.511L303.909 538.75M136.533 656.541L8.48455 446.818L189.066 350.655M136.533 656.541L189.066 350.655M189.066 350.655L303.909 538.75" stroke="url(#paint2_linear_2014_7189)" stroke-width="1.5"/>
<path d="M218.524 124.477L275.664 116.496M218.524 124.477L226.505 181.617M218.524 124.477L283.645 173.636M218.524 124.477L161.384 132.458M218.524 124.477L169.365 189.598M275.664 116.496L283.645 173.636M275.664 116.496L226.505 181.617M275.664 116.496L332.804 108.515M275.664 116.496L340.785 165.655M283.645 173.636L226.505 181.617M283.645 173.636L340.785 165.655M283.645 173.636L332.804 108.515M226.505 181.617L169.365 189.598M226.505 181.617L161.384 132.458M161.384 132.458L169.365 189.598M332.804 108.515L340.785 165.655M332.804 108.515L389.944 100.534M332.804 108.515L397.925 157.674M340.785 165.655L397.925 157.674M340.785 165.655L389.944 100.534M389.944 100.534L397.925 157.674M172.986 114.643L199.882 110.886M173.508 118.378L186.956 116.5M169.242 117.827C169.617 120.509 167.746 122.987 165.064 123.361C162.382 123.736 159.905 121.866 159.53 119.184C159.155 116.502 161.026 114.024 163.708 113.649C166.39 113.275 168.868 115.145 169.242 117.827Z" stroke="url(#paint3_linear_2014_7189)" stroke-width="1.5"/>
<path d="M27.1878 207.732L12.845 278.025L118.791 299.475L133.134 229.182M27.1878 207.732L133.134 229.182M27.1878 207.732L29.9329 194.174L135.879 215.623L133.134 229.182M18.5076 279.239L17.2407 285.497L123.186 306.947L140.167 223.073L134.758 221.978M138.836 229.382L144.548 230.538L127.567 314.412L21.6211 292.962L22.8699 286.794M49.0406 235.467L105.167 246.83M49.0406 235.467L44.9549 255.647M49.0406 235.467L101.081 267.01M105.167 246.83L101.081 267.01M105.167 246.83L44.9549 255.647M101.081 267.01L44.9549 255.647" stroke="url(#paint4_linear_2014_7189)" stroke-width="1.5"/>
<path d="M226.918 228.444L306.728 265.052L286.469 309.218M226.918 228.444L206.659 272.611L286.469 309.218M226.918 228.444L286.469 309.218" stroke="url(#paint5_linear_2014_7189)" stroke-width="1.5"/>
<path d="M65.1278 130.226C64.4201 132.185 64.0343 134.298 64.0343 136.501C64.0343 144.496 69.1156 151.304 76.2248 153.872M65.1278 130.226C67.6961 123.118 74.5041 118.037 82.4987 118.037C84.1749 118.037 85.7989 118.26 87.3426 118.679M65.1278 130.226L100.321 141.344M87.3426 118.679C95.1906 120.807 100.963 127.98 100.963 136.501C100.963 138.177 100.74 139.801 100.321 141.344M87.3426 118.679L76.2248 153.872M100.321 141.344C98.1937 149.193 91.0204 154.965 82.4987 154.965C80.296 154.965 78.1834 154.58 76.2248 153.872" stroke="url(#paint6_linear_2014_7189)" stroke-width="1.5"/>
<defs>
<linearGradient id="paint0_linear_2014_7189" x1="390.219" y1="143.923" x2="646.836" y2="70.4103" gradientUnits="userSpaceOnUse">
<stop offset="0.280809" stop-color="#F3FF57"/>
<stop offset="1" stop-color="#FF73CF"/>
</linearGradient>
<linearGradient id="paint1_linear_2014_7189" x1="204.087" y1="463.67" x2="764.159" y2="374.963" gradientUnits="userSpaceOnUse">
<stop offset="0.280809" stop-color="#F3FF57"/>
<stop offset="1" stop-color="#FF73CF"/>
</linearGradient>
<linearGradient id="paint2_linear_2014_7189" x1="356.95" y1="368.789" x2="30.8834" y2="567.872" gradientUnits="userSpaceOnUse">
<stop offset="0.280809" stop-color="#F3FF57"/>
<stop offset="1" stop-color="#FF73CF"/>
</linearGradient>
<linearGradient id="paint3_linear_2014_7189" x1="48.6126" y1="170.492" x2="437.782" y2="116.136" gradientUnits="userSpaceOnUse">
<stop offset="0.280809" stop-color="#F3FF57"/>
<stop offset="1" stop-color="#FF73CF"/>
</linearGradient>
<linearGradient id="paint4_linear_2014_7189" x1="-39.9881" y1="233.393" x2="159.707" y2="273.823" gradientUnits="userSpaceOnUse">
<stop offset="0.280809" stop-color="#F3FF57"/>
<stop offset="1" stop-color="#FF73CF"/>
</linearGradient>
<linearGradient id="paint5_linear_2014_7189" x1="175.712" y1="233.356" x2="311.604" y2="295.688" gradientUnits="userSpaceOnUse">
<stop offset="0.280809" stop-color="#F3FF57"/>
<stop offset="1" stop-color="#FF73CF"/>
</linearGradient>
<linearGradient id="paint6_linear_2014_7189" x1="72.3971" y1="172.31" x2="91.3433" y2="112.336" gradientUnits="userSpaceOnUse">
<stop offset="0.280809" stop-color="#F3FF57"/>
<stop offset="1" stop-color="#FF73CF"/>
</linearGradient>
</defs>
</svg>
