<svg width="549" height="535" viewBox="0 0 549 535" fill="none" xmlns="http://www.w3.org/2000/svg">
<path d="M5.03516 93.8228L1.08619 61.4798L296.969 25.3528M5.03516 93.8228L494.325 34.0811M5.03516 93.8228L58.7583 533.947L548.081 474.202L494.325 34.0811M494.325 34.0811L490.376 1.73809L296.969 25.3528M49.0801 343.234L268.561 316.643M50.2789 353.129L173.321 338.221M46.3638 319.457L25.1777 145.938M46.3638 319.457L266.474 204.53M46.3638 319.457L507.77 263.121M25.1777 145.938L266.474 204.53M25.1777 145.938L486.584 89.6021M507.77 263.121L486.584 89.6021M507.77 263.121L266.474 204.53M486.584 89.6021L266.474 204.53M53.8086 55.0003L53.0205 33.2154L296.969 25.3528M492.604 19.0474L516.773 18.2684L527.101 303.78M73.4224 32.637L74.92 10.3055L306.382 24.1361M517.599 36.757L538.016 37.977L524.814 234.829M333.881 74.7994L402.992 66.4263L404.81 81.4296L335.699 89.8028L333.881 74.7994ZM251.959 84.7248L321.07 76.3516L322.887 91.355L253.777 99.7281L251.959 84.7248ZM49.1755 116.905C50.0615 124.219 44.851 130.866 37.5373 131.752C30.2237 132.638 23.5765 127.427 22.6904 120.114C21.8043 112.8 27.0149 106.153 34.3285 105.267C41.6422 104.381 48.2894 109.591 49.1755 116.905ZM413.658 65.134L482.769 56.7608L484.587 71.7642L415.476 80.1373L413.658 65.134ZM149.436 382.068L235.144 371.684L243.533 440.924L157.825 451.308L149.436 382.068ZM55.8021 393.412L139.517 383.27L147.906 452.51L64.1909 462.653L55.8021 393.412ZM338.698 359.138L422.414 348.995L430.802 418.236L347.087 428.378L338.698 359.138ZM245.065 370.482L328.78 360.34L337.169 429.58L253.454 439.722L245.065 370.482ZM432.334 347.794L518.042 337.409L526.431 406.65L440.723 417.034L432.334 347.794ZM391.192 293.001L510.747 278.516L514.279 307.676L394.725 322.16L391.192 293.001ZM60.4994 70.2829V70.2829C60.8871 73.458 58.6278 76.3463 55.4528 76.7347L55.2201 76.7631C52.0442 77.1515 49.1548 74.8915 48.767 71.7154V71.7154C48.3793 68.5403 50.6386 65.652 53.8137 65.2637L54.0463 65.2352C57.2223 64.8468 60.1116 67.1069 60.4994 70.2829ZM26.8975 74.3539V74.3539C27.2852 77.529 25.0259 80.4174 21.8509 80.8057L21.6182 80.8342C18.4423 81.2226 15.5529 78.9625 15.1651 75.7865V75.7865C14.7775 72.6114 17.0368 69.723 20.2118 69.3347L20.4444 69.3063C23.6204 68.9178 26.5097 71.1779 26.8975 74.3539ZM43.6588 72.3232V72.3232C44.0464 75.4983 41.7871 78.3867 38.6121 78.775L38.3795 78.8034C35.2035 79.1919 32.3142 76.9318 31.9264 73.7558V73.7558C31.5387 70.5807 33.798 67.6923 36.973 67.304L37.2057 67.2755C40.3816 66.8871 43.271 69.1472 43.6588 72.3232Z" stroke="url(#paint0_linear_1645_6207)" stroke-width="1.5"/>
<defs>
<linearGradient id="paint0_linear_1645_6207" x1="-240.196" y1="325.916" x2="665.446" y2="215.34" gradientUnits="userSpaceOnUse">
<stop offset="0.280809" stop-color="#F3FF57"/>
<stop offset="1" stop-color="#FF73CF"/>
</linearGradient>
</defs>
</svg>
