<svg width="584" height="526" viewBox="0 0 584 526" fill="none" xmlns="http://www.w3.org/2000/svg">
<path d="M505.133 246.343L273.419 167.23M505.133 246.343L554.196 102.645M505.133 246.343C508.297 251.08 384.684 99.7753 322.482 23.5311M273.419 167.23L322.482 23.5311M273.419 167.23L413.808 134.937L554.196 102.645M322.482 23.5311L330.175 1L561.889 80.1137L554.196 102.645M322.482 23.5311L554.196 102.645M341.557 15.3005C341.202 12.9027 338.971 11.2466 336.573 11.6018L336.397 11.6278C334 11.9829 332.345 14.2137 332.699 16.6108C333.054 19.0086 335.286 20.6647 337.683 20.3095L337.859 20.2835C340.256 19.9284 341.912 17.6976 341.557 15.3005ZM367.241 23.5318C366.886 21.134 364.654 19.4779 362.257 19.833L362.081 19.8591C359.684 20.2141 358.028 22.4449 358.383 24.842C358.738 27.2398 360.969 28.8959 363.367 28.5408L363.543 28.5147C365.94 28.1597 367.595 25.9289 367.241 23.5318ZM354.32 19.0253C353.966 16.6275 351.734 14.9714 349.336 15.3265L349.161 15.3526C346.764 15.7076 345.108 17.9384 345.463 20.3355C345.818 22.7333 348.049 24.3894 350.447 24.0343L350.623 24.0082C353.02 23.6532 354.675 21.4224 354.32 19.0253Z" stroke="url(#paint0_linear_2115_7121)" stroke-width="1.5"/>
<path d="M187.078 198.095C184.8 198.374 182.728 196.753 182.45 194.475V194.475C182.172 192.198 183.792 190.127 186.069 189.848L186.236 189.828C188.514 189.549 190.586 191.17 190.864 193.448V193.448C191.142 195.725 189.522 197.796 187.245 198.075L187.078 198.095Z" fill="#151515"/>
<path d="M175.057 199.552C172.78 199.83 170.708 198.209 170.43 195.932V195.932C170.152 193.655 171.772 191.583 174.049 191.305L174.216 191.284C176.493 191.006 178.565 192.627 178.844 194.904V194.904C179.122 197.181 177.501 199.253 175.224 199.531L175.057 199.552Z" fill="#151515"/>
<path d="M199.155 196.632C196.878 196.911 194.805 195.29 194.527 193.012V193.012C194.249 190.735 195.87 188.664 198.147 188.385L198.313 188.365C200.591 188.086 202.663 189.707 202.941 191.985V191.985C203.219 194.262 201.599 196.333 199.322 196.612L199.155 196.632Z" fill="#151515"/>
<path d="M398.999 195.224L448.562 189.219L449.866 199.979L400.302 205.984L398.999 195.224Z" fill="#151515"/>
<path d="M340.248 202.342L389.811 196.337L391.115 207.097L341.551 213.102L340.248 202.342Z" fill="#151515"/>
<path d="M194.82 225.42C195.456 230.665 191.719 235.432 186.474 236.068C181.229 236.703 176.462 232.966 175.826 227.721C175.191 222.476 178.928 217.709 184.173 217.074C189.418 216.438 194.185 220.175 194.82 225.42Z" fill="#151515"/>
<path d="M456.211 188.292L505.775 182.287L507.078 193.047L457.515 199.052L456.211 188.292Z" fill="#151515"/>
<path d="M469.605 391.003L531.071 383.556L537.087 433.212L475.621 440.659L469.605 391.003Z" fill="#151515"/>
<path d="M440.1 351.708L525.839 341.32L528.373 362.232L442.633 372.62L440.1 351.708Z" fill="#151515"/>
<path d="M192.804 370.682L177.61 246.242L508.511 205.84L523.704 330.28L192.804 370.682Z" fill="#151515"/>
<path fill-rule="evenodd" clip-rule="evenodd" d="M514.062 166.022L163.165 208.867L201.693 524.504L552.614 481.658L537.686 359.439L514.062 166.022ZM448.562 189.219L398.999 195.224L400.302 205.984L449.866 199.979L448.562 189.219ZM389.811 196.337L340.248 202.342L341.551 213.102L391.115 207.097L389.811 196.337ZM186.474 236.068C191.719 235.432 195.456 230.665 194.82 225.42C194.185 220.175 189.418 216.438 184.173 217.074C178.928 217.709 175.191 222.476 175.826 227.721C176.462 232.966 181.229 236.703 186.474 236.068ZM505.775 182.287L456.211 188.292L457.515 199.052L507.078 193.047L505.775 182.287ZM328.189 408.137L266.723 415.584L272.739 465.24L334.205 457.793L328.189 408.137ZM259.61 416.445L199.573 423.719L205.589 473.375L265.626 466.102L259.61 416.445ZM462.49 391.865L402.453 399.139L408.47 448.795L468.507 441.521L462.49 391.865ZM395.34 400.001L335.304 407.275L341.32 456.931L401.357 449.657L395.34 400.001ZM531.071 383.556L469.605 391.003L475.621 440.659L537.087 433.212L531.071 383.556ZM525.839 341.32L440.1 351.708L442.633 372.62L528.373 362.232L525.839 341.32ZM192.804 370.682L177.61 246.242L508.511 205.84L523.704 330.28L192.804 370.682Z" fill="#151515"/>
<path fill-rule="evenodd" clip-rule="evenodd" d="M511.23 142.827L372.527 159.763L160.333 185.672L163.165 208.867L514.062 166.022L512.768 155.427L511.23 142.827ZM187.078 198.095C184.8 198.374 182.728 196.753 182.45 194.475V194.475C182.172 192.198 183.792 190.127 186.069 189.848L186.236 189.828C188.514 189.549 190.586 191.17 190.864 193.448V193.448C191.142 195.725 189.522 197.796 187.245 198.075L187.078 198.095ZM175.057 199.552C172.78 199.83 170.708 198.209 170.43 195.932V195.932C170.152 193.655 171.772 191.583 174.049 191.305L174.216 191.284C176.493 191.006 178.565 192.627 178.844 194.904V194.904C179.122 197.181 177.501 199.253 175.224 199.531L175.057 199.552ZM199.155 196.632C196.878 196.911 194.805 195.29 194.527 193.012V193.012C194.249 190.735 195.87 188.664 198.147 188.385L198.313 188.365C200.591 188.086 202.663 189.707 202.941 191.985V191.985C203.219 194.262 201.599 196.333 199.322 196.612L199.155 196.632Z" fill="#151515"/>
<path d="M199.573 423.719L259.61 416.445L265.626 466.102L205.589 473.375L199.573 423.719Z" fill="#151515"/>
<path d="M266.723 415.584L328.189 408.137L334.205 457.793L272.739 465.24L266.723 415.584Z" fill="#151515"/>
<path d="M335.304 407.275L395.34 400.001L401.357 449.657L341.32 456.931L335.304 407.275Z" fill="#151515"/>
<path d="M402.453 399.139L462.49 391.865L468.507 441.521L408.47 448.795L402.453 399.139Z" fill="#151515"/>
<path d="M212.213 164.93L372.527 159.763L213.283 148.972L212.213 164.93Z" fill="#151515"/>
<path d="M197.578 165.402L199.026 180.947L372.527 159.763L212.213 164.93L197.578 165.402Z" fill="#151515"/>
<path d="M530.161 154.682L512.768 155.427L514.062 166.022L537.686 359.439L535.781 310.045L530.657 168.396L530.161 154.682Z" fill="#151515"/>
<path d="M545.395 168.816L530.657 168.396L535.781 310.045L545.395 168.816Z" fill="#151515"/>
<path d="M163.165 208.867L160.333 185.672L372.527 159.763M163.165 208.867L514.062 166.022M163.165 208.867L201.693 524.504L552.614 481.658L537.686 359.439M514.062 166.022L512.768 155.427M514.062 166.022L537.686 359.439M194.752 387.733L352.154 368.663M195.612 394.829L283.852 384.139M192.804 370.682L177.61 246.242M192.804 370.682L350.657 288.261M192.804 370.682L523.704 330.28M177.61 246.242L350.657 288.261M177.61 246.242L508.511 205.84M523.704 330.28L508.511 205.84M523.704 330.28L350.657 288.261M508.511 205.84L350.657 288.261M512.768 155.427L530.161 154.682L530.657 168.396M512.768 155.427L511.23 142.827L372.527 159.763M537.686 359.439L535.781 310.045M372.527 159.763L213.283 148.972L212.213 164.93M372.527 159.763L212.213 164.93M372.527 159.763L199.026 180.947L197.578 165.402L212.213 164.93M212.209 164.987L212.213 164.93M530.657 168.396L545.395 168.816L535.781 310.045M530.657 168.396L535.781 310.045M398.999 195.224L448.562 189.219L449.866 199.979L400.302 205.984L398.999 195.224ZM340.248 202.342L389.811 196.337L391.115 207.097L341.551 213.102L340.248 202.342ZM194.82 225.42C195.456 230.665 191.719 235.432 186.474 236.068C181.229 236.703 176.462 232.966 175.826 227.721C175.191 222.476 178.928 217.709 184.173 217.074C189.418 216.438 194.185 220.175 194.82 225.42ZM456.211 188.292L505.775 182.287L507.078 193.047L457.515 199.052L456.211 188.292ZM266.723 415.584L328.189 408.137L334.205 457.793L272.739 465.24L266.723 415.584ZM199.573 423.719L259.61 416.445L265.626 466.102L205.589 473.375L199.573 423.719ZM402.453 399.139L462.49 391.865L468.507 441.521L408.47 448.795L402.453 399.139ZM335.304 407.275L395.34 400.001L401.357 449.657L341.32 456.931L335.304 407.275ZM469.605 391.003L531.071 383.556L537.087 433.212L475.621 440.659L469.605 391.003ZM440.1 351.708L525.839 341.32L528.373 362.232L442.633 372.62L440.1 351.708ZM202.941 191.985V191.985C203.219 194.262 201.599 196.333 199.322 196.612L199.155 196.632C196.878 196.911 194.805 195.29 194.527 193.012V193.012C194.249 190.735 195.87 188.664 198.147 188.385L198.313 188.365C200.591 188.086 202.663 189.707 202.941 191.985ZM178.844 194.904V194.904C179.122 197.181 177.501 199.253 175.224 199.531L175.057 199.552C172.78 199.83 170.708 198.209 170.43 195.932V195.932C170.152 193.655 171.772 191.583 174.049 191.305L174.216 191.284C176.493 191.006 178.565 192.627 178.844 194.904ZM190.864 193.448V193.448C191.142 195.725 189.522 197.796 187.245 198.075L187.078 198.095C184.8 198.374 182.728 196.753 182.45 194.475V194.475C182.172 192.198 183.792 190.127 186.069 189.848L186.236 189.828C188.514 189.549 190.586 191.17 190.864 193.448Z" stroke="url(#paint1_linear_2115_7121)" stroke-width="1.5"/>
<path d="M10.1237 234.48L228.183 247.192L226.947 268.395L219.064 403.626L1.00442 390.914L8.88762 255.684L10.1237 234.48Z" fill="#151515"/>
<path d="M22.1336 249.993C19.7506 250.436 17.4593 248.864 17.016 246.481C16.573 244.099 18.1448 241.808 20.527 241.364L20.7016 241.332C23.0845 240.888 25.3759 242.461 25.8191 244.844C26.2622 247.226 24.6904 249.517 22.3081 249.96L22.1336 249.993Z" fill="#151515"/>
<path d="M48.0943 252.255C45.7114 252.699 43.42 251.127 42.9768 248.744C42.5337 246.361 44.1055 244.071 46.4878 243.627L46.6623 243.595C49.0453 243.151 51.3366 244.723 51.7798 247.106C52.2229 249.489 50.6511 251.779 48.2689 252.223L48.0943 252.255Z" fill="#151515"/>
<path d="M35.29 250.875C32.9071 251.319 30.6157 249.747 30.1725 247.364C29.7294 244.981 31.3012 242.691 33.6834 242.247L33.858 242.215C36.241 241.771 38.5323 243.343 38.9755 245.726C39.4186 248.109 37.8468 250.399 35.4646 250.843L35.29 250.875Z" fill="#151515"/>
<path d="M219.064 403.626L1.00442 390.914M219.064 403.626L226.947 268.395M219.064 403.626C222.914 406.942 80.5505 306.379 8.88762 255.684M1.00442 390.914L8.88762 255.684M1.00442 390.914L226.947 268.395M8.88762 255.684L10.1237 234.48L228.183 247.192L226.947 268.395M8.88762 255.684L226.947 268.395M25.8191 244.844C25.3759 242.461 23.0845 240.888 20.7016 241.332L20.527 241.364C18.1448 241.808 16.573 244.099 17.016 246.481C17.4593 248.864 19.7506 250.436 22.1336 249.993L22.3081 249.96C24.6904 249.517 26.2622 247.226 25.8191 244.844ZM51.7798 247.106C51.3366 244.723 49.0453 243.151 46.6623 243.595L46.4878 243.627C44.1055 244.071 42.5337 246.361 42.9768 248.744C43.42 251.127 45.7114 252.699 48.0943 252.255L48.2689 252.223C50.6511 251.779 52.2229 249.489 51.7798 247.106ZM38.9755 245.726C38.5323 243.343 36.241 241.771 33.858 242.215L33.6834 242.247C31.3012 242.691 29.7294 244.981 30.1725 247.364C30.6157 249.747 32.9071 251.319 35.29 250.875L35.4646 250.843C37.8468 250.399 39.4186 248.109 38.9755 245.726Z" stroke="url(#paint2_linear_2115_7121)" stroke-width="1.5"/>
<path d="M236.894 166.066L115.944 218.123L109.106 221.066L72.7314 136.199L200.52 81.1984L236.894 166.066Z" fill="#151515"/>
<path fill-rule="evenodd" clip-rule="evenodd" d="M65.6926 119.845L193.481 64.8445L196.758 72.4567L200.52 81.1984L72.7314 136.199L65.6926 119.845Z" fill="#151515"/>
<path d="M116.183 149.51L183.88 120.373L194.357 144.713L126.659 173.851L116.183 149.51Z" fill="#151515"/>
<path d="M200.52 81.1984L236.894 166.066L115.944 218.123L119.234 225.746L126.048 222.813L247.023 170.745L206.761 77.2016L203.48 69.5792L196.758 72.4567L200.52 81.1984Z" fill="#151515"/>
<path d="M257.13 175.429L213.588 74.2633L206.761 77.2016L247.023 170.745L126.048 222.813L129.342 230.43L257.13 175.429Z" fill="#151515"/>
<path d="M72.7314 136.199L109.106 221.066L115.944 218.123M72.7314 136.199L200.52 81.1984M72.7314 136.199L65.6926 119.845L193.481 64.8445L196.758 72.4567M200.52 81.1984L236.894 166.066L115.944 218.123M200.52 81.1984L196.758 72.4567M115.944 218.123L119.234 225.746L126.048 222.813M196.758 72.4567L203.48 69.5792L206.761 77.2016M206.761 77.2016L213.588 74.2633L257.13 175.429L129.342 230.43L126.048 222.813M206.761 77.2016L247.023 170.745L126.048 222.813M116.183 149.51L183.88 120.373M116.183 149.51L126.659 173.851M116.183 149.51L194.357 144.713M183.88 120.373L194.357 144.713M183.88 120.373L126.659 173.851M194.357 144.713L126.659 173.851" stroke="url(#paint3_linear_2115_7121)" stroke-width="1.5"/>
<defs>
<linearGradient id="paint0_linear_2115_7121" x1="182.542" y1="49.2459" x2="577.229" y2="184.003" gradientUnits="userSpaceOnUse">
<stop offset="0.280809" stop-color="#F3FF57"/>
<stop offset="1" stop-color="#FF73CF"/>
</linearGradient>
<linearGradient id="paint1_linear_2115_7121" x1="-12.7042" y1="375.314" x2="636.783" y2="296.014" gradientUnits="userSpaceOnUse">
<stop offset="0.280809" stop-color="#F3FF57"/>
<stop offset="1" stop-color="#FF73CF"/>
</linearGradient>
<linearGradient id="paint2_linear_2115_7121" x1="-105.267" y1="311.182" x2="266.161" y2="332.834" gradientUnits="userSpaceOnUse">
<stop offset="0.280809" stop-color="#F3FF57"/>
<stop offset="1" stop-color="#FF73CF"/>
</linearGradient>
<linearGradient id="paint3_linear_2115_7121" x1="20.4955" y1="212.6" x2="261.362" y2="108.93" gradientUnits="userSpaceOnUse">
<stop offset="0.280809" stop-color="#F3FF57"/>
<stop offset="1" stop-color="#FF73CF"/>
</linearGradient>
</defs>
</svg>
