<svg width="652" height="658" viewBox="0 0 652 658" fill="none" xmlns="http://www.w3.org/2000/svg">
<path d="M357.488 46.0657L303.296 99.8548L349.836 280.854M357.488 46.0657L458.39 69.0191M357.488 46.0657L408.673 224.741M357.488 46.0657L509.575 247.694M357.488 46.0657L349.836 280.854M458.39 69.0191L517.043 11.0596M458.39 69.0191L509.575 247.694M517.043 11.0596L571.61 186.12L509.575 247.694M517.043 11.0596L509.575 247.694M509.575 247.694L408.673 224.741M408.673 224.741L349.836 280.854" stroke="url(#paint0_linear_2115_7122)" stroke-width="1.5"/>
<path d="M139.182 106.724L223.995 129.45L211.419 176.385M139.182 106.724L126.606 153.66L211.419 176.385M139.182 106.724L211.419 176.385" stroke="url(#paint1_linear_2115_7122)" stroke-width="1.5"/>
<path d="M515.795 279.724L650.417 325.702L587.229 510.717M515.795 279.724L452.607 464.74L587.229 510.717M515.795 279.724L587.229 510.717" stroke="url(#paint2_linear_2115_7122)" stroke-width="1.5"/>
<path d="M2.10599 359.224L6.76872 355.533M2.10599 359.224L2.82078 357.734M2.10599 359.224L4.06802 357.038M194.106 207.224L212.835 240.669M194.106 207.224L6.76872 355.533M194.106 207.224L151.249 241.153M212.835 240.669L262.378 213.053M212.835 240.669L6.76872 355.533M151.249 241.153L133.106 213.224L83.3671 268.691M151.249 241.153L6.76872 355.533M83.3671 268.691L60.606 237.224L2.82078 357.734M83.3671 268.691L4.06802 357.038M141.229 654.28L1 358.749M1 358.749L2.82078 357.734M1 358.749L1.89489 360.635M262.378 213.053L403.594 510.665L380.048 523.554M262.378 213.053L6.76872 355.533M142.082 656.078L397.937 561.253L380.048 523.554M142.082 656.078L1.89489 360.635M142.082 656.078L254.319 258.579M1.89489 360.635L254.319 258.579M254.319 258.579L380.048 523.554M6.76872 355.533L4.06802 357.038M2.82078 357.734L4.06802 357.038" stroke="url(#paint3_linear_2115_7122)" stroke-width="1.5"/>
<defs>
<linearGradient id="paint0_linear_2115_7122" x1="206.171" y1="219.674" x2="597.853" y2="107.469" gradientUnits="userSpaceOnUse">
<stop offset="0.280809" stop-color="#F3FF57"/>
<stop offset="1" stop-color="#FF73CF"/>
</linearGradient>
<linearGradient id="paint1_linear_2115_7122" x1="89.5214" y1="120.142" x2="233.933" y2="158.837" gradientUnits="userSpaceOnUse">
<stop offset="0.280809" stop-color="#F3FF57"/>
<stop offset="1" stop-color="#FF73CF"/>
</linearGradient>
<linearGradient id="paint2_linear_2115_7122" x1="414.006" y1="354.714" x2="643.227" y2="433.001" gradientUnits="userSpaceOnUse">
<stop offset="0.280809" stop-color="#F3FF57"/>
<stop offset="1" stop-color="#FF73CF"/>
</linearGradient>
<linearGradient id="paint3_linear_2115_7122" x1="-203.017" y1="445.678" x2="482.481" y2="445.678" gradientUnits="userSpaceOnUse">
<stop offset="0.280809" stop-color="#F3FF57"/>
<stop offset="1" stop-color="#FF73CF"/>
</linearGradient>
</defs>
</svg>
