<svg width="703" height="546" viewBox="0 0 703 546" fill="none" xmlns="http://www.w3.org/2000/svg">
<path d="M368.831 273.774L368.935 273.031L368.193 272.927L368.089 273.669L368.831 273.774ZM621.366 309.142L622.109 309.246L622.214 308.503L621.47 308.399L621.366 309.142ZM588.322 544.49L588.218 545.232L588.96 545.336L589.065 544.594L588.322 544.49ZM335.786 509.122L335.044 509.017L334.939 509.76L335.682 509.864L335.786 509.122ZM398.147 237.489L398.89 237.593L398.147 237.489ZM383.47 248.56L383.574 247.818L383.47 248.56ZM372.399 233.883L373.141 233.987L372.399 233.883ZM387.076 222.812L387.18 222.069L387.076 222.812ZM368.727 274.516L621.262 309.884L621.47 308.399L368.935 273.031L368.727 274.516ZM620.624 309.037L587.579 544.385L589.065 544.594L622.109 309.246L620.624 309.037ZM588.426 543.747L335.89 508.379L335.682 509.864L588.218 545.232L588.426 543.747ZM336.529 509.226L369.574 273.878L368.089 273.669L335.044 509.017L336.529 509.226ZM397.405 237.385C396.466 244.085 390.274 248.756 383.574 247.818L383.366 249.303C390.886 250.356 397.837 245.114 398.89 237.593L397.405 237.385ZM383.574 247.818C376.874 246.879 372.203 240.687 373.141 233.987L371.656 233.779C370.603 241.299 375.845 248.25 383.366 249.303L383.574 247.818ZM373.141 233.987C374.08 227.287 380.272 222.616 386.972 223.554L387.18 222.069C379.66 221.016 372.709 226.258 371.656 233.779L373.141 233.987ZM386.972 223.554C393.672 224.493 398.343 230.685 397.405 237.385L398.89 237.593C399.943 230.072 394.701 223.122 387.18 222.069L386.972 223.554ZM376.04 207.887L415.39 213.398L415.598 211.912L376.248 206.401L376.04 207.887ZM505.547 226.024L544.897 231.535L545.105 230.05L505.755 224.539L505.547 226.024ZM418.833 213.88L458.675 219.46L458.883 217.974L419.041 212.394L418.833 213.88ZM404.956 232.132L476.26 242.118L476.468 240.632L405.164 230.646L404.956 232.132ZM403.569 242.035L439.221 247.028L439.429 245.543L403.777 240.549L403.569 242.035ZM548.376 232.023L588.219 237.603L588.427 236.117L548.584 230.537L548.376 232.023ZM462.118 219.942L501.468 225.453L501.677 223.968L462.326 218.457L462.118 219.942ZM591.206 238.021L630.556 243.532L630.764 242.047L591.414 236.535L591.206 238.021ZM604.168 277.173L615.146 268.471L614.214 267.295L603.236 275.998L604.168 277.173ZM615.146 268.471L626.071 259.81L625.139 258.635L614.214 267.295L615.146 268.471ZM623.486 278.312L615.279 267.431L614.081 268.335L622.289 279.216L623.486 278.312ZM615.279 267.431L606.455 255.734L605.258 256.637L614.081 268.335L615.279 267.431Z" fill="url(#paint0_linear_2115_7120)"/>
<path d="M27.6516 440.469L26.9142 440.606L27.0514 441.343L27.7887 441.206L27.6516 440.469ZM9.00198 340.188L8.86485 339.451L8.12749 339.588L8.26462 340.325L9.00198 340.188ZM284.282 288.993L285.019 288.856L284.882 288.119L284.145 288.256L284.282 288.993ZM302.932 389.274L303.069 390.011L303.806 389.874L303.669 389.137L302.932 389.274ZM28.3889 440.332L9.73934 340.051L8.26462 340.325L26.9142 440.606L28.3889 440.332ZM9.13911 340.926L284.419 289.731L284.145 288.256L8.86485 339.451L9.13911 340.926ZM283.545 289.13L302.194 389.411L303.669 389.137L285.019 288.856L283.545 289.13ZM302.794 388.536L27.5145 439.731L27.7887 441.206L303.069 390.011L302.794 388.536ZM17.0572 316.854C17.8365 321.045 15.0711 325.074 10.8805 325.853L11.1548 327.328C16.1599 326.397 19.4627 321.585 18.5319 316.58L17.0572 316.854ZM10.8805 325.853C6.68991 326.633 2.66096 323.867 1.88161 319.677L0.406895 319.951C1.33771 324.956 6.14971 328.259 11.1548 327.328L10.8805 325.853ZM1.88161 319.677C1.10226 315.486 3.86764 311.457 8.05826 310.678L7.784 309.203C2.77892 310.134 -0.523922 314.946 0.406895 319.951L1.88161 319.677ZM8.05826 310.678C12.2489 309.898 16.2778 312.664 17.0572 316.854L18.5319 316.58C17.6011 311.575 12.7891 308.272 7.784 309.203L8.05826 310.678ZM24.2441 312.205L70.3526 303.63L70.0783 302.155L23.9698 310.73L24.2441 312.205ZM25.435 318.609L48.4892 314.321L48.215 312.847L25.1607 317.134L25.435 318.609Z" fill="url(#paint1_linear_2115_7120)"/>
<path d="M127.331 72.5044C128.82 66.8066 132.59 65.5786 134.87 64.8358C140.995 62.8404 147.274 65.2558 149.902 73.3218C154.172 86.429 138.628 103.76 137.62 104.089C136.612 104.417 113.842 99.5674 109.572 86.4602C107.166 79.0736 110.596 72.7436 116.721 70.7481C119.001 70.0054 122.771 68.7774 127.331 72.5044Z" fill="#151515"/>
<path d="M277.018 107.367L252.657 250.375M277.018 107.367L109.649 226.014M277.018 107.367L149.35 85.6024M252.657 250.375L109.649 226.014M252.657 250.375L143.766 96.6579M109.649 226.014L130.653 102.515M127.331 72.5044C128.82 66.8066 132.59 65.5786 134.87 64.8358C140.995 62.8404 147.274 65.2558 149.902 73.3218C154.172 86.429 138.628 103.76 137.62 104.089C136.612 104.417 113.842 99.5674 109.572 86.4602C107.166 79.0736 110.596 72.7436 116.721 70.7481C119.001 70.0054 122.771 68.7774 127.331 72.5044Z" stroke="url(#paint2_linear_2115_7120)" stroke-width="1.5"/>
<path d="M419.942 66.102L509.717 53.563L522.256 143.338L432.481 155.877L419.942 66.102Z" fill="#151515"/>
<path d="M330.167 78.6411L419.942 66.102L432.481 155.877L342.706 168.416L330.167 78.6411Z" fill="#151515"/>
<path d="M509.717 53.563L599.492 41.0239L612.031 130.799L522.256 143.338L509.717 53.563Z" fill="#151515"/>
<path d="M599.492 41.0239L689.267 28.4852L701.806 118.26L612.031 130.799L599.492 41.0239Z" fill="#151515"/>
<path d="M509.717 53.563L599.492 41.0239L612.031 130.799L522.256 143.338L509.717 53.563Z" fill="#151515"/>
<path d="M342.513 55.6543C343.102 59.8681 340.163 63.7611 335.949 64.3496C331.736 64.9381 327.843 61.9993 327.254 57.7856C326.666 53.5719 329.604 49.6789 333.818 49.0904C338.032 48.5018 341.925 51.4406 342.513 55.6543Z" fill="#151515"/>
<path d="M419.942 66.102L509.717 53.563M419.942 66.102L432.481 155.877M419.942 66.102L522.256 143.338M419.942 66.102L330.167 78.6411M419.942 66.102L342.706 168.416M509.717 53.563L522.256 143.338M509.717 53.563L432.481 155.877M509.717 53.563L599.492 41.0239M509.717 53.563L612.031 130.799M522.256 143.338L432.481 155.877M522.256 143.338L612.031 130.799M522.256 143.338L599.492 41.0239M432.481 155.877L342.706 168.416M432.481 155.877L330.167 78.6411M330.167 78.6411L342.706 168.416M599.492 41.0239L612.031 130.799M599.492 41.0239L689.267 28.4852M599.492 41.0239L701.806 118.26M612.031 130.799L701.806 118.26M612.031 130.799L689.267 28.4852M689.267 28.4852L701.806 118.26M348.396 50.6513L390.652 44.7493M349.216 56.5206L370.344 53.5696M342.513 55.6543C343.102 59.8681 340.163 63.7611 335.949 64.3496C331.736 64.9381 327.843 61.9993 327.254 57.7856C326.666 53.5719 329.604 49.6789 333.818 49.0904C338.032 48.5018 341.925 51.4406 342.513 55.6543Z" stroke="url(#paint3_linear_2115_7120)" stroke-width="1.5"/>
<defs>
<linearGradient id="paint0_linear_2115_7120" x1="186.358" y1="386.359" x2="688.439" y2="386.359" gradientUnits="userSpaceOnUse">
<stop offset="0.280809" stop-color="#F3FF57"/>
<stop offset="1" stop-color="#FF73CF"/>
</linearGradient>
<linearGradient id="paint1_linear_2115_7120" x1="-152.006" y1="369.464" x2="362.094" y2="369.464" gradientUnits="userSpaceOnUse">
<stop offset="0.280809" stop-color="#F3FF57"/>
<stop offset="1" stop-color="#FF73CF"/>
</linearGradient>
<linearGradient id="paint2_linear_2115_7120" x1="12.644" y1="131.216" x2="298.512" y2="179.913" gradientUnits="userSpaceOnUse">
<stop offset="0.280809" stop-color="#F3FF57"/>
<stop offset="1" stop-color="#FF73CF"/>
</linearGradient>
<linearGradient id="paint3_linear_2115_7120" x1="152.987" y1="138.399" x2="764.428" y2="52.9979" gradientUnits="userSpaceOnUse">
<stop offset="0.280809" stop-color="#F3FF57"/>
<stop offset="1" stop-color="#FF73CF"/>
</linearGradient>
</defs>
</svg>
